<?xml version="1.0" encoding="UTF-8" standalone="no"?>
<svg
   xmlns:dc="http://purl.org/dc/elements/1.1/"
   xmlns:cc="http://creativecommons.org/ns#"
   xmlns:rdf="http://www.w3.org/1999/02/22-rdf-syntax-ns#"
   xmlns:svg="http://www.w3.org/2000/svg"
   xmlns="http://www.w3.org/2000/svg"
   xmlns:sodipodi="http://sodipodi.sourceforge.net/DTD/sodipodi-0.dtd"
   xmlns:inkscape="http://www.inkscape.org/namespaces/inkscape"
   viewBox="0 -256 1792 1792"
   id="svg2989"
   version="1.1"
   inkscape:version="0.91 r13725"
   width="100%"
   height="100%"
   sodipodi:docname="arrow_back.svg">
  <metadata
     id="metadata2999">
    <rdf:RDF>
      <cc:Work
         rdf:about="">
        <dc:format>image/svg+xml</dc:format>
        <dc:type
           rdf:resource="http://purl.org/dc/dcmitype/StillImage" />
      </cc:Work>
    </rdf:RDF>
  </metadata>
  <defs
     id="defs2997" />
  <sodipodi:namedview
     pagecolor="#ffffff"
     bordercolor="#666666"
     borderopacity="1"
     objecttolerance="10"
     gridtolerance="10"
     guidetolerance="10"
     inkscape:pageopacity="0"
     inkscape:pageshadow="2"
     inkscape:window-width="1600"
     inkscape:window-height="837"
     id="namedview2995"
     showgrid="false"
     inkscape:zoom="0.13169643"
     inkscape:cx="896.00001"
     inkscape:cy="896.00001"
     inkscape:window-x="-8"
     inkscape:window-y="-8"
     inkscape:window-maximized="1"
     inkscape:current-layer="svg2989" />
  <g
     transform="matrix(1,0,0,-1,129.08475,1277.8305)"
     id="g2991"
     style="fill:#1c91ff;fill-opacity:1;opacity:0.98">
    <path
       d="m 1280,576 v 128 q 0,26 -19,45 -19,19 -45,19 H 714 l 189,189 q 19,19 19,45 0,26 -19,45 l -91,91 q -18,18 -45,18 -27,0 -45,-18 L 360,776 269,685 q -18,-18 -18,-45 0,-27 18,-45 l 91,-91 362,-362 q 18,-18 45,-18 27,0 45,18 l 91,91 q 18,18 18,45 0,27 -18,45 L 714,512 h 502 q 26,0 45,19 19,19 19,45 z m 256,64 Q 1536,431 1433,254.5 1330,78 1153.5,-25 977,-128 768,-128 559,-128 382.5,-25 206,78 103,254.5 0,431 0,640 0,849 103,1025.5 206,1202 382.5,1305 559,1408 768,1408 977,1408 1153.5,1305 1330,1202 1433,1025.5 1536,849 1536,640 z"
       id="path2993"
       inkscape:connector-curvature="0"
       style="fill:#1c91ff;fill-opacity:1" />
  </g>
</svg>
