<?xml version="1.0" encoding="UTF-8" standalone="no"?>
<svg
   xmlns:osb="http://www.openswatchbook.org/uri/2009/osb"
   xmlns:dc="http://purl.org/dc/elements/1.1/"
   xmlns:cc="http://creativecommons.org/ns#"
   xmlns:rdf="http://www.w3.org/1999/02/22-rdf-syntax-ns#"
   xmlns:svg="http://www.w3.org/2000/svg"
   xmlns="http://www.w3.org/2000/svg"
   xmlns:xlink="http://www.w3.org/1999/xlink"
   xmlns:sodipodi="http://sodipodi.sourceforge.net/DTD/sodipodi-0.dtd"
   xmlns:inkscape="http://www.inkscape.org/namespaces/inkscape"
   version="1.0"
   width="642.000000pt"
   height="410.000000pt"
   viewBox="0 0 642.000000 410.000000"
   preserveAspectRatio="xMidYMid meet"
   id="svg2"
   inkscape:version="0.91 r13725"
   sodipodi:docname="600px_x_400px_2009_-_Google_Chrome_3_j.svg">
  <defs
     id="defs16">
    <inkscape:perspective
       sodipodi:type="inkscape:persp3d"
       inkscape:vp_x="0 : 205 : 1"
       inkscape:vp_y="0 : 1000 : 0"
       inkscape:vp_z="642 : 205 : 1"
       inkscape:persp3d-origin="321 : 136.66667 : 1"
       id="perspective6241" />
    <linearGradient
       inkscape:collect="always"
       id="linearGradient5956">
      <stop
         style="stop-color:#fff6cf;stop-opacity:1;"
         offset="0"
         id="stop5958" />
      <stop
         style="stop-color:#fff6cf;stop-opacity:0;"
         offset="1"
         id="stop5960" />
    </linearGradient>
    <linearGradient
       id="linearGradient5887"
       osb:paint="solid">
      <stop
         style="stop-color:#ffda31;stop-opacity:1;"
         offset="0"
         id="stop5889" />
    </linearGradient>
    <linearGradient
       inkscape:collect="always"
       id="linearGradient4237">
      <stop
         style="stop-color:#fffb00;stop-opacity:1;"
         offset="0"
         id="stop4239" />
      <stop
         style="stop-color:#fffb00;stop-opacity:0;"
         offset="1"
         id="stop4241" />
    </linearGradient>
    <radialGradient
       inkscape:collect="always"
       xlink:href="#linearGradient5956"
       id="radialGradient5964-9-5"
       cx="335.68756"
       cy="1710.793"
       fx="335.68756"
       fy="1710.793"
       r="286.09232"
       gradientTransform="matrix(-1.0563405,0.54119676,-0.84223918,-1.236355,2131.185,3644.2673)"
       gradientUnits="userSpaceOnUse" />
    <filter
       inkscape:collect="always"
       style="color-interpolation-filters:sRGB"
       id="filter5883-2-4-3"
       x="-0.010996137"
       width="1.0219923"
       y="-0.013205567"
       height="1.0264111">
      <feGaussianBlur
         inkscape:collect="always"
         stdDeviation="2.5651776"
         id="feGaussianBlur5885-9-5-1" />
    </filter>
    <radialGradient
       inkscape:collect="always"
       xlink:href="#linearGradient4237"
       id="radialGradient4243-7-5"
       cx="-873.5965"
       cy="3062.4424"
       fx="-873.5965"
       fy="3062.4424"
       r="510.44873"
       gradientTransform="matrix(1.1263829,4.2090302,-3.2488381,0.7615644,8728.5228,6707.439)"
       gradientUnits="userSpaceOnUse" />
  </defs>
  <sodipodi:namedview
     pagecolor="#ffffff"
     bordercolor="#666666"
     borderopacity="1"
     objecttolerance="10"
     gridtolerance="10"
     guidetolerance="10"
     inkscape:pageopacity="0"
     inkscape:pageshadow="2"
     inkscape:window-width="1600"
     inkscape:window-height="837"
     id="namedview14"
     showgrid="false"
     inkscape:zoom="0.55"
     inkscape:cx="86.561267"
     inkscape:cy="417.50619"
     inkscape:window-x="-8"
     inkscape:window-y="-8"
     inkscape:window-maximized="1"
     inkscape:current-layer="g6" />
  <metadata
     id="metadata4">
Created by potrace 1.13, written by Peter Selinger 2001-2015
<rdf:RDF>
  <cc:Work
     rdf:about="">
    <dc:format>image/svg+xml</dc:format>
    <dc:type
       rdf:resource="http://purl.org/dc/dcmitype/StillImage" />
  </cc:Work>
</rdf:RDF>
</metadata>
  <g
     transform="matrix(0.1,0,0,-0.1,0.80888563,409.19111)"
     id="g6"
     style="fill:#000000;stroke:none">
    <rect
       style="opacity:0.46300001;fill:#fcfcfc;fill-opacity:1;fill-rule:nonzero;stroke:none;stroke-opacity:1"
       id="rect6028-5-0"
       width="189.0909"
       height="465.45453"
       x="4575.2339"
       y="-1437.4178"
       ry="0"
       transform="scale(1,-1)" />
    <g
       id="g6540"
       transform="matrix(0.63330709,0,0,0.71501548,4529.0968,-1212.9216)">
      <path
         id="path8-3-8-7"
         d="m -2553.5273,7275.8635 c -702.9245,-52.2619 -1341.7457,-447.1298 -1657.8407,-1025.8825 -145.89,-269.0522 -183.4679,-425.8379 -183.4679,-762.6371 0,-336.7991 37.5779,-493.5848 183.4679,-760.7014 110.5226,-201.3054 181.2572,-290.3442 404.513,-512.9414 490.7209,-483.9067 612.2959,-807.1563 612.2959,-1639.4759 0,-313.5716 4.4209,-365.8335 39.7882,-416.1598 41.9987,-58.069 130.4169,-106.4595 258.6231,-139.3653 48.6301,-11.6138 66.3137,-29.0342 66.3137,-63.8757 8.8418,-180.0134 13.2628,-197.4338 66.3136,-241.9534 53.0509,-46.4551 59.6823,-48.3907 408.9342,-48.3907 349.2517,0 355.8831,1.9356 408.9341,48.3907 53.0507,44.5196 59.6823,67.7471 64.1032,230.3397 2.2105,69.6827 6.6314,75.4894 77.366,81.2965 41.9985,3.8712 106.1017,25.1629 145.8898,46.455 130.417,69.6825 141.4692,114.2019 152.5215,638.7568 8.8417,423.9023 15.4731,493.5849 64.1032,658.1131 99.4705,336.7992 229.8872,541.9755 530.50903,840.0622 234.30808,230.3397 307.25323,319.3785 415.56544,524.555 145.88961,272.9235 181.25713,420.0311 181.25713,754.8946 0,336.7992 -37.57761,493.5849 -183.46767,762.6371 -380.19837,694.8902 -1175.96173,1091.6938 -2055.72273,1025.8825 z"
         inkscape:connector-curvature="0"
         style="fill:#808080;fill-opacity:0.69098666;stroke:none" />
      <rect
         transform="scale(1,-1)"
         ry="0"
         y="-3112.095"
         x="-2288.7256"
         height="990.26813"
         width="428.09628"
         id="rect6028-5-7"
         style="opacity:0.46300001;fill:#fcfcfc;fill-opacity:1;fill-rule:nonzero;stroke:none;stroke-opacity:1" />
      <path
         inkscape:connector-curvature="0"
         style="fill:#00a540;fill-opacity:0.93589741;stroke:none"
         id="path12-9-4"
         d="m -2880.3353,2039.2771 c -7.0086,-10.5232 -9.3448,-39.9871 -4.6724,-69.4517 2.3362,-29.4639 7.0086,-84.1831 9.3448,-122.0657 2.3362,-42.0919 23.3621,-88.3929 60.7416,-119.9618 56.0691,-50.5101 63.0779,-52.6146 432.1995,-52.6146 369.1219,0 376.1303,2.1045 432.1998,52.6146 37.379,31.5689 60.7412,77.8699 63.0774,126.2755 0,39.9871 2.3359,98.9156 4.6724,132.5891 l 2.3364,56.8237 -495.2774,6.3139 c -271.0007,2.1045 -499.9497,-2.1048 -504.6221,-10.523 z" />
      <path
         inkscape:transform-center-y="92.58978"
         inkscape:transform-center-x="-392.17962"
         style="fill:#fbd505;fill-opacity:0.90557939;stroke:none"
         inkscape:connector-curvature="0"
         id="path8-36-8"
         d="m -2571.5976,7341.9114 c -708.5973,-53.7093 -1352.5741,-459.5129 -1671.2201,-1054.2937 -147.0673,-276.5035 -184.9483,-437.6313 -184.9483,-783.7584 0,-346.1266 37.881,-507.2544 184.9483,-781.7687 111.4145,-206.8803 182.7201,-298.3851 407.7776,-527.1468 100.2733,-101.451 220.6011,-234.7297 267.3954,-298.3852 180.4916,-240.6971 296.3628,-543.0607 323.1023,-835.4781 l 15.5981,-163.1171 857.8931,0 857.8926,0 6.6846,119.354 c 8.9135,153.1711 75.7622,409.7821 149.296,570.9101 91.3596,200.9126 216.1442,371.9866 432.28868,588.8131 249.56883,252.6326 316.41755,340.159 427.83209,551.0177 147.06755,280.482 182.72033,431.6636 182.72033,775.801 0,346.1271 -37.88098,507.2549 -184.94831,783.7584 -383.2665,714.1347 -1185.45209,1121.9276 -2072.31239,1054.2937 z" />
      <path
         inkscape:connector-curvature="0"
         id="path4150-0-9-6"
         d="m -2570.0097,3800.4154 c -8.244,7.8433 -14.9897,49.4167 -14.9897,92.3837 0,199.7322 -132.2746,470.1142 -350.7509,716.9701 -83.3062,94.1274 -187.7095,243.3406 -232.0068,331.585 -80.5319,160.428 -80.5403,160.4763 -80.5403,459.9412 l 0,299.497 87.689,171.1405 c 153.9478,300.4584 452.8832,538.3277 780.9262,621.399 158.2115,40.0641 426.5779,39.3025 591.9546,-1.6806 320.3103,-79.3783 613.6215,-304.7843 760.7805,-584.6507 104.73221,-199.1802 136.37233,-352.4701 122.99521,-595.889 -9.60807,-174.8302 -20.99788,-217.2091 -100.62081,-374.3707 -51.6306,-101.9095 -154.0114,-249.953 -240.9153,-348.3649 -212.6339,-240.7903 -306.3877,-429.2443 -339.6844,-682.7964 l -15.6829,-119.4263 -477.0821,0 c -262.3954,0 -483.828,6.4179 -492.0723,14.2621 z"
         style="fill:url(#radialGradient4243-7-5);fill-opacity:1;stroke:none" />
      <path
         transform="matrix(1.2336734,0,0,1.7738316,-2093.6403,2460.2686)"
         inkscape:connector-curvature="0"
         id="path8-9-5-5-8"
         d="m 308.39154,1943.1304 c -96.44595,-5.6252 -184.09651,-48.1271 -227.466858,-110.4215 -20.017085,-28.9595 -25.173001,-45.8353 -25.173001,-82.0869 0,-36.2515 5.155916,-53.1273 25.173001,-81.8786 15.164459,-21.6676 24.869708,-31.2514 55.501908,-55.2107 13.64801,-10.6255 30.02563,-24.5844 36.39471,-31.2514 24.56641,-25.2094 40.33745,-56.8774 43.97691,-87.5038 l 2.12303,-17.0841 116.76633,0 116.7663,0 0.90987,12.5006 c 1.21315,16.0424 10.31183,42.9185 20.32037,59.7942 12.43486,21.0426 29.41905,38.9601 58.83807,61.6694 33.96841,26.4595 43.0671,35.6266 58.23152,57.7109 20.01712,29.3762 24.86971,45.2103 24.86971,81.2535 0,36.2516 -5.15591,53.1274 -25.17298,82.0869 -52.16574,74.7949 -161.34983,117.5052 -282.05889,110.4215 z"
         style="opacity:1;fill:url(#radialGradient5964-9-5);fill-opacity:1;fill-rule:nonzero;stroke:none;stroke-opacity:1;filter:url(#filter5883-2-4-3)" />
      <path
         inkscape:connector-curvature="0"
         style="fill:#ffff24;fill-opacity:0.60944208;stroke:none"
         id="path10-7-7-0"
         d="m -1679.6968,7413.4613 c -9.4652,-49.7017 -21.2962,-156.9534 -26.0288,-235.4303 -40.2272,-578.1118 -59.1576,-701.0588 -125.4141,-850.1641 -42.5932,-94.1723 -68.6223,-117.7153 -146.7107,-117.7153 -56.7908,0 -224.7981,104.6357 -267.3915,167.417 -40.2271,57.5494 14.198,-104.6358 68.6225,-209.2715 70.9891,-133.4103 70.9891,-170.0328 4.7329,-238.046 -101.7513,-99.4037 -336.0147,-156.9534 -674.3953,-167.417 -156.1757,-5.232 -246.0952,-28.7748 -220.0659,-60.1657 7.0989,-5.2316 87.553,-18.311 177.4725,-26.1588 496.9225,-47.0861 726.4539,-115.0991 757.2156,-224.9667 16.5641,-62.7812 -33.128,-198.8078 -113.5823,-303.4431 -35.4945,-47.086 -63.8902,-91.5565 -63.8902,-99.4037 0,-15.6956 80.4545,31.3902 234.2637,136.0262 63.89,41.8542 92.2856,47.0858 146.7108,26.1588 125.4136,-47.0863 177.4722,-238.0458 210.6,-782.1512 11.832,-204.0401 16.5646,-381.9205 9.4657,-392.3841 -4.7331,-10.4636 -2.3668,-26.1588 9.4652,-34.0064 9.4647,-7.8478 33.1277,125.5627 49.6919,292.9799 66.2564,703.6744 94.6521,831.8535 198.7694,905.0982 66.256,49.7018 137.2453,28.7748 265.0256,-75.8609 61.5236,-52.3176 80.4541,-60.1655 89.9193,-28.7748 7.0984,20.927 -7.0989,57.5496 -30.7624,81.0927 -23.6626,23.543 -54.4245,75.8606 -70.9884,117.7151 -92.2858,243.2778 78.0877,326.9861 816.37273,394.9996 182.20506,15.6952 340.747091,39.2385 354.945358,52.3177 11.831286,13.0796 -97.018398,23.543 -260.293258,26.159 -156.17596,0 -309.98494,5.2318 -343.1134,13.0794 -33.12823,5.232 -132.51248,23.543 -220.06567,36.6222 -89.91949,15.6957 -203.50196,49.7025 -255.56016,78.4769 -125.4141,70.6293 -137.2454,146.49 -54.425,311.2912 37.8608,70.629 61.5239,138.6423 54.425,146.4901 -9.4653,7.8472 -68.6228,-20.9272 -132.513,-65.3974 -99.3842,-68.0133 -127.7801,-75.8611 -182.205,-52.3177 -115.9486,47.0856 -198.7692,400.2308 -205.8681,876.3233 0,143.874 -9.4648,290.3642 -18.9304,326.9864 -16.5637,62.7815 -18.93,60.1657 -35.4946,-26.159 z" />
    </g>
  </g>
</svg>
