<?xml version="1.0" encoding="UTF-8" standalone="no"?>
<svg
   xmlns:dc="http://purl.org/dc/elements/1.1/"
   xmlns:cc="http://creativecommons.org/ns#"
   xmlns:rdf="http://www.w3.org/1999/02/22-rdf-syntax-ns#"
   xmlns:svg="http://www.w3.org/2000/svg"
   xmlns="http://www.w3.org/2000/svg"
   xmlns:sodipodi="http://sodipodi.sourceforge.net/DTD/sodipodi-0.dtd"
   xmlns:inkscape="http://www.inkscape.org/namespaces/inkscape"
   version="1.0"
   width="822.000000pt"
   height="694.000000pt"
   viewBox="0 0 822.000000 694.000000"
   preserveAspectRatio="xMidYMid meet"
   id="svg2"
   inkscape:version="0.91 r13725"
   sodipodi:docname="frame-logo.svg">
  <metadata
     id="metadata266">
    <rdf:RDF>
      <cc:Work
         rdf:about="">
        <dc:format>image/svg+xml</dc:format>
        <dc:type
           rdf:resource="http://purl.org/dc/dcmitype/StillImage" />
        <dc:title />
      </cc:Work>
    </rdf:RDF>
  </metadata>
  <defs
     id="defs264" />
  <sodipodi:namedview
     pagecolor="#ffffff"
     bordercolor="#666666"
     borderopacity="1"
     objecttolerance="10"
     gridtolerance="10"
     guidetolerance="10"
     inkscape:pageopacity="0"
     inkscape:pageshadow="2"
     inkscape:window-width="1600"
     inkscape:window-height="837"
     id="namedview262"
     showgrid="false"
     inkscape:zoom="0.28292893"
     inkscape:cx="513.75"
     inkscape:cy="202.96456"
     inkscape:window-x="-8"
     inkscape:window-y="-8"
     inkscape:window-maximized="1"
     inkscape:current-layer="g4244" />
  <g
     transform="matrix(0.11014068,0,0,-0.09955942,-19.583058,699.81968)"
     id="g4"
     style="fill:#000000;stroke:none">
    <g
       id="g4244"
       transform="matrix(0.59693186,0,0,0.66579588,1658.7105,882.32285)">
      <g
         id="g4243"
         transform="translate(-428.3169,355.95885)">
        <path
           d="m 4114.4675,6649.1206 c -21.7325,-1.8035 -38.9369,-4.5087 -38.9369,-6.3121 0,-1.8035 21.7325,-24.3455 48.8975,-51.3963 56.1424,-55.9049 76.9692,-105.4982 110.4735,-254.2774 35.3144,-158.6982 72.4412,-224.5218 148.5036,-263.2946 74.2524,-37.8712 77.8748,-34.2643 86.9298,90.1694 8.1494,111.81 -21.7324,218.2096 -84.2129,293.9518 l -24.4493,30.6576 25.3549,-22.5422 c 40.748,-35.1662 94.1736,-123.5322 114.0948,-187.5522 12.6775,-39.6747 18.11,-83.8573 18.11,-137.9593 0,-44.1829 3.6225,-80.2505 8.1494,-80.2505 13.5831,0 80.5917,69.4305 97.7961,100.9896 11.7718,21.6405 16.2987,50.4947 16.2987,106.3996 0,64.922 -3.6213,84.7595 -24.4481,128.9422 -49.8042,105.4982 -189.2529,213.7016 -306.0645,239.8505 -53.4256,10.8204 -148.5036,17.1322 -196.4966,12.6239 z"
           id="path6"
           inkscape:connector-curvature="0" />
        <path
           d="m 4528.2875,6632.8898 c 0,-27.0507 45.2762,-101.8913 72.4412,-121.7284 64.2917,-45.9863 141.2609,-41.478 167.5203,9.017 18.11,35.1659 17.2044,36.9694 -9.9606,27.0508 -12.6775,-5.4102 -41.6537,-8.1155 -65.1974,-8.1155 -28.9762,1.8034 -33.5031,2.7053 -15.3931,5.4102 51.6143,6.3121 103.2286,29.7561 97.7949,44.183 -9.9606,27.0508 -54.33,39.6746 -132.2048,38.7727 -43.465,-0.9015 -83.3074,2.7054 -95.0793,9.0171 -16.2987,9.0171 -19.9212,8.1152 -19.9212,-3.6069 z"
           id="path8"
           inkscape:connector-curvature="0" />
        <path
           d="m 3835.5694,6614.8561 c -40.7481,-14.4273 -82.4018,-55.9049 -91.4569,-90.1693 -3.6221,-12.6239 -4.5276,-25.2474 -1.811,-27.0507 1.811,-1.8035 28.0708,6.3116 57.9529,18.0337 33.504,14.4273 69.7245,21.6408 98.701,21.6408 l 45.2757,-0.9019 -49.8033,-10.8204 c -48.8977,-10.8201 -144.8823,-55.9049 -144.8823,-68.5284 0,-3.6069 9.9607,-15.3289 22.6379,-27.0508 29.882,-27.9527 99.6065,-33.3629 172.9533,-14.4273 71.5359,18.034 141.2602,18.034 176.5757,0 27.165,-13.5254 28.0706,-13.5254 21.7313,7.2136 -43.4638,138.8607 -194.685,233.5385 -307.8743,192.0607 z"
           id="path10"
           inkscape:connector-curvature="0" />
        <path
           d="m 3387.3399,6552.6394 c -17.2048,-6.3121 -41.6537,-16.2307 -54.3309,-20.739 -12.6772,-5.4102 -40.7481,-25.2474 -61.575,-44.183 l -39.8425,-35.1659 40.748,-1.8034 c 49.8033,-1.8034 75.1577,-14.4273 151.2209,-74.8406 76.9687,-61.3152 117.7169,-81.1523 164.8037,-81.1523 58.8584,0 68.819,9.9186 50.7088,46.8879 -22.638,47.7898 -60.6696,87.4641 -110.4729,115.4168 -48.8976,28.8541 -44.3701,36.0677 9.0553,13.5254 45.2757,-18.9356 98.701,-62.2168 121.3388,-99.1865 10.8662,-18.0337 23.5434,-29.7557 28.071,-26.1489 4.5276,2.705 8.1496,26.1489 8.1496,52.2982 0,96.4811 -80.5908,160.5012 -208.2683,165.0099 -41.6536,1.8034 -80.5908,-1.8034 -99.6065,-9.9186 z"
           id="path12"
           inkscape:connector-curvature="0" />
        <path
           d="m 4833.4464,6516.5717 c -44.3705,-16.2308 -94.1736,-55.0035 -115.9061,-90.1694 -18.11,-28.8542 -22.638,-109.1051 -9.055,-144.271 5.4326,-14.4273 10.8663,-9.9185 36.22,28.8543 34.4099,54.1015 82.4018,98.2844 124.0555,115.4167 46.1817,18.9356 47.0873,15.3287 2.7168,-12.624 -21.7324,-14.4268 -51.6143,-40.5761 -65.1973,-58.6098 -29.8819,-38.7727 -61.575,-106.3997 -55.2357,-116.3186 8.1494,-12.6235 85.1175,-7.2133 115.0005,7.2135 16.2987,9.0171 60.6693,45.085 100.5117,82.0543 75.158,70.3319 125.8667,101.8914 163.8979,101.8914 12.6775,0 22.6381,3.6067 22.6381,7.2136 0,9.9185 -41.6537,39.6743 -90.5511,64.9217 -50.7099,26.1492 -175.6698,34.2643 -229.0953,14.4273 z"
           id="path14"
           inkscape:connector-curvature="0" />
        <path
           d="m 3016.9845,6415.5818 c -82.4017,-21.6405 -141.2601,-67.6269 -167.5201,-131.647 -17.2047,-40.5762 -18.1102,-100.9899 -1.811,-137.9592 l 11.7716,-27.0508 24.449,47.7898 c 38.937,76.644 109.5672,139.7625 177.4807,159.5997 14.4882,3.6069 8.1497,-3.6068 -18.1102,-19.8372 -63.386,-40.5761 -115.0003,-111.8098 -136.7327,-184.847 -6.3386,-21.641 -3.622,-26.1493 15.3937,-30.6576 66.1026,-16.2307 131.2996,20.7386 217.3235,122.6299 66.1025,77.546 105.0396,107.3017 162.087,121.729 l 40.7482,9.9185 -50.7088,30.6576 c -87.8349,53.1997 -177.4808,65.8235 -274.3709,39.6743 z"
           id="path16"
           inkscape:connector-curvature="0" />
        <path
           d="m 5216.479,6403.8598 c -41.6537,-9.0166 -81.4962,-29.7557 -105.0399,-56.8065 -25.3549,-27.0508 -48.8974,-73.9391 -48.8974,-96.4811 0,-17.1322 1.8101,-17.1322 57.0468,5.4099 67.9131,28.8541 187.4416,37.8712 249.0165,18.9356 39.8425,-11.722 39.8425,-11.722 -40.7481,-11.722 -86.9298,0 -136.7329,-14.4269 -213.7009,-61.3152 l -43.4649,-27.0507 25.3537,-27.0508 c 34.4099,-36.0679 89.6467,-60.4134 140.3554,-60.4134 23.5425,0 86.9287,8.1152 140.3542,18.9356 115.0005,21.6406 182.9135,19.8372 236.3391,-8.1155 l 38.0323,-19.837 -5.4337,25.2473 c -13.583,54.1015 -65.1973,143.3693 -109.5667,188.4539 -82.4018,84.7591 -221.8515,133.4505 -319.6464,111.8099 z"
           id="path18"
           inkscape:connector-curvature="0" />
        <path
           d="m 3880.8452,6356.07 c -134.0162,-17.1322 -260.7882,-112.7114 -328.7017,-249.7688 -48.8978,-97.383 -48.8978,-105.4981 0.9055,-80.2507 61.5749,32.461 136.7326,32.461 268.9376,-1.8034 117.717,-29.7557 210.9847,-36.9694 258.0721,-18.0338 36.22,13.5254 86.0231,52.2982 86.0231,66.7251 0,15.3288 -68.8187,64.0205 -130.3936,91.9728 -57.9531,26.1492 -149.41,38.7727 -215.5126,29.7561 -58.8584,-7.2137 -66.1025,-3.6069 -19.0157,9.9185 103.2286,29.7557 211.8902,18.0337 319.6469,-33.3629 27.165,-13.5254 53.4244,-26.1489 57.9524,-27.9522 11.7719,-6.3118 0,55.003 -17.2043,91.9727 -44.3706,92.8743 -148.5048,137.9588 -280.7097,120.8266 z"
           id="path20"
           inkscape:connector-curvature="0" />
        <path
           d="m 4937.5806,6241.5551 c -122.2453,-96.4811 -136.7329,-293.952 -25.3549,-344.4467 36.2211,-16.2304 77.8748,-22.5425 77.8748,-11.722 0,2.7049 -10.8662,18.0337 -24.4493,34.2643 -12.6774,15.3289 -28.9762,41.4778 -36.2211,58.61 -12.6763,29.7561 -18.11,114.5151 -8.1494,124.4338 2.7168,3.6067 5.4337,-9.9187 5.4337,-29.7561 0,-18.9357 8.1494,-51.3962 17.2044,-72.1353 17.2044,-36.9693 69.7243,-102.7932 82.4017,-102.7932 3.6225,0 13.5831,17.1322 21.7325,36.9697 18.11,45.0845 14.4887,66.725 -28.0706,174.0266 -25.3549,64.922 -30.7875,89.2675 -28.0718,124.4338 2.7169,23.444 1.8112,43.2811 -2.7157,43.2811 -3.6224,0 -27.1661,-16.2304 -51.6143,-35.166 z"
           id="path22"
           inkscape:connector-curvature="0" />
        <path
           d="m 3310.3711,6249.6703 c -24.4488,-9.9185 -60.6694,-30.6575 -80.5907,-46.8879 -38.0316,-30.6576 -77.8742,-104.5967 -77.8742,-145.1728 0,-30.6577 19.9212,-79.3489 38.9371,-94.6777 12.6772,-10.8202 15.3937,-9.0171 19.9213,13.5253 17.2048,74.8407 36.2206,113.6134 74.2522,153.2881 36.2205,38.7727 38.0315,39.6742 17.2047,9.0166 -35.315,-48.6913 -48.8977,-86.5622 -56.1418,-154.1895 l -6.3386,-59.5118 30.7874,5.4103 c 63.3861,11.722 85.1184,34.2644 143.0713,146.9762 50.7087,98.2846 76.0632,130.7456 124.0555,159.5997 15.3937,9.0166 13.5826,11.722 -19.0159,20.7387 -56.1419,15.3287 -156.6539,11.722 -208.2683,-8.1152 z"
           id="path24"
           inkscape:connector-curvature="0" />
        <path
           d="m 2611.3142,6187.4536 c -106.8507,-48.6917 -143.0713,-216.4066 -76.0632,-358.8741 30.7874,-64.9216 99.6066,-142.4674 154.8429,-173.1251 l 38.0315,-20.7386 -7.244,20.7386 c -4.5276,11.722 -8.1496,45.9864 -7.2441,75.7425 0,45.0845 8.1496,72.1352 47.9922,161.4031 58.8584,130.7455 67.0081,183.9452 37.1261,243.457 -10.8661,22.5424 -23.5434,41.478 -28.0709,41.478 -4.5276,0 -27.1654,-18.034 -49.8033,-40.5761 -50.7088,-50.4952 -90.5514,-133.4509 -102.3231,-211.8983 l -9.0552,-58.6098 2.7166,81.1523 c 2.7165,91.9728 25.3544,151.4845 82.4018,219.1115 l 33.5039,37.8712 -39.8425,0 c -21.7324,0 -56.1419,-8.1155 -76.9687,-17.1322 z"
           id="path26"
           inkscape:connector-curvature="0" />
        <path
           d="m 4706.6741,6150.4843 c -12.6775,-35.1663 -29.8818,-55.905 -82.4018,-100.9899 -85.1186,-73.0372 -105.0398,-101.8913 -105.0398,-149.6811 0,-42.3796 4.5281,-44.183 51.6143,-24.3455 47.0874,19.8371 89.6455,54.1016 121.3386,97.3827 30.7875,41.478 33.5043,37.8712 8.1505,-10.8201 -21.7324,-43.2815 -69.7254,-89.2678 -119.5285,-114.5153 -36.22,-18.0337 -37.1256,-19.8371 -19.0156,-29.7557 27.165,-13.5254 88.7399,-12.6238 118.6229,2.705 108.6612,55.9049 135.8262,239.8504 53.4244,357.0706 -10.8662,15.3288 -12.6763,13.5254 -27.165,-27.0507 z"
           id="path28"
           inkscape:connector-curvature="0" />
        <path
           d="m 5707.2671,6171.2229 c 30.7874,-35.1659 44.3705,-78.4471 53.4255,-171.3216 5.4337,-61.315 15.3943,-110.9081 26.2605,-133.4505 17.2044,-36.0679 65.1963,-73.0372 80.5906,-64.0201 4.5269,2.7049 12.6763,31.5591 19.0156,63.1185 11.7718,62.2167 6.3381,119.9251 -14.4887,161.4027 -7.2438,13.5254 -10.8662,24.346 -8.1494,24.346 1.8112,0 13.5831,-17.1323 24.4493,-37.8713 17.2044,-32.4606 20.8268,-53.1997 20.8268,-126.2369 0,-48.6913 2.7157,-88.3659 6.3382,-88.3659 12.6775,0 62.4805,48.6913 75.158,73.0372 20.8268,39.6742 17.2044,106.3997 -9.9606,159.5997 -43.4649,88.3659 -150.316,155.091 -245.3952,155.091 -38.9369,0 -40.7481,-0.9015 -28.0706,-15.3288 z"
           id="path30"
           inkscape:connector-curvature="0" />
        <path
           d="m 2930.0552,6054.0027 c -31.693,-8.115 -57.0475,-30.6572 -67.0081,-57.7083 -4.5276,-14.4269 -8.1496,-26.1488 -6.3386,-26.1488 1.811,0 20.8269,6.3116 41.6537,13.5253 20.8268,7.2136 53.4253,12.6235 71.5356,12.6235 l 32.5985,-1.803 -36.2206,-5.4102 c -40.748,-7.2137 -68.819,-20.7391 -86.0238,-40.5762 -9.9607,-12.6239 -7.2442,-16.2307 19.9213,-27.0508 27.1655,-11.722 38.9372,-11.722 105.9452,3.6064 54.3308,11.7224 82.4018,14.4273 98.701,8.1155 12.6772,-4.5086 23.5433,-7.2136 25.3545,-5.4102 1.811,0.9016 -7.2442,19.8372 -19.9214,40.5762 -34.4096,57.7084 -123.1499,99.186 -180.1973,85.6606 z"
           id="path32"
           inkscape:connector-curvature="0" />
        <path
           d="m 5137.6985,6031.4607 c -29.8818,-14.4273 -25.3538,-22.5425 13.5831,-29.7561 33.5043,-5.4102 99.6061,-40.5761 76.9692,-40.5761 -5.4337,0 -12.6775,3.6068 -15.3943,8.1151 -6.3382,9.9189 -84.213,21.6409 -95.9848,14.4273 -13.582,-8.1151 8.1505,-45.9863 35.3155,-58.6103 12.6775,-6.3117 41.6537,-16.2303 63.3861,-23.4439 21.7325,-6.3118 51.6143,-22.5421 65.1963,-36.0675 l 26.2605,-25.2476 0,49.5931 c 0,105.4981 -89.6455,179.4369 -169.3316,141.566 z"
           id="path34"
           inkscape:connector-curvature="0" />
        <path
           d="m 5417.5025,6031.4607 c -19.0156,-9.9185 -18.11,-10.8204 25.3549,-36.0679 78.7793,-44.1829 136.7329,-113.6133 158.4642,-187.5519 3.6225,-14.4273 -2.7157,-8.1155 -19.9212,18.0337 -38.9369,58.6099 -80.5905,96.4811 -142.1655,126.2371 -74.2523,37.8709 -77.8737,36.0676 -77.8737,-23.4442 0,-71.2338 19.0157,-103.6948 114.0949,-199.274 86.0231,-85.6611 111.378,-125.3354 119.5274,-184.8471 l 4.528,-35.166 28.9763,41.4778 c 56.1412,78.4473 71.5355,126.2371 72.4411,221.8164 0,81.1522 -1.8112,90.1693 -31.6931,148.7796 -43.4649,85.6607 -95.0792,120.8266 -175.6697,119.925 -29.8819,0 -64.2918,-4.5083 -76.0636,-9.9185 z"
           id="path36"
           inkscape:connector-curvature="0" />
        <path
           d="m 2289.8566,6026.9519 c -25.3544,-6.3116 -19.0158,-14.4268 30.7875,-43.281 30.7875,-18.0338 53.4254,-39.6747 68.8191,-67.6269 l 22.6378,-40.5762 -29.8819,34.2644 c -31.693,36.9693 -112.2838,82.9557 -132.2051,74.8402 -7.2441,-2.7049 -12.6772,-13.5254 -12.6772,-24.3455 0,-36.9693 29.8819,-80.2508 85.1183,-125.3352 59.764,-48.6917 77.8743,-71.2338 86.9294,-112.7119 6.3386,-27.0508 6.3386,-27.0508 31.693,26.1493 70.6301,148.7793 -19.0157,312.8873 -151.2209,278.6228 z"
           id="path38"
           inkscape:connector-curvature="0" />
        <path
           d="m 4262.9722,5987.2777 c -51.6143,-27.0508 -81.4961,-36.9693 -110.4724,-36.9693 -35.3155,0 -39.8435,-1.8034 -32.5986,-14.4273 4.5269,-8.1152 21.7324,-27.9523 38.9368,-44.1829 111.378,-106.3998 306.0634,-76.6441 306.0634,46.8881 l 0,33.3626 -36.22,-31.5595 c -38.0313,-32.4606 -103.2286,-55.9049 -132.2049,-48.6912 -14.4887,3.6067 -13.583,4.5083 3.6213,5.4102 31.6931,1.8034 84.213,31.5591 119.5286,68.5287 30.7874,31.5592 30.7874,33.3626 14.4875,45.9861 -32.5987,23.4443 -94.1736,14.4273 -171.1417,-24.3455 z"
           id="path40"
           inkscape:connector-curvature="0" />
        <path
           d="m 3509.5843,5949.4065 c -63.386,-24.3459 -95.079,-66.7254 -95.079,-127.1388 l 0,-34.2643 33.504,28.8541 c 46.1813,40.5762 99.6066,63.1186 147.5988,62.2171 l 40.7482,-0.9018 -38.0316,-7.2137 c -20.8269,-4.5083 -50.7088,-14.4269 -67.9135,-22.5421 -31.6931,-16.2306 -97.7956,-75.7424 -97.7956,-88.366 0,-3.6067 14.4882,-13.5254 33.504,-20.739 43.4647,-18.0337 78.7798,-10.8204 169.3312,35.166 58.8584,29.756 83.3072,36.9693 124.0554,36.9693 l 51.6143,0.9019 -12.6772,23.4439 c -45.2757,87.4645 -199.2131,147.8778 -288.859,113.6134 z"
           id="path42"
           inkscape:connector-curvature="0" />
        <path
           d="m 3916.1601,5939.4879 c -28.9763,-12.6239 -57.9529,-45.9864 -57.9529,-65.8236 0,-8.1151 6.3386,-8.1151 29.8821,0.9016 41.6535,17.1323 89.6458,25.2474 83.3072,14.4273 -2.7165,-5.4102 -14.4882,-9.0171 -25.3543,-9.0171 -10.8662,0 -34.4096,-9.017 -51.6144,-18.9356 l -30.7875,-18.9356 20.8269,-17.1322 c 25.3544,-20.7387 38.9371,-20.7387 119.5279,-2.705 46.1806,9.9187 69.7243,11.7221 88.7399,5.4103 22.6381,-8.1152 25.3549,-7.2136 21.7325,7.2137 -6.3382,24.3455 -55.2356,80.2504 -83.3074,93.7758 -38.9368,20.739 -84.2124,24.3458 -115,10.8204 z"
           id="path44"
           inkscape:connector-curvature="0" />
        <path
           d="m 3325.765,5879.0746 c -47.0868,-36.9697 -103.2288,-40.5762 -318.7411,-20.739 -80.5907,7.2136 -130.394,-7.2136 -175.6697,-52.2982 l -37.1261,-36.0677 20.8268,-17.1323 c 41.6536,-33.3626 120.4334,-55.9049 196.4966,-56.8068 39.8426,-0.9016 85.1183,1.8034 99.6065,6.3121 27.1655,6.3117 27.1655,6.3117 4.5276,-6.3121 -69.7246,-37.8709 -170.2367,-39.6743 -273.4653,-4.5083 -29.882,9.9185 -56.1419,16.2306 -57.9529,14.4272 -9.0552,-8.1155 47.0868,-99.1864 72.4411,-118.122 128.5831,-95.5793 351.3395,-15.3288 446.4185,162.305 26.26,49.5929 54.3309,135.2539 47.0868,143.369 -1.811,1.8034 -13.5827,-4.5083 -24.4488,-14.4269 z"
           id="path46"
           inkscape:connector-curvature="0" />
        <path
           d="m 6083.0559,5854.7287 c 33.5043,-68.5287 36.22,-130.7454 8.1493,-263.2944 -39.8424,-190.2573 -29.8818,-273.213 41.6537,-340.84 l 31.6931,-29.7557 37.1256,57.7084 c 59.7648,94.6776 76.9692,155.9929 72.4412,267.8027 l -3.6213,94.6778 16.2987,-49.5932 c 30.7875,-99.1861 17.2044,-224.5217 -35.3144,-327.3146 -11.7718,-24.3458 -19.9223,-45.9864 -17.2055,-48.6913 10.8662,-11.722 88.7411,19.8371 123.1498,48.6913 62.4806,54.1016 76.9693,91.0709 76.9693,201.9793 0,93.7761 -0.9057,96.4811 -38.0313,172.2236 -29.8818,59.5114 -52.5199,90.169 -99.6073,134.352 -60.6693,56.8068 -153.0316,110.9084 -209.174,121.7288 l -27.165,5.4099 22.6381,-45.0846 z"
           id="path48"
           inkscape:connector-curvature="0" />
        <path
           d="m 5008.2105,5843.0068 c -74.2523,-23.444 -91.4567,-26.1493 -122.2442,-18.9356 -19.9212,5.4102 -38.0324,7.2136 -39.8436,5.4102 -9.9606,-9.017 32.5987,-71.2338 74.2524,-108.2031 75.158,-67.6272 174.7641,-82.9557 247.2053,-38.7731 29.8818,18.034 57.9536,64.922 57.9536,95.5796 0,16.2307 -3.6225,16.2307 -51.6143,-8.1151 -28.9763,-13.5254 -72.4412,-27.0508 -97.7961,-29.7561 l -45.275,-4.5084 51.6143,17.1322 c 47.0862,15.3288 124.0554,61.3152 124.9611,73.9388 0,2.7052 -8.1506,12.6238 -18.1112,21.6408 -29.8818,27.0508 -86.0231,25.2473 -181.1023,-5.4102 z"
           id="path50"
           inkscape:connector-curvature="0" />
        <path
           d="m 2101.5097,5806.0374 c -22.6378,-3.6067 -50.7088,-14.4272 -63.386,-23.4443 -31.693,-23.4439 -63.386,-72.1352 -63.386,-97.3826 l 0,-20.739 44.3701,22.5423 c 55.2365,27.0508 115.0004,38.7728 161.1816,31.5593 34.4095,-6.3118 34.4095,-6.3118 -16.2993,-11.7221 -65.197,-7.2136 -171.1421,-60.4133 -171.1421,-86.5625 0,-5.4102 13.5827,-18.0337 30.7875,-27.9524 38.937,-24.3458 99.6066,-24.3458 177.4807,-0.9018 89.646,27.0508 135.8272,30.6576 174.7643,14.4272 34.4095,-13.5254 34.4095,-13.5254 28.9764,6.3118 -37.1261,122.6304 -182.0084,215.5047 -303.3472,193.8641 z"
           id="path52"
           inkscape:connector-curvature="0" />
        <path
           d="m 5340.5344,5711.3594 c -9.055,-58.6099 14.4876,-136.1554 56.1412,-187.552 9.055,-11.722 5.4337,-10.8205 -10.8662,3.6067 -34.4088,30.6577 -68.8187,104.5964 -76.0625,161.4032 -5.4336,45.9864 -5.4336,46.8879 -22.638,31.5591 -47.993,-43.2811 -55.2368,-105.4981 -20.8269,-174.0267 46.1807,-90.1693 132.2049,-129.844 275.2759,-127.1387 l 38.9369,0.9016 -37.1256,36.9693 c -30.7875,30.6576 -41.6537,52.2985 -65.1974,128.0406 -22.637,73.9388 -35.3144,98.2846 -62.4805,125.3354 -45.2751,45.0845 -68.8187,45.0845 -75.1569,0.9015 z"
           id="path54"
           inkscape:connector-curvature="0" />
        <path
           d="m 5854.8662,5722.1798 c -141.2598,-49.5931 -150.316,-263.2944 -16.2999,-396.7449 45.2761,-45.0845 124.961,-89.2675 178.3866,-99.1864 l 34.4099,-7.2133 -18.11,35.1659 c -26.2605,52.2982 -29.8819,98.2845 -15.3943,192.9623 15.3943,102.7932 17.2055,161.4031 3.6224,195.6675 -9.055,25.2473 -59.7636,83.8573 -72.4411,83.8573 -3.6225,0 -20.8268,-27.0508 -37.1268,-60.4133 -28.0706,-56.8065 -29.8818,-66.7254 -29.8818,-153.288 0,-93.7759 -6.3382,-95.5793 -23.5426,-8.1151 -9.9606,52.2981 1.8101,128.9421 28.0707,190.2572 19.0156,45.0846 19.0156,45.0846 -31.6931,27.0508 z"
           id="path56"
           inkscape:connector-curvature="0" />
        <path
           d="m 2484.5422,5703.2442 c -18.1103,-8.1152 19.9213,-72.1353 57.9529,-98.2845 38.0316,-25.2474 34.4096,-29.7557 -6.3386,-9.0171 -13.5828,7.2136 -38.0316,27.9527 -53.4253,45.9864 l -27.1655,33.3629 -5.433,-23.444 c -8.1497,-31.5594 11.7716,-68.5287 48.8977,-93.7761 56.1419,-37.8713 175.6697,-22.5425 217.3234,27.9523 9.9606,12.6238 9.9606,14.4272 -5.4331,14.4272 -17.2047,0 -67.008,29.7557 -123.1499,74.8406 -30.7875,24.3455 -80.5908,37.8709 -103.2286,27.9523 z"
           id="path58"
           inkscape:connector-curvature="0" />
        <path
           d="m 1952.0998,5567.0885 c -12.6771,-34.2642 -15.3937,-138.8607 -4.5275,-195.6672 6.3385,-36.0679 23.5434,-79.3489 41.6536,-110.0065 37.1261,-61.3153 12.6772,-45.0849 -28.0709,18.9356 -43.4648,67.6269 -61.575,131.647 -60.6695,218.2096 0,82.9557 -4.5273,85.6606 -53.4251,32.461 -40.748,-42.3796 -53.4253,-78.4474 -53.4253,-145.1728 0,-51.3963 4.5276,-72.1354 27.1655,-116.3183 48.8977,-97.383 151.2206,-174.9286 268.9374,-205.5861 56.1419,-14.4269 159.3705,-17.1322 188.347,-4.5083 9.9606,4.5083 13.5827,8.1151 7.2441,8.1151 -20.8269,1.8034 -67.9137,49.5932 -89.6459,93.7762 -12.6772,24.3455 -35.3151,97.3827 -49.8033,161.4031 -35.3151,157.7964 -61.575,203.7824 -136.7327,242.5556 -41.6537,20.7386 -48.8978,21.6404 -57.0474,1.803 z"
           id="path62"
           inkscape:connector-curvature="0" />
        <path
           d="m 2714.5428,5528.3157 c -36.2205,-10.8201 -85.1183,-50.4947 -101.4176,-81.1523 -15.3937,-30.6577 -17.2048,-78.4474 -4.5276,-113.6134 l 9.9607,-24.3455 28.9765,48.6914 c 18.1102,30.6576 45.2757,59.5117 73.3466,78.4474 54.3308,36.0675 75.1577,37.8708 25.3544,1.8034 -38.0316,-27.0512 -76.9688,-84.7595 -87.8349,-128.0406 -6.3386,-24.3458 -4.5276,-25.2474 27.1655,-25.2474 47.0867,0 63.3859,10.8201 149.4098,99.186 57.9529,59.5118 84.2128,80.2509 108.6617,84.7592 l 31.6931,6.3121 -22.638,17.1322 c -51.6143,39.6744 -167.5201,56.8065 -238.1502,36.0675 z"
           id="path64"
           inkscape:connector-curvature="0" />
        <path
           d="m 2357.7702,5457.0819 c 56.1419,-57.7083 83.3073,-109.1046 95.9845,-176.7315 9.0551,-49.5933 0.9055,-43.2815 -20.8268,15.3284 -20.8269,57.7084 -67.9136,116.3186 -120.4335,150.583 -39.8426,26.149 -44.3701,27.9523 -54.3308,13.5254 -19.0157,-26.1492 -24.4488,-76.6439 -12.6772,-120.8269 6.3386,-22.5425 37.1262,-80.2508 69.7246,-129.8437 66.1026,-100.9899 87.8349,-161.4031 78.7798,-216.4066 l -5.4331,-36.9693 35.3151,30.6576 c 100.5121,88.366 153.0319,214.6028 135.827,327.3145 -9.0551,58.61 -48.8977,131.6472 -89.6459,164.1082 -29.8819,23.4439 -43.4646,27.9526 -99.6066,30.6575 l -65.1969,3.6069 52.5198,-55.0035 z"
           id="path66"
           inkscape:connector-curvature="0" />
        <path
           d="m 5673.7628,5450.7702 c -41.6537,-21.6405 -57.0469,-38.7728 -73.3457,-81.1523 -12.6774,-33.3626 -13.583,-43.2815 -3.6224,-66.7255 10.8662,-26.1489 41.6537,-51.3962 51.6143,-42.3795 1.8112,2.7052 0,12.6238 -5.4337,22.5424 -5.4325,10.8205 -9.9606,36.0679 -9.055,57.7083 l 0.9056,38.7728 7.2449,-37.8712 c 14.4876,-73.0372 37.1256,-93.7758 56.1413,-51.3963 8.1494,17.1323 8.1494,35.166 0,75.7421 -8.1494,36.0679 -8.1494,59.5118 -1.8113,75.7421 4.5281,12.6239 7.2449,23.4444 6.3393,23.4444 -0.9056,0 -13.583,-6.3121 -28.9773,-14.4273 z"
           id="path68"
           inkscape:connector-curvature="0" />
        <path
           d="m 6486.0097,5331.7467 c -16.2988,-8.1152 -38.0313,-28.8543 -48.8975,-45.9864 l -19.0168,-29.7558 30.7875,7.2136 c 43.4649,11.7221 144.8834,9.0168 166.6148,-2.7052 14.4886,-9.0167 9.0561,-9.9186 -31.692,-5.4103 -38.0324,3.6069 -62.4816,0 -101.4185,-15.3287 -28.9762,-10.8201 -52.5199,-22.5421 -52.5199,-26.149 0,-15.3288 45.2761,-47.7898 76.9692,-55.0033 18.11,-4.5085 70.6299,-5.4103 115.9061,-2.705 70.6299,3.6069 88.7399,1.8034 117.7161,-13.5254 39.8425,-21.6405 41.6537,-15.3289 15.3943,54.1016 -20.8268,55.0034 -77.8748,116.3183 -128.5835,137.9591 -44.3694,18.0337 -105.0398,17.1323 -141.2598,-2.7052 z"
           id="path74"
           inkscape:connector-curvature="0" />
        <path
           d="m 1657.808,5303.7943 c -14.4883,-14.4273 -28.9765,-36.9696 -31.693,-51.3966 -16.2992,-71.2338 -32.5986,-119.925 -45.2757,-129.8437 -26.26,-21.6409 -15.3938,-29.756 33.504,-23.4442 55.2364,7.2136 74.2522,16.2306 114.0948,53.2 51.6143,49.5932 56.1419,128.0406 8.1496,167.7148 -13.5827,10.8205 -15.3937,8.1152 -15.3937,-29.7557 0,-43.2814 -18.1102,-97.383 -35.3151,-108.2034 -5.4331,-3.6064 -3.622,8.1155 3.6221,25.2477 15.3938,36.9693 18.1103,122.63 3.622,122.63 -5.4331,0 -20.8268,-11.7219 -35.315,-26.1489 z"
           id="path76"
           inkscape:connector-curvature="0" />
        <path
           d="m 5738.9601,5307.4012 c -3.6224,-8.1155 -6.3381,-31.5596 -6.3381,-52.2986 0,-114.5149 72.4411,-204.6842 162.0867,-204.6842 38.9368,0.9019 83.3073,20.739 71.5355,32.461 -3.6213,2.705 -23.5437,9.0171 -45.275,13.5254 -36.2212,8.1152 -111.3791,51.3966 -103.2286,59.5118 1.8101,1.8034 17.2044,-4.5083 34.4088,-15.3289 35.3155,-20.7389 105.0398,-31.5591 124.0554,-19.837 30.7875,21.6405 -23.5437,83.8572 -92.3624,106.3996 -73.3467,23.444 -113.1892,46.888 -126.7723,72.1354 -10.8662,20.7389 -13.5819,21.6408 -18.11,8.1155 z"
           id="path78"
           inkscape:connector-curvature="0" />
        <path
           d="m 6304.9062,5195.5909 c -9.055,-5.4099 -3.6213,-11.722 21.7325,-25.2474 18.1111,-9.0167 39.8436,-26.1489 47.0874,-37.8708 13.5819,-19.8375 13.5819,-19.8375 -20.8269,2.7048 -46.1817,31.5592 -69.7243,31.5592 -66.103,-0.9015 1.8113,-17.1322 18.11,-36.0678 56.1424,-64.922 28.9762,-23.4439 56.1412,-49.5932 59.7637,-59.5117 6.3381,-16.2304 8.1494,-16.2304 17.2044,7.2136 22.638,57.7084 4.528,131.647 -39.8425,166.813 -26.2594,20.739 -54.3311,25.2477 -75.158,11.722 z"
           id="path80"
           inkscape:connector-curvature="0" />
        <path
           d="m 6064.9459,5098.2082 c -11.7719,-2.7053 0.9056,-18.9356 55.2356,-70.3322 47.0873,-43.2811 78.7804,-82.9557 95.0792,-115.4167 25.3549,-52.2982 47.9918,-138.8608 38.9368,-147.8774 -2.7157,-3.6069 -5.4325,1.803 -5.4325,11.7219 0,34.2641 -54.3311,130.7456 -97.7961,174.0267 -38.0312,37.8712 -129.488,100.0879 -148.5036,100.0879 -12.6774,0 -27.1661,-67.6269 -23.5437,-111.8099 5.4326,-61.3152 25.3538,-100.9894 99.6062,-193.8641 84.213,-106.3998 106.851,-151.4842 114.0948,-223.6198 l 6.3393,-59.5119 48.8975,53.2001 c 134.016,145.1724 154.8429,359.7756 49.8031,502.2431 -50.7087,69.4304 -147.5992,102.7929 -232.7166,81.1523 z"
           id="path84"
           inkscape:connector-curvature="0" />
        <path
           d="m 1713.9499,5068.4521 c -91.457,-24.3455 -149.4099,-57.7084 -220.04,-126.2368 -79.6851,-77.5455 -116.8115,-154.1895 -123.1498,-253.3759 -6.3387,-80.2505 8.1495,-132.549 49.803,-181.2402 22.638,-27.0508 96.8902,-79.349 111.3784,-79.349 4.5276,0 0.9055,18.9356 -6.3386,43.2811 -32.5985,105.4982 -23.5434,235.3422 22.6378,323.7078 32.5986,64.0205 45.2757,70.3322 21.7324,11.7223 -33.504,-80.2507 -35.3151,-210.0948 -4.5276,-297.5588 30.7875,-88.366 30.7875,-88.366 72.4411,-60.4134 87.835,57.7084 109.5673,116.3183 118.6225,326.4127 7.2441,167.7149 18.1102,208.2911 74.2521,277.7215 l 27.1655,33.3629 -38.9372,-0.9019 c -21.7324,0 -68.8191,-8.1152 -105.0396,-17.1323 z"
           id="path86"
           inkscape:connector-curvature="0" />
        <path
           d="m 6529.4746,5075.6657 -31.6931,-9.0169 27.165,-18.9353 c 15.3943,-10.8204 54.3311,-45.9864 86.9298,-78.4474 43.4638,-43.2814 64.2918,-72.1357 77.8737,-108.2031 32.5987,-86.5626 31.6931,-96.4811 -0.9056,-30.6576 -34.4088,68.5285 -84.2118,120.827 -151.2204,158.6978 -69.7243,40.5762 -77.8749,40.5762 -90.5512,-0.9015 -23.5437,-78.4474 4.5269,-140.6641 117.7162,-266.9014 78.7804,-87.464 109.5679,-144.2708 109.5679,-206.4875 l 0.9056,-45.9864 36.22,39.6746 c 19.0156,21.6405 50.7087,70.3319 69.7243,107.3012 32.5987,66.7255 33.5043,70.3323 33.5043,172.2236 0,126.2368 -18.11,175.8301 -86.0231,238.9486 -59.7648,55.905 -123.151,71.2338 -199.2134,48.6913 z"
           id="path88"
           inkscape:connector-curvature="0" />
        <path
           d="m 1979.2653,5026.0726 c 17.2047,-42.3796 31.6929,-110.9081 31.6929,-152.3861 0,-44.183 -21.7323,-125.3354 -38.0315,-143.3691 -5.4332,-5.4102 -5.4332,0 0,13.5254 26.2599,70.3319 19.0158,174.0267 -17.2048,245.2604 -22.6379,45.0849 -29.8819,46.8883 -60.6692,20.7391 -48.8978,-41.4781 -57.9529,-81.1524 -50.7088,-229.0302 6.3386,-138.8606 -0.9055,-176.7318 -39.8427,-220.0129 -14.4882,-16.2307 -13.5827,-17.1323 20.8269,-10.8205 19.9213,2.705 65.197,19.8371 101.4174,36.9693 116.8113,55.905 192.8744,165.01 192.8744,279.5249 0,78.4474 -34.4095,132.5489 -102.3231,161.4031 -41.6535,17.1322 -46.1811,17.1322 -38.0315,-1.8034 z"
           id="path92"
           inkscape:connector-curvature="0" />
        <path
           d="m 2246.392,5000.8252 c 0,-3.6068 6.3385,-18.0337 14.4882,-32.461 8.1496,-16.2303 12.6771,-42.3795 10.8661,-64.9217 l -3.622,-37.8712 -7.2441,37.8712 c -4.5276,20.7387 -15.3938,50.4947 -25.3544,65.8236 -17.2048,28.8542 -17.2048,28.8542 -36.2206,12.6235 -19.0158,-18.0337 -19.0158,-28.8542 -1.811,-162.3047 3.622,-28.8541 1.811,-53.2 -4.5276,-65.8234 -10.8661,-19.8372 -10.8661,-19.8372 23.5433,-5.4104 89.646,37.8714 137.6382,142.4676 95.9845,211.8979 -15.3936,27.0508 -66.1024,57.7084 -66.1024,40.5762 z"
           id="path94"
           inkscape:connector-curvature="0" />
        <path
           d="m 6457.0334,4717.6936 c 0,-24.3455 -9.9606,-41.4777 -84.213,-148.7793 -24.4493,-35.1659 -34.4099,-106.3997 -17.2043,-117.2202 10.8662,-6.3116 68.8186,34.2645 91.4567,64.0201 9.9606,13.5254 19.0156,19.8376 19.0156,13.5254 0,-5.4102 -19.9212,-31.5591 -43.4649,-55.9049 l -43.4649,-45.0845 42.5593,0 c 115.9061,0 165.7091,149.6812 87.8354,262.3926 -37.1267,54.1016 -52.5199,62.2168 -52.5199,27.0508 z"
           id="path98"
           inkscape:connector-curvature="0" />
        <path
           d="m 6893.4904,4718.5955 c -34.4088,-32.461 -44.3694,-55.905 -57.0469,-139.7626 -12.6774,-90.1694 -23.5436,-119.9251 -57.0479,-157.7963 l -28.0707,-31.5592 60.6693,5.4099 c 140.3554,12.6239 251.7334,111.8103 251.7334,222.7184 0,42.3795 -18.11,82.9557 -47.0862,102.7932 -29.883,20.7386 -32.5987,18.0337 -28.0718,-25.2478 5.4337,-41.4776 -14.4875,-124.4334 -36.22,-154.1895 -10.8662,-14.4268 -10.8662,-8.1151 0.9056,36.9698 10.8662,42.3795 12.6775,66.725 5.4326,108.2031 -9.9607,63.1185 -24.4482,70.3318 -65.1974,32.461 z"
           id="path100"
           inkscape:connector-curvature="0" />
        <path
           d="m 2102.4152,4597.7685 c -30.7874,-37.8712 -77.8742,-58.6102 -182.9139,-79.3489 -141.2599,-27.9527 -183.8191,-52.2982 -211.89,-119.0235 l -13.5828,-33.3626 34.4096,-7.2136 c 70.6301,-15.3289 159.3705,-8.1152 210.9846,17.1321 l 48.8977,24.3455 -30.7875,-26.1488 c -44.3702,-37.8713 -109.567,-56.8069 -188.3467,-55.905 -36.2206,0 -66.1024,-2.7053 -66.1024,-6.3121 0,-13.5254 50.7086,-54.1015 83.3072,-67.6269 145.7875,-61.3153 330.5124,87.4644 347.7172,279.5247 2.7165,34.2645 1.811,70.3323 -2.7165,81.1528 -7.2441,18.0337 -8.1496,18.0337 -28.9765,-7.2137 z"
           id="path110"
           inkscape:connector-curvature="0" />
        <path
           d="m 1286.5471,4537.3552 c 0,-13.5258 10.8661,-41.478 23.5435,-60.4136 l 23.5434,-35.166 -23.5434,21.6406 c -12.6774,12.6238 -28.9766,37.8712 -34.4097,57.7084 -9.9606,31.5591 -11.7717,33.3624 -22.6379,18.9356 -28.9763,-39.6747 0,-102.7929 57.0476,-126.2373 32.5984,-13.5254 87.835,-15.3287 115.9056,-4.5083 17.2049,6.3117 17.2049,7.2136 -0.9053,19.8371 -10.8661,7.2137 -28.071,28.8542 -39.8427,48.6918 -46.1811,81.1523 -98.7011,112.7114 -98.7011,59.5117 z"
           id="path112"
           inkscape:connector-curvature="0" />
        <path
           d="m 6297.6625,4429.1517 c 8.1493,-14.4269 14.4886,-32.461 14.4886,-38.7727 0,-6.3118 -7.2449,2.7053 -17.2055,19.8371 -38.0312,72.1357 -64.2906,29.7561 -36.22,-60.4133 9.9606,-31.5591 15.3932,-65.8235 12.6775,-74.8405 -8.1506,-24.3455 -1.8113,-22.5425 36.22,9.9185 43.4649,38.7727 56.1423,87.4645 34.4099,132.549 -10.8662,21.6405 -23.5437,34.2643 -37.1268,36.0678 -20.8268,2.7049 -20.8268,2.7049 -7.2437,-24.3459 z"
           id="path114"
           inkscape:connector-curvature="0" />
        <path
           d="m 6552.1115,4390.379 c -34.4088,-12.6235 -85.1175,-46.888 -153.9373,-106.3997 -69.7243,-59.5118 -114.9993,-82.9558 -175.6697,-89.2679 l -48.8975,-5.4099 35.3155,-34.2643 C 6342.033,4026.0951 6566.6002,4017.078 6689.75,4135.2 c 58.8581,57.7084 78.7805,120.8266 57.9536,192.9623 -5.4337,18.9356 -8.1505,17.1322 -47.993,-33.3629 -46.1806,-59.5115 -104.1342,-103.6944 -162.0866,-123.5319 -52.52,-18.9356 -65.1974,-16.2303 -20.8269,3.6068 51.6143,23.444 108.6612,76.644 150.3149,139.7626 19.0167,29.7557 34.4099,55.9049 34.4099,60.4132 0,10.8206 -54.3312,26.1493 -89.6456,25.2474 -18.11,0 -44.3705,-4.5083 -59.7648,-9.9185 z"
           id="path116"
           inkscape:connector-curvature="0" />
        <path
           d="m 6946.0114,4358.8199 c -55.2367,-37.8712 -71.5366,-79.349 -81.4972,-212.7998 -9.9607,-128.0402 -19.9213,-165.9114 -56.1413,-205.5861 l -26.2605,-28.8542 57.9536,4.5087 c 236.339,18.9356 395.7089,298.4604 245.3941,431.0094 -28.9763,25.2474 -66.103,37.8709 -53.4256,18.0337 14.4887,-23.4439 20.8269,-112.7118 12.6775,-160.5012 -8.1494,-44.183 -47.0874,-137.0577 -57.048,-137.0577 -2.7157,0 3.6224,22.5425 13.5831,49.5932 20.8268,59.5118 22.638,146.0744 3.6224,210.0945 -15.3943,50.4951 -24.4493,55.0034 -58.8581,31.5595 z"
           id="path118"
           inkscape:connector-curvature="0" />
        <path
           d="m 1379.8151,4340.7858 c -20.8267,-7.2133 -57.9528,-30.6577 -82.4019,-52.2981 -100.5118,-90.1694 -141.2603,-244.3589 -105.945,-399.45 14.4882,-62.2171 75.1577,-184.847 90.5514,-183.9456 5.433,0.9019 11.7717,14.4273 14.4881,30.6577 11.7718,71.2338 61.5751,133.4505 180.1975,228.1285 68.819,55.0031 119.5278,108.2032 141.2602,150.5827 14.4882,27.9522 22.6378,135.2539 11.7716,146.9759 -7.2441,7.2136 -78.7797,-16.2303 -137.6381,-45.0846 -58.8585,-28.8541 -134.0161,-100.9897 -172.0477,-164.1084 -29.8819,-50.4947 -23.5435,-18.9352 9.055,45.9864 33.5041,64.922 113.1894,140.6641 190.1581,178.5354 71.5356,36.0678 72.4411,41.478 2.7166,65.8234 -47.0868,16.2308 -92.3625,16.2308 -142.1658,-1.8033 z"
           id="path120"
           inkscape:connector-curvature="0" />
        <path
           d="m 1989.2259,4198.3183 c -9.9606,-7.2133 -35.3151,-13.5254 -55.2363,-13.5254 -48.8976,0 -93.2678,-15.3289 -104.1339,-36.9693 -8.1496,-13.5254 -5.4331,-18.0338 13.5827,-22.5425 13.5828,-3.6065 42.5591,-3.6065 66.1022,-0.9016 l 42.5592,4.5085 -26.2598,-13.5254 c -17.2049,-9.0168 -40.748,-12.6236 -65.1968,-9.0168 -35.3151,3.6064 -38.0316,2.705 -30.7875,-11.7223 9.9606,-18.9353 28.9765,-27.0508 64.2915,-27.0508 57.0471,0 106.8504,46.8883 121.3386,115.4167 6.3387,31.5595 0,35.1664 -26.2599,15.3289 z"
           id="path126"
           inkscape:connector-curvature="0" />
        <path
           d="m 6735.0262,4089.2136 c -20.8269,-27.0508 -67.0086,-50.495 -142.1655,-70.3322 -32.5987,-9.0171 -73.3467,-25.2473 -91.4579,-36.9694 -31.6919,-20.7389 -69.7243,-81.1523 -57.9524,-92.8743 3.6224,-3.6067 33.5043,-6.312 66.1029,-6.312 43.4638,0 71.5356,5.4102 99.6062,18.9356 25.3538,12.6238 34.4099,15.3288 27.165,6.312 -19.9212,-24.3458 -82.4018,-49.5931 -135.8262,-55.0033 -46.1817,-3.6069 -51.6154,-6.3118 -41.6536,-18.0339 6.3381,-7.2136 28.9762,-21.6408 50.7086,-30.6575 113.1893,-50.4951 243.5829,67.627 253.5435,228.1282 1.8112,37.8712 0,71.2338 -3.6225,73.939 -4.5269,2.705 -15.3931,-5.4102 -24.4481,-17.1322 z"
           id="path132"
           inkscape:connector-curvature="0" />
        <path
           d="m 1661.4301,4033.3087 c -86.0239,-55.0035 -131.2996,-136.1558 -133.1107,-236.2438 -1.811,-96.4811 44.3703,-159.5997 128.5831,-174.9285 29.8819,-5.4102 29.8819,-5.4102 15.3937,15.3288 -49.8033,69.4304 -76.0632,155.0914 -60.6694,205.5861 l 8.1496,30.6576 0.9055,-41.478 c 0.9055,-48.6914 41.6537,-136.1557 81.4962,-174.0266 l 27.1655,-26.1493 18.1103,30.6576 c 28.0709,45.9864 24.4489,104.5963 -12.6772,210.9963 -33.5041,95.5793 -37.1261,123.5319 -22.6378,163.2066 5.433,13.5254 8.1496,25.2473 6.3386,27.0508 -1.8111,1.8034 -28.071,-11.7224 -57.0474,-30.6576 z"
           id="path136"
           inkscape:connector-curvature="0" />
        <path
           d="m 1866.9818,3988.2238 c 14.4882,-24.3455 28.9764,-59.5117 30.7874,-79.3489 l 4.5273,-35.166 -9.9603,33.3626 c -5.4331,18.0337 -24.4489,49.5931 -42.5593,70.3322 l -32.5984,38.7727 -16.2993,-20.739 c -22.6378,-27.9526 -20.8268,-62.2167 9.9607,-142.4674 36.2205,-92.8744 39.8426,-110.9084 28.9764,-139.7627 -9.9606,-24.3455 -9.9606,-24.3455 15.3937,-11.7219 31.6931,17.1321 76.9685,64.922 97.7953,104.5966 20.8269,41.4777 21.7324,120.8266 0.9055,160.5013 -18.1102,33.3625 -64.2912,64.922 -94.1731,64.922 -19.9214,0 -19.9214,-0.9019 7.2441,-43.2815 z"
           id="path138"
           inkscape:connector-curvature="0" />
        <path
           d="m 7089.0825,3976.5018 c -27.1661,-15.3287 -37.1267,-45.9864 -44.3705,-131.647 -4.5281,-59.5118 -11.7719,-91.9728 -25.3549,-115.4168 l -19.0156,-32.461 34.4099,6.3118 c 78.7793,13.5254 151.2204,66.7253 174.7641,127.1387 16.2988,43.2814 9.9606,98.2846 -15.3932,128.0406 -32.5987,38.7727 -41.6548,35.166 -37.1267,-13.5254 4.528,-43.2814 -13.5831,-124.4337 -30.7875,-135.2542 -7.2438,-3.6065 -7.2438,0 0,12.6238 19.0156,36.0679 8.1494,165.01 -14.4887,164.1081 -4.5269,0 -14.4875,-4.5084 -22.6369,-9.9186 z"
           id="path140"
           inkscape:connector-curvature="0" />
        <path
           d="m 6935.1452,3878.2173 c -27.1661,-27.9523 -47.0874,-37.8713 -124.0554,-58.6099 -50.7099,-13.5254 -102.323,-32.461 -114.0949,-42.3796 -26.2605,-19.8375 -54.3311,-69.4304 -45.2761,-77.5459 3.6213,-3.6067 35.3155,-6.3117 71.5355,-6.3117 53.4256,0 74.2524,4.5084 114.0949,24.3459 l 49.803,25.2473 -30.7874,-27.0508 c -38.9369,-33.3628 -99.6062,-54.1016 -158.4643,-54.1016 l -46.1817,-0.9018 33.5043,-30.6576 c 29.8818,-27.0508 39.8425,-31.5591 79.6849,-31.5591 75.158,0 143.9767,47.7898 187.4416,128.9421 12.6775,25.2474 30.7875,189.3555 19.9212,185.7486 -1.8112,-0.9015 -18.11,-17.1321 -37.1256,-35.1659 z"
           id="path142"
           inkscape:connector-curvature="0" />
        <path
           d="m 1425.0909,3859.2816 c -31.6932,-20.7389 -66.1025,-82.0538 -66.1025,-119.925 0,-13.5254 9.055,-33.3626 22.6378,-45.9864 28.0707,-28.8542 42.5592,-29.7557 32.5986,-1.8034 -15.3941,40.5761 -19.016,69.4304 -9.961,69.4304 4.5279,0 9.0554,-9.0171 9.0554,-19.8372 0,-11.722 8.1495,-32.461 17.2047,-46.8883 l 17.2047,-25.2473 16.2994,24.3458 c 13.5827,20.739 14.4882,31.5591 6.3385,79.3489 -4.5275,30.6576 -5.433,66.7255 -1.811,81.1523 8.1497,29.7561 -2.7165,31.5596 -43.4646,5.4102 z"
           id="path144"
           inkscape:connector-curvature="0" />
        <path
           d="m 6434.3954,3762.8006 c -2.7169,-2.705 -4.5281,-25.2475 -4.5281,-51.3967 0,-59.5117 35.3155,-131.647 76.0636,-157.7963 38.0312,-22.542 95.9848,-23.4439 123.1498,-1.8034 l 20.8269,16.2307 -52.5199,11.722 c -32.5987,7.2136 -61.575,20.739 -79.685,37.8712 l -28.9762,26.1489 40.7481,-22.5421 c 46.1806,-25.2477 126.7711,-32.461 126.7711,-9.9189 0,27.0508 -38.9368,58.6102 -102.323,82.9557 -35.3144,13.5257 -76.0624,36.0679 -89.6455,49.5932 -13.5831,12.6239 -27.165,21.6409 -29.8818,18.9357 z"
           id="path148"
           inkscape:connector-curvature="0" />
        <path
           d="m 6994.0033,3638.3668 c -38.0312,-18.9353 -38.0312,-27.9524 1.8112,-36.0675 39.8425,-7.2136 105.9443,-50.4951 127.6768,-82.9558 l 16.2999,-24.3458 -29.8819,25.2474 c -42.5593,35.166 -71.5355,48.6914 -121.3397,55.905 l -42.5582,6.3117 0,-31.5592 c 0,-39.6745 30.7864,-78.4473 89.6456,-111.8098 87.8343,-50.4948 120.433,-77.5455 135.8273,-111.81 l 16.2987,-35.1659 11.7719,25.2474 c 6.3381,13.5254 13.5831,58.6099 15.3931,100.9894 3.6225,70.3322 1.8113,80.2509 -21.7313,125.3354 -47.0873,91.0712 -130.3947,129.8439 -199.2134,94.6777 z"
           id="path156"
           inkscape:connector-curvature="0" />
        <path
           d="m 1390.6813,3618.5296 c -129.4885,-49.5931 -194.6856,-148.7793 -194.6856,-294.8536 0,-244.359 225.473,-484.2094 492.5998,-522.9822 l 43.4646,-7.2136 -30.7875,45.0847 c -57.9529,84.7592 -64.2915,136.1557 -47.9921,426.5012 9.0551,183.0438 0,220.9145 -76.0633,298.4605 -28.071,28.8541 -56.1419,53.1996 -61.5749,53.1996 -5.4331,0 -26.26,-33.3626 -46.1813,-73.9387 -67.0079,-135.2538 -80.5908,-277.7214 -38.9371,-402.1554 12.6772,-36.9694 13.5827,-45.9864 4.5276,-33.3627 -19.0159,25.2474 -55.2364,143.3693 -62.4806,203.7828 -8.1495,62.217 6.3387,160.5016 37.126,249.7691 11.7718,36.9693 20.827,68.5287 19.9215,69.4303 -1.811,1.8034 -19.0158,-3.6068 -38.9371,-11.722 z"
           id="path158"
           inkscape:connector-curvature="0" />
        <path
           d="m 1813.5565,3598.6925 c -137.6382,-83.8576 -38.0317,-329.1181 149.4095,-366.0875 l 28.9765,-5.4103 -18.1103,34.2647 c -16.2993,31.5591 -18.1103,45.0844 -12.6772,120.8266 9.9607,146.9761 1.811,193.8641 -39.8427,216.4065 -25.3541,12.6235 -23.5431,13.5254 -47.0864,-37.8712 -14.4882,-34.2645 -20.8269,-65.8236 -20.8269,-109.105 0,-69.4303 -12.6772,-60.4134 -20.8268,14.4273 -3.622,33.3624 0.9055,62.2167 12.6772,99.1863 19.9214,56.8065 15.3938,61.3149 -31.6929,33.3626 z"
           id="path160"
           inkscape:connector-curvature="0" />
        <path
           d="m 6696.9949,3527.4587 c -19.9223,-9.0171 -64.2917,-35.1659 -97.796,-57.7084 -67.0086,-45.9864 -122.2442,-64.922 -159.371,-55.9049 -20.8268,5.4102 -18.11,0.9016 20.8268,-39.6746 73.3468,-73.9388 172.9541,-104.5964 268.0333,-82.0539 82.4018,19.8372 143.9755,100.9895 130.3936,171.3217 l -5.4337,24.3455 -41.6537,-41.4777 c -47.0862,-46.8883 -94.1724,-72.1356 -144.8822,-78.4474 l -33.5032,-4.5083 34.4088,13.5254 c 53.4255,19.837 105.0398,59.5117 134.9216,102.7929 14.4887,21.6405 25.355,40.5761 23.5437,41.478 -30.7874,27.0507 -79.6849,28.8542 -129.488,6.3117 z"
           id="path162"
           inkscape:connector-curvature="0" />
        <path
           d="m 6943.2946,3349.8253 c -28.0717,-15.3288 -25.3549,-30.6576 5.4325,-30.6576 27.1662,-0.9019 89.6467,-29.7561 105.9455,-49.5933 10.8662,-13.5255 8.1494,-12.624 -22.6381,3.6069 -22.638,11.722 -52.5199,18.9356 -78.7793,18.9356 -38.0323,0 -43.4649,-2.7053 -43.4649,-18.9356 0,-28.8544 44.3705,-65.8239 108.6612,-90.1697 34.4099,-12.6237 71.5366,-35.1659 91.4578,-55.0032 39.8425,-38.7728 44.3694,-33.3627 44.3694,49.5931 0,133.4507 -112.2836,225.4234 -210.9841,172.2238 z"
           id="path164"
           inkscape:connector-curvature="0" />
        <path
           d="m 6838.2548,3270.476 c -5.4326,-7.2133 -31.6931,-21.6408 -57.048,-32.4612 -38.0312,-16.2304 -71.5355,-20.7387 -187.4405,-26.1489 -148.5047,-7.2136 -176.5765,-14.4271 -214.6077,-56.8067 -10.8662,-10.8203 -23.5425,-29.7559 -29.8818,-39.6745 -9.055,-18.0338 -5.4326,-21.6407 38.0312,-40.5762 38.0324,-17.1321 63.3861,-20.7389 133.1116,-21.6406 47.0862,0 95.9837,2.705 108.6611,6.3119 12.6775,3.6067 4.5281,-1.8034 -18.11,-12.6238 -53.4255,-25.2474 -150.316,-30.6576 -217.3234,-12.6236 -27.165,7.2135 -51.6143,11.722 -53.4255,9.9185 -8.1494,-9.0168 21.7324,-61.315 49.803,-85.6609 89.6467,-77.5456 254.4491,-49.593 359.4889,62.217 53.4255,56.8066 95.9848,145.1725 103.2286,211.898 5.4337,52.2983 2.7169,58.61 -14.4875,37.871 z"
           id="path166"
           inkscape:connector-curvature="0" />
        <path
           d="m 1713.9499,3247.0319 c 19.0157,-26.1489 20.8268,-37.8711 22.6378,-167.7149 2.7166,-151.4845 9.0551,-174.9285 54.3308,-210.9963 l 25.3545,-19.8371 22.6378,48.6914 c 17.2049,36.9694 21.7324,63.1185 22.6379,115.4167 0,36.9694 -3.622,77.5456 -7.2442,90.1693 l -7.2441,22.5423 13.5828,-22.5423 c 25.3543,-42.3795 35.315,-114.515 23.5433,-173.1251 -5.433,-29.7558 -12.6771,-59.5118 -15.3937,-66.7253 -7.2441,-19.8373 15.3937,-15.3287 47.9919,9.9187 60.6696,45.9863 73.3467,146.9759 30.7876,235.3418 -38.9372,80.2508 -128.5828,145.1725 -220.0397,161.4033 l -34.4096,5.4103 20.8269,-27.9528 z"
           id="path168"
           inkscape:connector-curvature="0" />
        <path
           d="m 6891.6803,3074.8085 c -152.1272,-68.5287 -225.474,-271.4096 -162.9923,-454.4533 l 15.3932,-44.183 9.055,27.9524 c 20.8268,56.8068 72.4411,100.088 188.3472,155.993 152.126,72.1354 203.7403,121.7285 203.7403,194.7657 l 0,24.3457 -67.0074,-4.5084 c -80.5917,-5.4101 -164.8035,-41.478 -217.3235,-93.7762 -19.0156,-19.8371 -30.7874,-27.0507 -25.3549,-17.1321 17.2044,32.461 86.9299,92.8744 133.1105,116.3184 25.3549,11.722 70.6299,27.0508 102.323,33.3627 30.7874,6.3118 56.1423,15.3287 56.1423,18.9355 0,3.6068 -21.7324,18.9356 -47.0862,34.2644 -58.8592,33.3626 -125.8667,36.0677 -188.3472,8.1152 z"
           id="path170"
           inkscape:connector-curvature="0" />
        <path
           d="m 2026.352,2932.3409 c -25.3544,-23.4439 -54.3308,-63.1184 -72.4412,-99.1862 -26.2598,-54.1016 -28.9763,-65.8236 -28.9763,-146.0742 0,-80.2508 1.811,-89.2677 27.1653,-130.7456 31.6931,-51.3965 87.8349,-84.7591 142.1658,-84.7591 19.0157,0 34.4096,2.7051 34.4096,5.4101 0,2.7051 -16.2994,23.4441 -35.3151,46.8881 -19.9213,23.444 -44.3703,58.6101 -54.3309,79.349 -18.1102,35.166 -42.5592,136.1556 -34.4096,144.2709 2.7166,2.7051 7.2441,-10.8203 10.8662,-28.8542 9.9607,-56.8066 46.1812,-115.4167 99.6066,-164.1082 28.0709,-26.1491 54.3308,-46.8879 58.8585,-46.8879 12.6771,0 29.8819,55.0032 28.9764,94.6777 0,42.3795 -9.9607,64.0202 -76.9687,174.0268 -38.9371,64.0202 -46.1812,82.9558 -50.7088,135.254 l -5.4332,60.4134 -43.4646,-39.6746 z"
           id="path172"
           inkscape:connector-curvature="0" />
        <path
           d="m 6284.985,2935.9478 c 0,-27.9526 -17.2044,-62.2168 -65.1962,-132.5489 -19.0168,-28.8542 -37.1268,-64.0203 -39.8436,-78.4473 -6.3382,-31.5593 1.8112,-73.0372 14.4887,-73.0372 16.2999,0 92.3623,75.7422 105.0398,103.6947 8.1494,17.1322 11.7718,21.6407 12.6774,10.8203 0,-25.2474 -25.3549,-70.332 -61.5749,-107.3014 l -32.5987,-34.2644 41.6537,0 c 124.9611,0 167.5193,182.142 69.7243,300.2639 -32.5987,38.7728 -44.3705,42.3795 -44.3705,10.8203 z"
           id="path174"
           inkscape:connector-curvature="0" />
        <path
           d="m 6444.356,2840.3683 c -31.6931,-25.2474 -29.8819,-37.8711 4.5269,-30.6575 28.0718,6.3118 104.1342,-9.9187 112.2847,-23.4441 2.7158,-3.6067 -9.9606,-2.705 -28.0717,2.7051 -40.7481,10.8203 -112.2836,1.8033 -112.2836,-14.4271 0,-28.8541 43.4649,-51.3965 122.2442,-64.0202 57.048,-9.9187 86.0242,-18.9356 101.4174,-33.3627 18.1111,-17.1321 20.828,-17.1321 20.828,-3.6067 0,126.237 -138.5442,231.7351 -220.9459,166.8132 z"
           id="path176"
           inkscape:connector-curvature="0" />
        <path
           d="m 1247.6099,2837.6632 c 37.1263,-27.0508 57.9532,-75.7422 76.0632,-174.0268 21.7323,-120.8269 22.6379,-122.6303 50.7089,-155.9928 23.5436,-27.9526 73.3466,-59.5118 81.4964,-51.3967 9.0551,9.017 20.8268,74.8406 19.9212,114.5152 0,22.5422 -7.2441,63.1185 -17.2047,90.1693 -16.2993,48.6914 -16.2993,48.6914 0.9055,27.0507 29.8819,-38.7728 47.0866,-113.6133 41.6536,-178.5352 l -5.4331,-57.7084 28.071,21.6407 c 85.1184,65.8236 81.4963,182.1419 -9.9606,280.4265 -54.3309,58.6101 -124.9611,89.2676 -213.7013,94.6779 -67.9138,3.6067 -71.5357,2.705 -52.5201,-10.8204 z"
           id="path178"
           inkscape:connector-curvature="0" />
        <path
           d="m 1678.6348,2717.738 c -85.1184,-84.7592 23.5433,-237.1453 168.4256,-237.1453 l 49.8033,0 -20.8268,18.9356 c -25.3544,23.444 -41.6536,61.3151 -50.7088,116.3184 -10.8661,69.4304 -43.4647,116.3184 -78.7798,117.22 -11.7716,0 -16.2992,-8.1151 -18.1102,-28.8541 -1.811,-50.4948 2.7165,-82.9557 17.2047,-109.1049 7.2441,-14.4271 9.0551,-23.4439 3.6221,-19.8372 -19.0158,10.8203 -39.8426,63.1185 -45.2756,112.7116 l -5.4332,49.5932 -19.9213,-19.8373 z"
           id="path180"
           inkscape:connector-curvature="0" />
        <path
           d="m 6918.8453,2663.6364 c -127.6779,-24.3457 -150.3148,-249.769 -36.2211,-358.8739 l 27.1661,-26.1491 0,27.0509 c 0,33.3626 33.5043,101.8913 82.4018,167.7149 29.8818,40.5761 38.0312,59.5118 38.9368,90.1693 0,21.6406 -2.7168,45.9864 -6.3382,55.0032 -5.4336,14.4271 -8.1493,14.4271 -30.7874,2.7052 -38.0312,-18.9356 -80.5905,-67.6271 -101.4174,-113.6133 -22.6381,-48.6915 -24.4493,-37.8713 -4.5281,21.6405 9.055,27.0508 30.7875,59.5118 59.7637,87.4643 24.4493,24.3457 38.0324,44.183 30.7875,44.183 -7.2438,0 -18.11,1.8033 -25.3538,3.6067 -6.3393,1.8034 -21.7324,0.9017 -34.4099,-0.9017 z"
           id="path182"
           inkscape:connector-curvature="0" />
        <path
           d="m 6406.3247,2632.9788 c -195.5909,-103.6947 -185.6303,-100.0878 -240.8671,-96.4811 l -51.6143,3.6067 17.2044,-23.444 c 30.7875,-42.3795 91.4568,-91.9727 143.9767,-115.4167 75.158,-35.1661 181.1034,-38.7728 248.1109,-8.1153 67.9142,30.6577 99.6073,73.9389 104.1342,142.4676 1.8112,28.8542 1.8112,53.1999 0,53.1999 -2.7157,0 -21.7325,-16.2305 -42.5582,-36.0678 -57.048,-54.1015 -120.4341,-82.9558 -191.064,-86.5625 -53.4255,-2.7051 -55.2368,-1.8034 -18.11,4.5085 52.5188,9.9186 95.9837,28.8542 135.8261,58.61 30.7875,23.444 90.5523,91.9728 90.5523,104.5965 0,13.5254 -47.993,27.0508 -94.1736,27.0508 -36.2211,0 -60.6693,-7.2136 -101.4174,-27.9526 z"
           id="path184"
           inkscape:connector-curvature="0" />
        <path
           d="m 6712.3881,2459.8538 c -34.4099,-60.4135 -70.6299,-86.5626 -210.9853,-153.2879 -141.2598,-67.627 -198.3067,-130.7455 -198.3067,-220.0131 0,-19.8373 2.7157,-19.8373 57.0469,-15.3288 87.8354,8.1152 164.8035,36.9695 230.0009,85.6609 50.7087,38.7728 56.1412,40.5762 39.8424,18.0338 -52.5199,-73.0371 -142.1654,-125.3353 -250.8277,-147.8777 l -60.6693,-11.722 30.7875,-23.444 c 99.6061,-75.7423 234.5289,-56.8067 327.7958,46.888 105.0398,116.3184 135.8273,299.3622 74.2523,444.5348 l -10.8662,26.1491 -28.0706,-49.5931 z"
           id="path186"
           inkscape:connector-curvature="0" />
        <path
           d="m 2173.9509,2412.9657 c 16.2992,-24.3457 37.126,-62.2168 46.1811,-84.7592 19.0159,-51.3965 31.693,-145.1725 19.0159,-145.1725 -4.5276,0 -10.8662,18.0338 -12.6772,39.6745 -6.3387,53.1998 -37.1261,113.6133 -84.2129,165.0098 -44.3702,49.5931 -56.1419,46.8881 -82.4018,-19.8373 -19.0158,-50.4947 -13.5827,-78.4473 38.9371,-211.8978 38.0316,-94.6778 40.7482,-107.3015 37.1261,-164.1082 l -4.5275,-61.3151 35.315,19.8372 c 51.6143,28.8542 122.2444,107.3015 150.3153,166.8133 33.5041,71.2337 34.4096,175.8301 2.7166,239.8504 -26.2599,53.1999 -75.1577,87.4641 -133.1106,94.6777 l -42.5592,4.5084 29.8821,-43.2812 z"
           id="path188"
           inkscape:connector-curvature="0" />
        <path
           d="m 1610.7213,2434.6064 c -39.8427,-11.722 -102.3231,-63.1185 -121.339,-100.088 -8.1496,-14.427 -12.6771,-28.8541 -10.8661,-30.6576 2.7165,-1.8034 18.1102,0.9017 35.3151,5.4102 53.4253,15.3288 166.6145,10.8204 226.3785,-9.0169 46.1812,-16.2305 125.8665,-58.6101 125.8665,-68.5287 0,-0.9016 -23.5434,8.1152 -51.6143,21.6406 -46.1813,21.6407 -63.3861,24.3457 -147.5988,24.3457 -99.6066,0 -190.158,-20.7389 -190.158,-44.1829 0,-6.3119 11.7716,-27.9525 26.2598,-47.7897 41.6537,-57.7085 88.7404,-73.9389 253.5441,-88.366 162.9922,-14.427 196.4962,-23.444 245.394,-65.8235 l 36.2206,-30.6577 0,39.6745 c -0.9055,156.8947 -104.1341,313.7892 -247.2052,376.9079 -48.8977,21.6405 -134.016,29.7558 -180.1972,17.1321 z"
           id="path190"
           inkscape:connector-curvature="0" />
        <path
           d="m 6080.339,2405.7522 c 32.5987,-42.3796 50.7087,-90.1694 49.8031,-129.8439 l -0.9056,-34.2643 -6.3382,32.461 c -8.1494,40.5761 -48.8974,110.9083 -75.158,129.8438 -18.11,11.722 -21.7324,11.722 -34.4087,0 -24.4493,-24.3458 -16.3,-83.8574 21.7324,-161.403 22.6369,-47.7899 34.4088,-84.7592 35.3144,-110.9083 0,-21.6407 1.8112,-38.7729 4.5281,-38.7729 16.2987,0 65.1962,50.4948 86.0231,88.3659 63.3861,116.3185 24.4492,254.2776 -71.5356,254.2776 l -31.6931,0 22.6381,-29.7559 z"
           id="path192"
           inkscape:connector-curvature="0" />
        <path
           d="m 6253.2919,2321.8947 c -12.6763,-13.5254 -22.6369,-32.461 -23.5425,-43.2813 0,-10.8203 -1.8113,-25.2474 -3.6225,-33.3626 -0.9056,-8.1152 5.4326,-32.461 15.3943,-54.1016 l 18.11,-39.6745 8.1494,26.1491 c 3.6225,14.4271 19.0156,38.7728 33.5043,54.1016 34.4088,36.0677 46.1806,60.4134 38.9369,80.2507 -5.4326,13.5254 -9.055,13.5254 -41.6537,-8.1153 l -36.22,-24.3457 30.7874,33.3627 31.692,32.461 -25.3538,0 c -14.4887,0 -32.5987,-9.017 -46.1818,-23.4441 z"
           id="path194"
           inkscape:connector-curvature="0" />
        <path
           d="m 2404.8569,2207.3797 c -33.504,-81.1524 -3.622,-203.7827 62.4805,-254.2775 39.8426,-29.7559 97.7955,-35.1661 130.3941,-12.6237 l 20.8268,15.3288 -42.5591,14.4271 c -53.4255,18.0338 -93.268,48.6914 -115.9059,87.4642 l -18.1103,30.6576 28.0709,-29.7559 c 29.882,-30.6576 86.0239,-58.6101 137.6382,-68.5287 l 30.7875,-5.4101 -5.4331,33.3626 c -6.3385,38.7729 -32.5985,64.922 -123.1499,123.5319 -36.2205,22.5424 -64.2915,48.6915 -75.1577,67.6271 l -15.3938,31.5592 -14.4882,-33.3626 z"
           id="path196"
           inkscape:connector-curvature="0" />
        <path
           d="m 5844,2192.9525 c -79.685,-57.7083 -103.2286,-178.5352 -53.4256,-284.9349 l 24.4493,-54.1016 21.7325,45.0846 c 15.3932,31.5593 41.6537,61.3152 88.7399,100.088 65.1974,54.1015 96.8905,99.1862 96.8905,137.959 0,10.8203 -6.3393,21.6407 -14.4887,25.2474 -22.6381,8.1153 -102.323,-34.2644 -137.6385,-73.9388 -30.7875,-35.1661 -30.7875,-35.1661 -14.4876,-5.4101 20.8269,36.9694 89.6455,98.2844 118.6218,105.498 46.1817,11.722 15.3943,30.6576 -50.7087,30.6576 -33.5032,0 -51.6143,-6.3119 -79.6849,-26.1492 z"
           id="path198"
           inkscape:connector-curvature="0" />
        <path
           d="m 6063.1346,2036.058 c -83.3073,-33.3627 -144.8823,-92.8745 -188.3472,-184.8472 -24.4493,-51.3965 -28.9762,-73.0371 -31.693,-147.8777 -5.4326,-115.4167 0,-128.942 31.693,-85.6608 30.7875,43.2813 108.6612,81.1524 212.7954,105.4981 43.4649,9.9187 97.796,26.1491 120.4341,36.9695 46.1806,21.6406 92.3624,71.2338 103.2286,111.8099 6.3382,24.3458 4.527,27.9525 -16.2999,32.4609 -38.9368,9.9187 -124.0554,9.017 -172.0473,-1.8034 -24.4493,-5.4101 -68.8187,-23.444 -97.796,-40.5761 l -52.5188,-30.6575 36.22,32.4609 c 57.048,52.2981 133.1104,82.9558 220.9459,91.0709 l 75.1568,7.2136 -19.0156,24.3457 c -42.5593,53.1999 -151.2204,77.5456 -222.756,49.5932 z"
           id="path200"
           inkscape:connector-curvature="0" />
        <path
           d="m 1789.1075,1978.3496 c -67.9135,-13.5254 -65.197,-10.8203 -28.9764,-35.1661 38.0316,-25.2474 70.6301,-77.5455 96.8901,-152.3861 38.0315,-109.1048 88.74,-166.8132 148.5039,-166.8132 l 26.26,0 -5.4331,65.8236 c -5.433,69.4304 -19.9213,111.8099 -52.5198,155.0913 -19.0158,25.2474 -19.0158,25.2474 12.6772,-3.6069 36.2206,-34.2643 63.386,-95.5794 73.3466,-165.9115 6.3386,-43.2812 7.2441,-44.1829 25.3544,-27.0508 62.4805,55.9049 56.1419,165.9115 -15.3938,239.8504 -67.9135,71.2338 -189.2521,110.0066 -280.7091,90.1693 z"
           id="path202"
           inkscape:connector-curvature="0" />
        <path
           d="m 5639.354,1955.8073 c 15.3931,-16.2305 32.5987,-39.6746 38.0312,-52.2983 10.8662,-22.5422 10.8662,-22.5422 -5.4325,-4.5084 -34.4099,38.7728 -68.8199,59.5118 -76.9692,47.7898 -17.2044,-27.0508 -6.3382,-68.5288 32.5986,-128.9422 22.6381,-33.3626 43.465,-73.0371 46.1807,-87.4642 6.3393,-26.1492 6.3393,-26.1492 24.4493,-9.9186 51.6143,46.8881 69.7243,150.5827 34.4099,207.3894 -19.9213,33.3626 -60.6693,56.8067 -95.9849,56.8067 l -25.3549,0 28.0718,-28.8542 z"
           id="path204"
           inkscape:connector-curvature="0" />
        <path
           d="m 2664.7395,1882.7702 c -36.2205,-21.6407 -114.0948,-22.5424 -208.2683,-2.7051 -120.4333,26.149 -190.158,16.2305 -235.4337,-33.3627 l -20.8268,-22.5423 27.1655,-18.9355 c 59.7639,-43.2814 110.4727,-58.6101 188.3469,-59.5118 75.1577,0 75.1577,-7.2136 0.9055,-18.0339 -49.8033,-7.2135 -123.1499,7.2136 -181.1028,35.166 l -43.4647,20.739 0,-18.9356 c 0,-36.9694 49.8033,-100.9896 95.079,-122.6302 35.315,-17.1322 52.5198,-19.8373 112.2838,-16.2305 84.2128,4.5085 143.9767,33.3626 205.5517,99.1862 38.9371,41.4779 99.6065,151.4845 92.3624,167.7149 -0.9055,4.5085 -16.2992,0 -32.5985,-9.9185 z"
           id="path206"
           inkscape:connector-curvature="0" />
        <path
           d="m 6447.0728,1873.7532 c -17.2055,-10.8203 -39.8436,-37.8711 -51.6143,-60.4135 -28.0717,-54.1015 -24.4493,-148.7794 8.1494,-206.4876 l 21.7325,-38.7728 9.055,29.7558 c 5.4325,19.8372 34.4099,55.905 83.3073,103.6947 70.6299,68.5287 75.158,74.8405 75.158,110.9083 0,35.166 -1.8112,37.8711 -19.9212,32.461 -37.1268,-10.8204 -95.9848,-48.6915 -115.9061,-73.9389 l -19.0167,-25.2474 13.583,27.9525 c 16.3,33.3626 55.2368,67.6269 95.9849,84.7591 l 28.9762,11.7221 -21.7324,11.722 c -31.6931,18.0338 -73.3468,15.3287 -107.7556,-8.1153 z"
           id="path208"
           inkscape:connector-curvature="0" />
        <path
           d="m 2792.417,1843.0956 c -26.2599,-5.4101 -75.1577,-51.3965 -75.1577,-70.332 0,-12.6237 4.5276,-13.5254 29.882,-7.2135 41.6537,10.8202 117.7168,6.3118 144.8823,-8.1153 21.7323,-10.8203 18.1103,-11.722 -46.1812,-11.722 -76.9688,0 -131.2996,-16.2306 -126.7721,-39.6745 1.8111,-7.2136 16.2994,-23.444 33.5041,-34.2644 27.1655,-18.0338 41.6537,-20.7389 126.772,-20.7389 76.9687,0 103.2287,-3.6068 130.394,-17.1322 l 33.5041,-17.1321 0,24.3456 c -0.9055,56.8067 -66.1025,150.5828 -127.6776,181.2404 -36.2205,18.9355 -90.5513,27.9525 -123.1499,20.7389 z"
           id="path210"
           inkscape:connector-curvature="0" />
        <path
           d="m 5429.2743,1778.1737 c -43.4649,-19.8372 -90.5511,-70.332 -116.8116,-126.2371 -14.4876,-32.4608 -19.0157,-57.7083 -18.11,-118.1217 0,-42.3797 5.4336,-88.3659 11.7718,-102.793 l 10.8662,-27.0508 13.5831,27.0508 c 23.5425,45.0846 46.1806,62.2168 144.8823,110.9083 101.4174,50.4948 139.4486,88.3659 139.4486,137.959 0,24.3456 -1.8112,25.2474 -42.5593,25.2474 -47.0862,0 -105.9443,-23.444 -156.6541,-61.3151 -35.3144,-26.1492 -22.637,-5.4102 22.638,36.0677 29.8819,27.9525 110.4735,61.3151 146.6935,61.3151 20.8269,0 21.7325,1.8033 10.8663,15.3288 -32.5987,38.7728 -107.7567,48.6915 -166.6148,21.6406 z"
           id="path212"
           inkscape:connector-curvature="0" />
        <path
           d="m 6254.1975,1674.479 c 12.6775,-22.5424 24.4493,-60.4135 26.2606,-88.3659 l 4.5269,-47.7898 -12.6763,43.2813 c -13.5831,45.9863 -54.3312,114.5151 -67.9142,114.5151 -12.6775,0 -28.0707,-22.5424 -33.5043,-52.2982 -3.6214,-18.0339 2.7168,-52.2983 19.0167,-100.9898 18.11,-53.1998 23.5426,-85.6607 19.9212,-113.6133 -2.7168,-27.9525 -0.9056,-39.6745 7.2438,-39.6745 20.8269,0 97.7949,75.7424 114.0949,112.7117 19.9212,44.183 21.7324,113.6133 3.6224,148.7794 -17.2055,33.3626 -56.1424,63.1185 -82.4029,63.1185 l -20.8268,0 22.638,-39.6745 z"
           id="path214"
           inkscape:connector-curvature="0" />
        <path
           d="m 5720.8501,1624.8859 c -24.4493,-54.1016 -76.0636,-93.7761 -203.7403,-157.7963 -64.2918,-31.5593 -130.3948,-69.4304 -146.6936,-82.9558 -35.3155,-29.7559 -62.4805,-86.5625 -63.3861,-128.9421 l 0,-30.6576 72.4412,5.4102 c 89.6455,5.4101 168.4259,39.6745 237.2446,102.793 35.3155,32.461 42.5593,36.9694 28.0706,16.2305 -32.5987,-46.888 -109.5667,-112.7117 -157.5597,-135.2539 -25.3538,-11.7221 -72.4412,-26.1492 -104.1331,-32.461 -56.1424,-10.8204 -57.048,-11.7221 -41.6537,-28.8543 40.7481,-45.0846 116.8106,-65.8236 186.536,-51.3965 100.5118,20.739 194.6854,115.4168 232.7166,234.4403 24.4493,75.7422 26.2605,193.864 3.6224,262.3927 -20.8268,65.8236 -25.3549,68.5286 -43.4649,27.0508 z"
           id="path216"
           inkscape:connector-curvature="0" />
        <path
           d="m 3130.1739,1591.5232 c -58.8585,-23.4439 -86.9294,-29.7559 -106.8508,-25.2474 l -27.1654,5.4102 16.2993,-27.9525 c 29.882,-49.5931 118.6224,-99.1862 180.1973,-100.0879 15.3937,0 46.1812,9.0168 67.9135,20.7389 32.5986,16.2305 43.4648,27.0507 54.3309,57.7084 7.2441,20.7388 9.9606,40.5761 7.2441,44.1829 -3.6221,2.7051 -19.9213,-4.5085 -36.2205,-17.1322 -28.9765,-21.6406 -86.9294,-42.3795 -115.9059,-41.4778 -7.2441,0 7.2441,8.1152 33.5041,18.0338 26.2599,9.9187 60.6694,30.6576 76.9687,45.9864 l 28.9764,27.0508 -21.7323,12.6237 c -35.3151,18.9356 -70.6301,14.4271 -157.5594,-19.8373 z"
           id="path218"
           inkscape:connector-curvature="0" />
        <path
           d="m 5053.4855,1602.3435 c -17.2044,-6.3118 -67.913,-29.7558 -113.1892,-51.3965 -67.9131,-33.3626 -90.5511,-39.6745 -133.1104,-39.6745 l -50.7087,0.9017 16.2999,-23.444 c 31.6931,-43.2812 76.9681,-80.2507 131.2992,-105.4981 74.2524,-34.2643 170.2361,-35.166 230.9065,-2.705 53.4244,29.7558 81.4962,72.1353 81.4962,123.532 l 0,40.5761 -41.6537,-36.9694 c -45.2762,-38.7728 -134.0161,-73.9389 -188.3472,-72.1355 -21.7325,0 -16.2999,3.6068 28.0706,16.2305 31.6931,9.0169 73.3467,27.9525 93.268,41.4779 32.5987,22.5423 81.4961,76.6439 81.4961,90.1693 0,9.017 -60.6693,31.5592 -83.3074,31.5592 -11.7718,-0.9017 -35.3143,-6.3118 -52.5199,-12.6237 z"
           id="path220"
           inkscape:connector-curvature="0" />
        <path
           d="m 5963.5273,1599.6385 c -69.7243,-36.0678 -97.7949,-83.8575 -117.7161,-202.881 -20.8268,-119.9251 -38.0324,-166.8132 -79.6849,-211.8979 l -36.2212,-38.7728 57.9525,0 c 143.0722,0 264.4108,67.6271 325.0801,181.2403 24.4493,45.0847 29.8818,65.8237 29.8818,111.81 0,59.5117 -9.9606,84.7591 -47.0862,124.4336 -47.993,51.3965 -50.7087,48.6915 -50.7087,-41.4778 0,-72.1355 -3.6224,-90.1693 -26.2605,-138.8608 -13.5831,-30.6576 -32.5987,-62.2168 -41.6537,-70.3321 -11.7718,-9.9186 -9.055,-1.8034 8.1494,33.3627 20.8268,42.3795 23.5437,58.6101 23.5437,142.4675 0,52.2982 -3.6225,100.9896 -9.055,110.0066 -8.1494,13.5254 -11.7719,13.5254 -36.2212,0.9017 z"
           id="path222"
           inkscape:connector-curvature="0" />
        <path
           d="m 2608.5976,1584.3097 c -259.8826,-70.3321 -256.2605,-70.3321 -325.985,-65.8236 -47.0868,1.8034 -80.5908,9.9187 -106.8507,23.4441 -21.7324,10.8202 -41.6537,18.9355 -43.4647,17.1321 -1.811,-1.8034 15.3937,-42.3795 38.937,-89.2676 34.4096,-69.4304 54.331,-97.3829 115.0004,-157.7964 119.5278,-117.22 233.6226,-162.3047 396.6152,-155.0912 71.5356,2.7051 94.1735,7.2135 135.8271,28.8542 59.764,29.7559 96.89,66.7253 125.8665,121.7286 19.9213,37.8711 35.3151,127.1387 21.7323,127.1387 -3.622,0 -18.1102,-8.1153 -32.5984,-18.9355 -41.6537,-28.8542 -153.0319,-77.5457 -205.5519,-88.366 -62.4804,-12.6237 -131.2995,-12.6237 -197.4019,1.8035 l -53.4254,10.8202 99.6066,5.4102 c 67.9135,3.6068 116.8113,11.722 153.0319,24.3457 60.6694,21.6406 153.0319,79.349 190.1579,118.1218 l 24.4489,25.2474 -38.0316,32.461 c -74.2521,63.1185 -163.898,74.8405 -297.9142,38.7728 z"
           id="path224"
           inkscape:connector-curvature="0" />
        <path
           d="m 3410.8832,1531.1098 c -14.4882,-10.8203 -12.6771,-14.427 25.3545,-49.5931 50.7087,-45.9864 39.8425,-49.5931 -18.1104,-5.4102 l -42.5592,32.461 5.4332,-37.8711 c 8.1496,-61.3152 57.9529,-99.1863 131.2995,-99.1863 42.5592,0 121.339,37.8711 147.5988,70.3321 l 19.0159,24.3456 -39.8426,5.4103 c -20.827,3.6067 -66.1027,20.7389 -98.7011,38.7727 -62.4806,34.2644 -102.3231,40.5762 -129.4886,20.739 z"
           id="path226"
           inkscape:connector-curvature="0" />
        <path
           d="m 3846.4356,1434.6286 c -57.0474,-14.427 -160.276,-73.0371 -160.276,-91.9727 0,-3.6068 12.6772,-7.2135 28.0709,-7.2135 43.4647,0 86.0239,-24.3458 157.5594,-91.071 37.1262,-33.3627 79.6853,-67.627 95.9846,-75.7422 28.0712,-15.3288 111.3786,-21.6407 123.1504,-9.9187 9.9606,9.017 -29.8829,82.9558 -66.103,122.6303 -19.0156,20.739 -48.8978,45.0846 -66.1026,54.1016 -18.1102,9.9186 -27.1653,17.1321 -20.8268,18.0339 6.3386,0 30.7875,-9.9187 54.3308,-21.6407 41.6536,-20.739 84.2129,-60.4134 125.8666,-118.1217 l 19.0157,-27.0509 6.3381,25.2474 c 11.7719,45.0847 -0.9045,104.5965 -28.9762,139.7624 -52.5199,65.8237 -178.386,104.5965 -268.0319,82.9558 z"
           id="path228"
           inkscape:connector-curvature="0" />
        <path
           d="m 4297.3821,1437.3337 c -57.0479,-14.4271 -112.2847,-91.071 -113.1892,-157.7963 0,-34.2643 0,-34.2643 17.2044,-17.1322 17.2044,17.1322 53.4255,29.7559 119.5274,40.5762 37.1267,6.3119 80.5905,36.0677 80.5905,55.0033 0,19.8372 -57.9524,26.1491 -104.1331,11.722 -47.0873,-16.2304 -52.5199,-13.5254 -13.583,6.3118 14.4875,7.2136 47.0862,13.5254 72.4411,13.5254 42.5593,0 45.275,1.8034 37.1256,17.1323 -8.1494,14.427 -57.0468,38.7728 -72.4411,36.0676 -2.7157,-0.9016 -13.5819,-3.6067 -23.5426,-5.4101 z"
           id="path230"
           inkscape:connector-curvature="0" />
        <path
           d="m 4524.6662,1426.5133 c -14.4887,-5.4101 -12.6775,-9.0168 16.2988,-31.5592 31.693,-24.3457 75.158,-91.9727 65.1973,-102.793 -2.7168,-2.7051 -5.4336,0 -5.4336,5.4102 0,26.149 -86.9287,100.9896 -117.7162,100.9896 -11.7718,0 -11.7718,-59.5118 0.9056,-83.8575 5.4326,-10.8202 30.7875,-43.2812 56.1413,-72.1354 24.4492,-28.8541 49.803,-69.4304 56.1423,-90.1694 l 10.8663,-36.9693 24.4481,36.0676 c 12.6775,19.8373 28.0718,50.4949 32.5987,67.6271 35.3155,120.8268 -47.0862,243.4571 -139.4486,207.3893 z"
           id="path232"
           inkscape:connector-curvature="0" />
        <path
           d="m 4714.8235,1402.1677 c -8.1494,-38.7729 9.055,-109.1049 35.3155,-148.7794 21.7325,-33.3626 85.1186,-71.2337 118.6218,-71.2337 9.055,0 31.6931,9.0168 48.8986,19.8372 l 31.693,18.9355 -49.8042,9.9187 c -27.165,6.3118 -60.6693,18.0338 -74.2512,27.0508 -33.5043,21.6406 -31.6931,27.0508 2.7157,9.9186 14.4887,-8.1153 47.0874,-17.1322 71.5355,-19.8373 54.3312,-6.3118 67.9142,10.8204 38.938,49.5932 -20.8268,27.9524 -40.7481,39.6744 -115.906,66.7252 -29.8819,10.8203 -65.1974,29.756 -78.7805,43.2813 l -23.5425,24.3458 -5.4337,-29.7559 z"
           id="path234"
           inkscape:connector-curvature="0" />
        <path
           d="m 5244.5496,1410.2829 c -1.8113,-24.3457 -61.5749,-77.5456 -117.7173,-106.3997 -32.5987,-16.2306 -68.8187,-39.6746 -79.6849,-50.4949 -19.0156,-20.7389 -38.9369,-62.2169 -38.9369,-82.0541 0,-16.2304 80.5906,0 124.9611,24.3457 22.6381,12.6237 42.5593,20.739 44.3694,18.9355 7.2449,-7.2134 -75.1569,-57.7083 -114.0949,-69.4303 l -38.9368,-11.722 19.9212,-16.2304 c 24.4493,-19.8373 89.6467,-21.6407 124.9611,-3.6068 60.6693,31.5592 101.4174,108.2031 100.5118,190.2573 0,45.0846 -23.5426,140.6641 -25.3538,106.3997 z"
           id="path236"
           inkscape:connector-curvature="0" />
        <path
           d="m 3169.1109,1398.5609 c -71.5356,-11.722 -139.4491,-55.905 -167.5201,-110.0066 -19.9213,-38.7728 -17.2047,-143.3692 3.6221,-142.4675 3.622,0 19.0157,18.9356 33.504,41.4779 15.3937,22.5423 45.2757,55.0033 66.1025,72.1354 37.1261,27.9525 135.8272,72.1355 143.9768,64.0202 1.811,-2.705 -9.0551,-8.1151 -23.5433,-13.5253 -52.5199,-18.9357 -111.3783,-66.7253 -146.6933,-121.7287 -45.2757,-69.4303 -45.2757,-83.8573 -0.9055,-91.0709 63.3859,-10.8204 105.9451,10.8203 217.3233,114.515 60.6695,55.905 102.3231,78.4474 146.6933,78.4474 32.5985,0 33.504,5.4101 7.2441,27.9524 -78.7797,65.8236 -182.9139,95.5794 -279.8039,80.2507 z"
           id="path238"
           inkscape:connector-curvature="0" />
        <path
           d="m 4342.6571,1273.2255 c -70.6299,-17.1321 -134.9216,-74.8405 -171.1416,-154.1895 -18.1112,-38.7728 -23.5437,-64.0202 -23.5437,-115.4167 l 0,-66.72533 23.5437,28.85426 c 28.9762,34.26427 62.4805,48.69137 159.3698,67.62697 105.9454,21.6406 146.6935,46.888 169.3316,105.498 8.1494,21.6407 6.3382,24.3457 -15.3943,29.756 -53.4244,13.5254 -140.3542,5.4101 -187.4405,-17.1323 l -45.2761,-22.5422 27.165,22.5422 c 38.0324,30.6577 104.1342,50.4949 167.5204,49.5932 l 54.3311,0 -15.3943,22.5423 c -25.3538,39.6745 -91.4568,62.2168 -143.0711,49.5931 z"
           id="path240"
           inkscape:connector-curvature="0" />
        <path
           d="m 3691.5927,1256.9951 c -27.1655,-14.4271 -38.0317,-13.5254 -179.2919,2.705 -60.6694,7.2136 -86.9294,1.8034 -114.0947,-23.444 -24.449,-23.444 -20.8268,-30.6575 28.0708,-55.9049 26.26,-13.5254 55.2365,-19.8373 94.1735,-19.8373 30.7875,-0.9017 49.8033,-3.6068 40.7482,-7.2135 -30.7874,-11.722 -111.3783,-7.2136 -155.7485,9.9185 l -46.1812,17.1323 5.4331,-18.9356 c 9.9606,-33.3626 36.2206,-64.0202 68.8191,-81.1524 36.2205,-18.9356 115.9058,-16.2305 158.465,5.4101 39.8426,20.739 90.5514,75.7423 112.2837,120.827 25.3545,54.1015 21.7323,68.5286 -12.6771,50.4948 z"
           id="path242"
           inkscape:connector-curvature="0" />
        <path
           d="m 3869.9789,1121.7411 c -9.9606,-36.9694 -7.2441,-155.09119 4.5276,-196.56904 5.433,-19.83729 24.4489,-60.41346 42.5592,-90.1694 l 31.693,-54.10156 -32.5986,36.06774 c -18.1102,19.83719 -45.2757,62.21683 -60.6694,94.67772 -23.5433,49.59313 -28.9765,71.2338 -31.693,141.56594 l -3.6221,83.8573 -26.2598,-18.9355 c -14.4882,-9.9186 -37.1261,-36.9694 -50.7088,-60.4134 -20.8269,-35.1661 -25.3545,-52.2982 -24.449,-100.98963 3.6221,-179.43691 211.8903,-329.11799 423.7812,-302.96889 l 52.5188,7.21348 -38.0312,31.55931 c -48.8975,41.47786 -67.9131,82.05402 -100.5118,208.29106 -32.5987,128.94217 -57.048,179.43697 -104.1343,210.99617 -56.1418,37.8712 -74.2522,39.6745 -82.4018,9.9187 z"
           id="path244"
           inkscape:connector-curvature="0" />
        <path
           d="m 4752.8559,1134.3648 c -22.6381,-7.2135 -61.5761,-24.3457 -85.1186,-40.5762 l -43.465,-27.9525 27.165,-5.4102 c 51.6143,-10.8203 88.7411,-36.9694 152.1272,-106.39969 35.3144,-37.87111 80.5906,-77.54559 101.4174,-87.46424 38.9369,-18.93561 98.7006,-24.34572 107.7556,-9.01696 7.2449,11.72201 -36.22,106.39974 -61.575,134.35231 -10.8662,11.72198 -38.0312,33.36258 -59.7636,46.88808 -53.4256,34.2642 -36.2201,33.3626 22.638,-0.9018 49.8031,-27.9525 94.1736,-74.84054 117.7173,-125.33535 l 15.3932,-30.65752 11.7718,21.64066 c 27.165,47.78966 6.3382,130.74541 -43.4649,175.83021 -60.6693,55.0032 -175.6698,79.3489 -262.5984,55.0032 z"
           id="path246"
           inkscape:connector-curvature="0" />
        <path
           d="m 2830.4487,1101.9039 c -33.5041,-9.017 -101.4176,-42.3796 -108.6618,-54.1017 -2.7166,-5.4101 10.8662,-13.5254 30.7875,-19.8371 21.7323,-6.3119 60.6694,-33.36272 97.7955,-66.72541 33.5041,-30.65752 70.6301,-60.41346 81.4963,-65.82357 24.4489,-13.52539 93.2679,-14.42708 93.2679,-1.80337 0,21.64066 -37.126,80.25065 -67.9135,106.39975 -38.0316,33.3627 -33.5039,36.9694 11.7717,9.017 17.2048,-9.9187 42.5592,-36.96947 56.1418,-57.70845 13.5828,-21.64056 27.1655,-36.96943 30.7876,-33.36258 12.6771,12.6237 4.5275,87.46423 -12.6772,116.31833 -32.5986,52.2982 -140.3547,86.5626 -212.7958,67.6271 z"
           id="path248"
           inkscape:connector-curvature="0" />
        <path
           d="m 5619.4328,1082.9683 c -29.8819,-15.3288 -67.0086,-27.0508 -83.3074,-27.0508 -16.2999,0 -29.8819,-3.6068 -29.8819,-8.1153 0,-14.427 71.5356,-72.13543 96.8893,-79.34892 72.4412,-18.93561 138.5442,-0.90168 162.0879,44.18292 23.5425,45.0847 16.2987,55.0033 -21.7325,29.7559 -18.1111,-11.722 -47.993,-24.3457 -65.1974,-27.0507 l -31.693,-5.4103 31.693,14.4271 c 17.2044,8.1153 42.5593,25.2474 56.1424,37.8711 53.4244,51.3966 -24.4493,64.922 -115.0004,20.739 z"
           id="path250"
           inkscape:connector-curvature="0" />
        <path
           d="m 5214.6677,1086.575 c -30.7874,-16.2304 -52.5199,-56.8066 -84.213,-160.50136 -18.11,-61.31504 -31.693,-88.36593 -55.2367,-111.80997 -17.2044,-17.13213 -30.7875,-32.46089 -30.7875,-34.26426 0,-1.80337 29.8819,-3.60674 66.103,-3.60674 56.1412,0 75.158,4.50843 122.2442,27.95247 30.7875,15.32876 67.9142,41.47785 82.4018,59.51166 32.5987,38.7728 50.7087,99.18626 42.5593,141.5659 -6.3382,30.6575 -44.3705,86.5626 -59.7637,86.5626 -3.6224,0 -9.055,-25.2475 -10.8662,-55.9051 -3.6225,-57.70827 -19.9213,-101.89129 -53.4256,-142.46745 -14.4886,-18.03393 -13.583,-13.52539 4.5281,20.73887 26.2594,50.49492 37.1256,110.00658 28.9762,155.09128 -7.2449,34.2644 -15.3942,37.8711 -52.5199,17.1321 z"
           id="path252"
           inkscape:connector-curvature="0" />
        <path
           d="m 3618.2459,1034.2768 c -40.7481,-20.7388 -95.079,-23.444 -254.4494,-10.8203 -65.197,5.4102 -100.5121,4.5086 -124.0554,-2.705 -32.5986,-10.8204 -87.8349,-56.80675 -87.8349,-73.93888 0,-4.50843 25.3543,-20.73898 57.0474,-36.96943 45.2757,-22.54235 69.7246,-28.85415 130.394,-32.461 43.4647,-2.70505 86.0238,0 104.1342,6.31191 16.2992,5.41011 25.3543,6.31191 20.8267,1.80337 -13.5826,-13.52539 -112.2837,-36.96943 -153.9374,-36.96943 -19.9212,0 -64.2914,9.91865 -98.701,22.54236 -35.3151,11.72201 -65.197,19.83718 -67.9136,18.03381 -6.3385,-7.21348 27.1654,-74.84054 47.9923,-93.77604 100.5121,-93.77604 308.7803,-37.87111 404.7649,110.0066 30.7874,47.78975 68.819,138.86073 61.5749,145.17253 -1.811,1.8034 -19.9213,-5.4101 -39.8427,-16.2305 z"
           id="path254"
           inkscape:connector-curvature="0" />
        <path
           d="m 5410.2587,1018.0464 c -0.9056,-21.64065 -3.6224,-61.31513 -7.2438,-88.36591 -5.4336,-37.87111 -3.6224,-54.10167 6.3382,-67.62706 12.6775,-16.23044 13.5831,-16.23044 32.5987,13.52539 9.9606,17.13224 19.0156,45.98639 19.9212,63.11863 0,27.05078 0.9056,28.85415 8.1494,11.72191 7.2438,-18.03382 2.7168,-45.08459 -13.5831,-85.66076 -9.055,-22.54235 15.3943,-20.73898 36.2212,1.80337 22.638,25.24741 21.7324,88.36592 -2.7169,127.13872 -15.3931,24.34571 -60.6693,62.21681 -76.0624,62.21681 -0.9057,0 -2.7169,-17.1321 -3.6225,-37.8711 z"
           id="path256"
           inkscape:connector-curvature="0" />
        <path
           d="m 4424.1533,995.50406 c -38.0312,-8.11527 -89.6455,-31.55931 -118.6218,-53.19987 -40.748,-31.55931 -76.0636,-103.69469 -76.0636,-158.69804 l 0,-43.28122 49.8031,40.57617 c 84.213,68.52863 176.5754,103.69468 269.8434,103.69468 55.2367,0 47.9929,-14.42707 -9.9607,-19.83718 -68.8187,-6.31191 -157.5597,-53.19998 -220.0402,-114.51502 -28.9763,-29.75594 -53.4244,-58.61009 -53.4244,-64.02031 0,-5.41012 22.6369,-20.73888 50.7087,-33.36258 75.1568,-34.26437 121.3386,-26.14909 265.3152,41.47785 62.4806,29.75584 134.0161,58.61009 157.5598,64.92189 42.5593,9.91865 103.2286,8.11528 136.7329,-6.3118 17.2044,-6.3119 17.2044,-6.3119 0,23.44404 -56.1424,98.28447 -184.7259,192.9623 -291.5758,215.50465 -47.0874,9.91868 -124.9611,11.72198 -160.2766,3.60674 z"
           id="path258"
           inkscape:connector-curvature="0" />
        <path
           d="m 3581.1198,803.44345 c -19.0157,-7.21359 -61.5749,-54.10166 -55.2363,-60.41346 1.811,-1.80337 24.4489,0.90168 48.8978,6.3118 30.7875,7.21359 56.1419,7.21359 76.0632,0.90179 l 30.7875,-8.11528 -32.5985,-0.90168 c -37.1261,-0.90169 -88.7404,-16.23045 -105.9452,-31.55932 -9.0551,-9.01696 -6.3386,-15.32876 12.6772,-33.36257 21.7323,-19.8373 28.9765,-21.64067 109.5672,-18.93561 62.4806,1.80337 93.268,-1.80337 113.1894,-11.72202 l 27.1653,-13.52539 -5.433,29.75594 c -9.0552,48.69134 -50.7089,99.18615 -104.1342,126.23693 -50.7088,25.24752 -81.4963,28.85426 -115.0004,15.32887 z"
           id="path260"
           inkscape:connector-curvature="0" />
      </g>
    </g>
  </g>
</svg>
