<?xml version="1.0" encoding="UTF-8" standalone="no"?>
<!-- Generator: Adobe Illustrator 19.2.1, SVG Export Plug-In . SVG Version: 6.00 Build 0)  -->

<svg
   xmlns:dc="http://purl.org/dc/elements/1.1/"
   xmlns:cc="http://creativecommons.org/ns#"
   xmlns:rdf="http://www.w3.org/1999/02/22-rdf-syntax-ns#"
   xmlns:svg="http://www.w3.org/2000/svg"
   xmlns="http://www.w3.org/2000/svg"
   xmlns:sodipodi="http://sodipodi.sourceforge.net/DTD/sodipodi-0.dtd"
   xmlns:inkscape="http://www.inkscape.org/namespaces/inkscape"
   version="1.1"
   id="Слой_1"
   x="0px"
   y="0px"
   viewBox="0 0 960 560"
   style="enable-background:new 0 0 960 560;"
   xml:space="preserve"
   inkscape:version="0.91 r13725"
   sodipodi:docname="gears.svg"><metadata
     id="metadata29"><rdf:RDF><cc:Work
         rdf:about=""><dc:format>image/svg+xml</dc:format><dc:type
           rdf:resource="http://purl.org/dc/dcmitype/StillImage" /><dc:title></dc:title></cc:Work></rdf:RDF></metadata><defs
     id="defs27" /><sodipodi:namedview
     pagecolor="#ffffff"
     bordercolor="#666666"
     borderopacity="1"
     objecttolerance="10"
     gridtolerance="10"
     guidetolerance="10"
     inkscape:pageopacity="0"
     inkscape:pageshadow="2"
     inkscape:window-width="1600"
     inkscape:window-height="837"
     id="namedview25"
     showgrid="false"
     inkscape:snap-nodes="false"
     inkscape:snap-global="false"
     inkscape:zoom="1.1360799"
     inkscape:cx="415.82025"
     inkscape:cy="336.86427"
     inkscape:window-x="-8"
     inkscape:window-y="-8"
     inkscape:window-maximized="1"
     inkscape:current-layer="Слой_1" /><style
     type="text/css"
     id="style3">
	.st0{fill:none;stroke:#070505;stroke-miterlimit:10;}
	.st1{fill:none;stroke:#070505;stroke-width:3;stroke-miterlimit:10;}
</style><ellipse
     class="st0"
     cx="480.76636"
     cy="281.01343"
     rx="234.2"
     ry="217.7"
     id="ellipse23"
     style="fill:#3598db;stroke:#070505;stroke-miterlimit:10;fill-opacity:1" /><path
     style="fill:#ffffff;stroke:#070505;stroke-miterlimit:10;fill-opacity:1"
     inkscape:connector-curvature="0"
     class="st0"
     d="m 450.00525,251.94532 c 1.9,-2.6 4.3,-4.4 4.1,-7 -0.1,-1 -0.5,-1.80001 -3.3,-4.80001 -1.9,-2.09999 -11.5,-12.5 -11.8,-14.5 -0.4,-2.69999 1.3,-5.19999 9,-12.5 9.1,-8.59999 13.7,-12.9 16.5,-13 0,0 21.2,15 21.2,15 l 13,-7.3 c -1.3,-8.3 -2.5,-16.5 -3.8,-24.8 2.7,-2.1 25.6,-10.7 31.8,-9.5 1.7,0.3 3.4,0.8 5.3,1.5 2.5,7.7 5,15.3 7.5,23 5,-0.2 10,-0.5 15,-0.7 l 10.7,-24.2 c 11.4,3.5 22.8,7 34.3,10.5 -1.1,8.7 -2.2,17.30001 -3.3,26 l 11.8,7.5 c 5.9,-4.9 11.8,-9.8 17.8,-14.8 1.1,-0.3 2.8,-0.7 4.8,-0.3 4.8,1.1 16.2,18.2 22.8,22.3 -0.3,1.9 -0.7,3.8 -1,5.8 l -15.3,18 6.6,10.8 24.1,-2.8 c 1.5,0.90001 3,1.8 4.6,2.8 2.4,9.2 4.8,18.3 7.2,27.5 l -2.2,6 -22.2,9 0.3,13 22.8,9 1.5,4 -7,28.8 -5,3.30001 -23.5,-3.80001 -6.2,12 15,17.5 0.3,5 -20,21.5 -4,2 -4.5,-1.3 -16.3,-14 -12.3,7 3.5,19.5 -0.8,6.3 -3.8,2.80001 c -9.3,2.5 -18.5,5 -27.8,7.5 -1.5,-0.7 -3,-1.4 -4.5,-2.10001 -2.6,-7.3 -5.2,-14.6 -7.8,-21.89999 -5.1,-0.10001 -10.2,-0.2 -15.3,-0.30001 -2.7,7.60001 -5.3,15.2 -8,22.80001 l -3.8,2.39999 c -10.2,-2.5 -20.3,-5.1 -30.5,-7.6 -1,-1.2 -2,-2.3 -3,-3.5 l 3.5,-23.3 -12.8,-8 -18.3,15 c -2,-0.2 -4,-0.3 -6,-0.5 -7,-6.7 -14,-13.5 -21,-20.2 -0.2,-2 -0.3,-4 -0.5,-6 4.9,-5.7 9.8,-11.5 14.8,-17.2 l -8.3,-14.8 -23.3,4.2 -4.5,-2.8 -7.5,-30.8 2.5,-2.8 22,-8 -0.5,-17.8 -22.8,-7.5 -1.3,-5 c 3,-10.3 6,-20.5 9,-30.8 5.3,-0.1 9.5,0.5 12.5,1 7.7,1.4 11.9,3.8 14.8,1.5 1.8,-1.2 0.6,-2.2 3.2,-5.6 z"
     id="path7" /><path
     class="st0"
     d="M 424.00525,175.14531"
     id="path9"
     inkscape:connector-curvature="0"
     style="fill:none;stroke:#070505;stroke-miterlimit:10" /><path
     class="st0"
     d="M 420.50525,175.64531"
     id="path11"
     inkscape:connector-curvature="0"
     style="fill:none;stroke:#070505;stroke-miterlimit:10" /><polygon
     class="st0"
     points="326,188.5 331.5,184.4 331.5,174 331.5,168.9 346.4,164.1 349.4,165.3 354.9,175.5 363.5,175.5 369.2,165 371.9,163.9 385.9,167.1 387.5,171.4 386.5,182.4 386.5,184.1 392.5,187.8 404.8,182.4 407.9,183 416.5,195.1 416.5,197.7 407.5,207 409.3,215.5 423.5,218 424.5,219.1 424.5,234.9 422.3,236.6 409.4,238.6 407.7,247.1 416,255.8 416.5,259.6 408.4,271.5 405,271.5 393.8,266.1 386.9,271.4 388.6,283.2 387.4,287.7 371.9,291.4 365.4,280.1 356.4,279 348,291.5 344.9,291.5 332.7,286.5 331.8,284.3 333.4,271.6 327.2,266.8 315.5,272.5 311.4,271.6 303.5,260.6 303.5,258.6 312.6,248.2 310.4,240.6 309.5,238.9 297.7,237.5 295.5,235.5 295.5,219.7 298.1,218.6 310.1,215.5 311.9,208.3 303.5,199.1 303.5,194.3 312.5,182.5 316.3,182.5 "
     id="polygon15"
     style="fill:#34495e;stroke:#070505;stroke-miterlimit:10;fill-opacity:1"
     transform="translate(-13.794748,9.145315)" /><circle
     class="st1"
     cx="346.50525"
     cy="236.84531"
     r="25.299999"
     id="circle17"
     style="fill:#22b473;stroke:#070505;stroke-width:3;stroke-miterlimit:10;fill-opacity:1" /><circle
     transform="matrix(0.04320091,-0.99906641,0.99906641,0.04320091,0,0)"
     class="st1"
     cx="-141.06386"
     cy="438.87183"
     id="ellipse19"
     r="0"
     style="fill:none;stroke:#070505;stroke-width:3.00010085;stroke-miterlimit:10" /><ellipse
     class="st1"
     cx="545.10529"
     cy="307.74533"
     rx="58.299999"
     ry="53.799999"
     id="ellipse21"
     style="fill:#22b473;stroke:#040608;stroke-width:3;stroke-miterlimit:10;stroke-opacity:1;fill-opacity:1;fill-rule:nonzero" /><ellipse
     style="opacity:0.46300001;fill:none;fill-opacity:1;fill-rule:nonzero;stroke:none;stroke-opacity:1"
     id="path4172"
     cx="280.88123"
     cy="-82.284897"
     rx="43.103191"
     ry="21.788425" /><path
     class="st0"
     d="m 403.59261,144.05634 3.4,-4.5 -3.3,-10.4 1.7,-2.9 6.4,-4.1 3.5,0.8 6.2,7.1 6.5,0 5,-9.8 2.1,0 1.8,0 6.3,1 c 0.7,0.8 1.5,1.6 2.2,2.4 -0.3,3.4 -0.6,6.7 -0.9,10.1 l 5.5,3.3 9.3,-3 2.5,0.3 5,6.3 0,3.3 -7.5,8 0.2,5.4 c 3.5,1.90001 7,3.80001 10.5,5.7 -0.2,1.4 -0.3,2.8 -0.5,4.2 -0.3,2.3 -0.5,4.6 -0.8,6.9 -0.9,0.3 -1.7,1 -2.6,1 l -10.5,0 -3.3,4.7 3,8.9 -0.8,3.4 -7.6,5 -2,-0.8 -7,-7.1 -6.7,0.6 -5,10.1 -2.1,0.9 -9.8,-2.4 0.2,-11.8 -4.5,-4.2 -9.4,3 -3.4,-0.5 -4.4,-6 0,-4.1 7.5,-7.3 -1.4,-7.3 -9.2,-3.9 -0.9,-5.3 2.7,-6.3 12.1,-0.7 z"
     id="path13"
     inkscape:connector-curvature="0"
     style="fill:#004259;stroke:#070505;stroke-miterlimit:10;fill-opacity:1" /><path
     inkscape:connector-curvature="0"
     style="fill:#c2392a;fill-opacity:1;stroke:#070505;stroke-width:2.60219336;stroke-miterlimit:10"
     d="m 429.4049,138.38544 a 21.709612,22.183273 0 0 0 -21.70898,22.18359 21.709612,22.183273 0 0 0 21.70898,22.1836 21.709612,22.183273 0 0 0 21.71094,-22.1836 21.709612,22.183273 0 0 0 -21.71094,-22.18359 z"
     id="circle17-3" /></svg>