<?xml version="1.0" encoding="UTF-8" standalone="no"?>
<svg
   xmlns:dc="http://purl.org/dc/elements/1.1/"
   xmlns:cc="http://creativecommons.org/ns#"
   xmlns:rdf="http://www.w3.org/1999/02/22-rdf-syntax-ns#"
   xmlns:svg="http://www.w3.org/2000/svg"
   xmlns="http://www.w3.org/2000/svg"
   xmlns:sodipodi="http://sodipodi.sourceforge.net/DTD/sodipodi-0.dtd"
   xmlns:inkscape="http://www.inkscape.org/namespaces/inkscape"
   class="logo"
   version="1"
   width="75"
   height="75"
   viewBox="0 0 629 702"
   preserveAspectRatio="xMidYMid meet"
   id="svg2"
   inkscape:version="0.91 r13725"
   sodipodi:docname="image.svg">
  <metadata
     id="metadata48">
    <rdf:RDF>
      <cc:Work
         rdf:about="">
        <dc:format>image/svg+xml</dc:format>
        <dc:type
           rdf:resource="http://purl.org/dc/dcmitype/StillImage" />
      </cc:Work>
    </rdf:RDF>
  </metadata>
  <defs
     id="defs46" />
  <sodipodi:namedview
     pagecolor="#ffffff"
     bordercolor="#666666"
     borderopacity="1"
     objecttolerance="10"
     gridtolerance="10"
     guidetolerance="10"
     inkscape:pageopacity="0"
     inkscape:pageshadow="2"
     inkscape:window-width="1600"
     inkscape:window-height="837"
     id="namedview44"
     showgrid="false"
     inkscape:zoom="3.1466667"
     inkscape:cx="37.5"
     inkscape:cy="37.5"
     inkscape:window-x="-8"
     inkscape:window-y="-8"
     inkscape:window-maximized="1"
     inkscape:current-layer="svg2" />
  <g
     transform="translate(0.000000,702.000000) scale(0.100000,-0.100000)"
     fill="#000000"
     stroke="none"
     id="g4"
     style="fill:#ffffff;fill-opacity:1">
    <path
       class="petles"
       d="M3120 6779c-109-131-201-298-231-419-18-75-16-193 4-261 33-109 149-245 263-305l36-19 71 76c135 143 192 274 191 439-1 93-12 147-49 235-24 58-115 191-178 259l-53 60-54-65z"
       id="path6"
       style="fill:#ffffff;fill-opacity:1" />
    <path
       class="petles"
       d="M3995 6292c-230-120-390-287-435-452-17-62-15-169 5-237 17-60 71-169 104-213l19-24 59 18c156 49 312 177 383 316 61 119 71 302 27 470-27 103-53 170-65 170-4 0-48-22-97-48z"
       id="path8"
       style="fill:#ffffff;fill-opacity:1" />
    <path
       class="petles"
       d="M2090 6178c-16-129-8-298 19-402 65-248 251-386 523-386l57 0 17 53c9 29 18 101 21 167 9 201-35 319-167 450-89 90-209 155-360 195-52 14-96 25-96 25-1 0-7-46-14-102z"
       id="path10"
       style="fill:#ffffff;fill-opacity:1" />
    <path
       class="petles"
       d="M4931 5919c-440-93-630-351-530-721 13-48 29-52 153-39 278 31 458 175 535 426 23 74 49 309 38 338-9 23-74 21-196-4z"
       id="path12"
       style="fill:#ffffff;fill-opacity:1" />
    <path
       class="petles"
       d="M1297 5786c-113-20-217-54-217-70 0-30 114-240 171-316 135-179 280-257 458-248 100 6 158 24 258 80l71 41-15 51c-49 170-163 323-297 401-109 63-279 87-429 61z"
       id="path14"
       style="fill:#ffffff;fill-opacity:1" />
    <path
       class="petles"
       d="M3113 5538c-162-202-233-365-233-540 0-87 28-181 76-249 36-53 133-142 190-175l46-27 55 54c285 279 283 630-5 941-30 32-60 58-66 58-7 0-35-28-63-62z"
       id="path16"
       style="fill:#ffffff;fill-opacity:1" />
    <path
       class="petles"
       d="M4105 5195c-49-12-110-31-135-41-133-53-260-162-316-269-55-105-68-165-67-310 0-71 5-143 10-160l9-30 107-3c171-4 279 34 379 134 119 119 192 377 173 617l-7 87-32-1c-17 0-71-11-121-24z"
       id="path18"
       style="fill:#ffffff;fill-opacity:1" />
    <path
       class="petles"
       d="M2155 5124c-64-6-211-35-225-44-19-12 4-83 65-209 103-211 242-351 394-395 69-20 176-20 253 0 76 19 188 71 195 91 8 21-25 134-63 214-82 171-219 288-384 327-54 13-179 21-235 16z"
       id="path20"
       style="fill:#ffffff;fill-opacity:1" />
    <path
       class="petles"
       d="M1120 5103c-101-16-317-86-343-112-18-18 122-220 218-316 242-242 490-254 763-38l23 19-26 58c-63 143-181 273-299 331-105 52-234 74-336 58z"
       id="path22"
       style="fill:#ffffff;fill-opacity:1" />
    <path
       class="petles"
       d="M4951 5044c-77-20-167-68-229-122-56-47-146-161-177-222l-18-34 68-64c239-221 529-190 797 85 64 66 168 198 168 214 0 15-227 120-304 139-94 24-226 26-305 4z"
       id="path24"
       style="fill:#ffffff;fill-opacity:1" />
    <path
       class="petles"
       d="M1875 4463c-95-9-315-68-315-85 0-5 19-45 41-91 168-333 398-498 641-458 77 12 240 85 273 121 20 22 12 54-41 164-86 173-211 284-375 329-60 17-162 26-224 20z"
       id="path26"
       style="fill:#ffffff;fill-opacity:1" />
    <path
       class="petles"
       d="M4341 4394c-209-45-370-200-446-428l-27-80 24-17c37-28 139-76 203-94 42-13 83-16 150-13 83 3 101 8 170 42 143 71 270 218 370 428 25 52 45 98 45 101 0 10-129 47-218 62-103 18-186 18-271-1z"
       id="path28"
       style="fill:#ffffff;fill-opacity:1" />
    <path
       class="petles"
       d="M1034 4276c-105-24-268-100-353-165l-25-19 40-48c142-175 324-303 482-340 105-25 194-15 295 34 85 42 210 144 222 183 13 41-123 205-230 275-120 80-292 112-431 80z"
       id="path30"
       style="fill:#ffffff;fill-opacity:1" />
    <path
       class="petles"
       d="M3075 4201c-195-48-270-300-135-454 81-91 197-115 305-62 95 46 147 133 147 247 0 177-155 308-317 269z"
       id="path32"
       style="fill:#ffffff;fill-opacity:1" />
    <path
       class="petles"
       d="M5170 4112c-36-10-94-34-129-52-70-38-189-143-238-212l-32-45 52-62c63-74 153-143 227-174 46-18 73-22 165-21 99 0 118 3 190 32 110 43 222 120 335 229 109 105 110 85-15 172-144 99-257 141-395 147-72 3-111 0-160-14z"
       id="path34"
       style="fill:#ffffff;fill-opacity:1" />
    <path
       class="petles"
       d="M4301 3590c-121-32-276-133-347-225l-27-35 38-58c168-253 423-314 710-169 109 54 303 197 304 223 1 16-99 106-172 156-169 115-339 151-506 108z"
       id="path36"
       style="fill:#ffffff;fill-opacity:1" />
    <path
       class="petles"
       d="M1573 3572c-97-29-208-98-305-191-49-46-93-92-99-102-8-16 1-26 58-69 131-97 297-170 435-191 220-34 408 70 524 291l28 54-56 50c-70 63-148 111-236 144-91 34-258 40-349 14z"
       id="path38"
       style="fill:#ffffff;fill-opacity:1" />
    <path
       class="bark"
       d="M3240 3015l0-510 36-20c81-44 130-149 122-263-6-81-31-134-90-188-38-35-63-49-120-68-17-5-18-58-18-931 0-510 3-924 8-922 66 37 380 223 390 232 11 10 94 406 475 2258 13 66 13 67-8 67-45 0-144 32-232 75-210 103-396 344-524 680l-38 100-1-510z"
       id="path40"
       style="fill:#ffffff;fill-opacity:1" />
    <path
       class="bark"
       d="M3036 3428c-74-192-203-403-314-516-130-131-275-209-443-237l-37-5 64-313c89-441 404-2000 404-2003 0-1 60-37 133-80 72-43 165-97 205-121l72-43 0 924 0 924-32 7c-79 17-147 73-189 155-30 59-33 182-6 252 22 56 81 112 136 129l41 12 0 494c0 271-1 493-3 493-2 0-16-33-31-72z"
       id="path42"
       style="fill:#ffffff;fill-opacity:1" />
  </g>
</svg>
