<?xml version="1.0" encoding="UTF-8" standalone="no"?>
<!-- Created with Inkscape (http://www.inkscape.org/) -->

<svg
   xmlns:dc="http://purl.org/dc/elements/1.1/"
   xmlns:cc="http://creativecommons.org/ns#"
   xmlns:rdf="http://www.w3.org/1999/02/22-rdf-syntax-ns#"
   xmlns:svg="http://www.w3.org/2000/svg"
   xmlns="http://www.w3.org/2000/svg"
   xmlns:sodipodi="http://sodipodi.sourceforge.net/DTD/sodipodi-0.dtd"
   xmlns:inkscape="http://www.inkscape.org/namespaces/inkscape"
   width="210mm"
   height="297mm"
   viewBox="0 0 744.09448819 1052.3622047"
   id="svg4841"
   version="1.1"
   inkscape:version="0.91 r13725"
   sodipodi:docname="logo.svg">
  <defs
     id="defs4843" />
  <sodipodi:namedview
     id="base"
     pagecolor="#ffffff"
     bordercolor="#666666"
     borderopacity="1.0"
     inkscape:pageopacity="0.0"
     inkscape:pageshadow="2"
     inkscape:zoom="0.35"
     inkscape:cx="-139.28571"
     inkscape:cy="748.57143"
     inkscape:document-units="px"
     inkscape:current-layer="layer1"
     showgrid="false"
     inkscape:window-width="1600"
     inkscape:window-height="837"
     inkscape:window-x="-8"
     inkscape:window-y="-8"
     inkscape:window-maximized="1" />
  <metadata
     id="metadata4846">
    <rdf:RDF>
      <cc:Work
         rdf:about="">
        <dc:format>image/svg+xml</dc:format>
        <dc:type
           rdf:resource="http://purl.org/dc/dcmitype/StillImage" />
        <dc:title></dc:title>
      </cc:Work>
    </rdf:RDF>
  </metadata>
  <g
     inkscape:label="Layer 1"
     inkscape:groupmode="layer"
     id="layer1">
    <g
       style="fill:#000000;stroke:none"
       id="g4602"
       transform="matrix(0.031612,0,0,-0.02866061,746.81852,560.6741)">
      <path
         inkscape:connector-curvature="0"
         id="path96"
         d="m -11763.797,5541.7094 c -195.861,-242.212 -408.32,-655.586 -448.156,-881.65 -39.836,-209.917 -3.32,-452.128 96.271,-636.209 69.713,-132.409 322.008,-381.079 484.672,-477.963 l 96.27,-58.131 175.943,187.31 c 431.557,461.816 511.229,955.928 239.016,1492.022 -92.951,190.54 -401.68,558.701 -464.754,558.701 -16.598,0 -96.27,-83.966 -179.262,-184.08 z" />
      <path
         inkscape:connector-curvature="0"
         id="path102"
         d="m -9559.5354,4869.9764 c -484.6716,-116.262 -886.3526,-419.834 -1022.4586,-775.077 -89.631,-222.834 -122.828,-513.488 -89.631,-771.847 l 23.237,-180.851 258.935,0 c 351.885,0 557.7046,64.59 763.5236,245.441 288.812,251.9 431.557,658.815 434.877,1233.663 l 0,297.113 -89.631,-3.23 c -53.115,0 -175.943,-22.606 -278.852,-45.212 z" />
      <path
         inkscape:connector-curvature="0"
         id="path104"
         d="m -14094.207,4679.4364 c -116.188,-22.606 -219.098,-48.442 -229.057,-61.36 -33.197,-29.066 73.032,-290.654 222.418,-555.472 358.524,-636.208 833.238,-871.961 1417.5,-697.569 126.147,35.525 262.254,93.655 302.09,122.721 l 73.033,58.131 -69.713,216.375 c -235.697,742.782 -866.435,1078.648 -1716.271,917.174 z" />
      <path
         inkscape:connector-curvature="0"
         id="path106"
         d="m -16245.354,4643.9124 c -202.5,-41.984 -544.426,-161.475 -587.582,-206.687 -46.475,-41.984 302.09,-510.259 541.107,-726.635 355.204,-319.719 746.926,-423.062 1122.048,-293.883 199.181,67.819 501.271,271.277 501.271,335.867 0,80.737 -215.779,419.833 -358.525,561.93 -169.303,171.163 -418.278,300.342 -650.655,342.326 -242.336,41.983 -315.369,41.983 -567.664,-12.918 z" />
      <path
         inkscape:connector-curvature="0"
         id="path122"
         d="m -14754.822,3255.2334 c -96.27,-25.836 -219.098,-64.59 -275.532,-87.196 l -102.91,-41.984 116.188,-222.834 c 222.418,-416.604 481.353,-694.339 813.32,-862.273 119.508,-61.36 199.18,-77.507 418.278,-77.507 242.336,0 288.812,9.688 521.189,122.72 172.623,80.737 255.615,142.097 255.615,177.622 0,103.343 -222.418,503.8 -361.844,658.815 -86.312,93.655 -222.419,193.769 -358.525,258.359 -195.861,93.655 -255.615,106.573 -537.787,113.032 -202.5,6.459 -381.762,-6.459 -487.992,-38.754 z" />
      <path
         inkscape:connector-curvature="0"
         id="path128"
         d="m -16228.756,2916.1374 c -338.606,-58.131 -889.672,-345.555 -839.877,-435.981 53.115,-90.425 421.599,-442.439 564.345,-539.324 561.024,-374.62 1058.975,-358.473 1520.409,48.443 199.18,174.392 192.541,219.605 -66.393,500.57 -312.049,335.866 -763.525,497.341 -1178.484,426.292 z" />
      <path
         inkscape:connector-curvature="0"
         id="path130"
         d="m -11935.866,2667.4674 c -322.009,-203.458 -365.164,-662.045 -82.992,-920.404 368.483,-342.325 939.467,-80.737 939.467,432.751 0,458.587 -474.713,726.634 -856.475,487.653 z" />
      <path
         inkscape:connector-curvature="0"
         id="path150"
         d="m -14950.682,1433.8034 c -255.615,-41.983 -564.344,-213.146 -819.959,-452.12801 l -242.336,-226.064 99.59,-80.737 c 132.787,-109.803 554.385,-319.719 780.123,-390.768 106.229,-35.524 282.172,-58.13 418.278,-58.13 398.361,0 690.492,180.851 926.189,571.618 l 92.951,151.786 -96.271,96.88501 c -265.574,271.277 -796.721,448.898 -1158.565,387.538 z" />
      <path
         inkscape:connector-curvature="0"
         id="path152"
         d="m -11411.358,222.74639 0,-1062.50071 136.106,-113.032 c 162.664,-135.63828 229.057,-274.50618 229.057,-465.04588 -3.319,-258.3588 -189.221,-519.9471 -421.598,-590.9958 l -76.352,-19.3769 0,-1973.2156 c 0,-1081.8776 9.959,-1963.5271 26.557,-1957.0682 13.279,6.459 212.459,116.2615 438.197,245.4409 l 414.959,232.523 511.229,2415.6551 c 278.8519,1327.3185 514.5489,2444.72039 524.5079,2480.24479 13.279,61.3602 -3.32,71.0487 -149.385,90.4256 -554.3849,71.0486 -1125.3689,629.7497 -1490.5329,1456.4977 l -142.745,322.94901 0,-1062.50101 z" />
      <path
         inkscape:connector-curvature="0"
         id="path154"
         d="m -11809.719,1201.2804 c 0,-74.278 -298.77,-649.12601 -451.475,-868.73101 -295.451,-429.521998 -790.082,-778.3064 -1171.844,-826.7487 l -152.705,-19.3769 511.229,-2477.01539 514.549,-2477.0153 315.369,-180.8512 c 175.943,-100.114 375.123,-213.146 444.836,-251.8998 l 122.828,-71.0487 0,1969.9861 0,1969.9861 -99.59,16.1474 c -132.787,29.0654 -351.885,229.2935 -401.681,368.1614 -53.114,161.4742 -23.237,474.7343 56.435,584.5368 36.516,48.4423 129.467,116.26148 205.82,151.78578 l 136.106,64.5898 3.32,1043.12361 c 0,571.619 -6.64,1039.89401 -16.599,1039.89401 -9.959,0 -16.598,-16.147 -16.598,-35.524 z" />
      <path
         inkscape:connector-curvature="0"
         id="path90-3"
         d="m -15842.249,6074.5297 c -136.106,-35.525 -252.295,-71.049 -258.934,-77.508 -6.639,-6.459 56.434,-145.327 142.746,-306.801 205.819,-393.997 497.951,-704.028 776.803,-823.519 179.262,-77.508 239.016,-90.426 461.434,-80.737 205.82,9.688 295.451,32.295 481.353,122.72 219.098,103.344 225.737,109.803 209.139,209.917 -56.435,335.866 -371.803,736.323 -710.41,897.797 -195.86,93.655 -255.614,106.573 -537.786,113.032 -239.017,6.459 -381.763,-6.459 -564.345,-54.901 z"
         style="fill:#000000;stroke:none" />
      <path
         inkscape:connector-curvature="0"
         id="path96-8"
         d="m -11679.381,5535.2057 c -195.861,-242.212 -408.32,-655.586 -448.156,-881.65 -39.836,-209.917 -3.32,-452.128 96.271,-636.209 69.713,-132.409 322.008,-381.079 484.672,-477.963 l 96.27,-58.131 175.943,187.31 c 431.557,461.816 511.229,955.928 239.016,1492.022 -92.951,190.54 -401.68,558.701 -464.754,558.701 -16.598,0 -96.27,-83.966 -179.262,-184.08 z"
         style="fill:#000000;stroke:none" />
      <path
         inkscape:connector-curvature="0"
         id="path102-6"
         d="m -9475.1188,4863.4727 c -484.672,-116.262 -886.3532,-419.834 -1022.4592,-775.077 -89.631,-222.834 -122.828,-513.488 -89.631,-771.847 l 23.237,-180.851 258.935,0 c 351.8852,0 557.7052,64.59 763.5242,245.441 288.812,251.9 431.557,658.815 434.877,1233.663 l 0,297.113 -89.631,-3.23 c -53.115,0 -175.943,-22.606 -278.852,-45.212 z"
         style="fill:#000000;stroke:none" />
      <path
         inkscape:connector-curvature="0"
         id="path104-1"
         d="m -14009.79,4672.9327 c -116.189,-22.606 -219.098,-48.442 -229.057,-61.36 -33.197,-29.066 73.032,-290.654 222.418,-555.472 358.524,-636.208 833.237,-871.961 1417.499,-697.569 126.147,35.525 262.254,93.655 302.09,122.721 l 73.033,58.131 -69.713,216.375 c -235.697,742.782 -866.435,1078.648 -1716.27,917.174 z"
         style="fill:#000000;stroke:none" />
      <path
         inkscape:connector-curvature="0"
         id="path122-8"
         d="m -14670.405,3248.7297 c -96.27,-25.836 -219.098,-64.59 -275.532,-87.196 l -102.91,-41.984 116.188,-222.834 c 222.418,-416.604 481.353,-694.339 813.32,-862.272 119.508,-61.361 199.18,-77.507 418.278,-77.507 242.336,0 288.811,9.687 521.188,122.719 172.623,80.737 255.615,142.097 255.615,177.622 0,103.343 -222.418,503.8 -361.844,658.815 -86.312,93.655 -222.418,193.769 -358.524,258.359 -195.861,93.655 -255.615,106.573 -537.787,113.032 -202.5,6.459 -381.762,-6.459 -487.992,-38.754 z"
         style="fill:#000000;stroke:none" />
      <path
         inkscape:connector-curvature="0"
         id="path124-7"
         d="m -9056.8408,3126.0087 c -345.246,-113.032 -600.86,-342.325 -766.844,-684.651 -172.623,-352.013 -169.303,-368.16 99.59,-500.57 544.426,-264.817 1062.295,-122.719 1467.296,397.227 126.147,161.474 378.442,613.602 378.442,678.192 0,9.688 -69.714,41.983 -156.024,71.049 -212.46,74.278 -839.878,96.884 -1022.46,38.753 z"
         style="fill:#000000;stroke:none" />
      <path
         inkscape:connector-curvature="0"
         id="path130-1"
         d="m -11888.52,2660.9637 c -322.009,-203.458 -365.164,-662.045 -82.992,-920.404 368.483,-342.324 939.467,-80.737 939.467,432.751 0,458.587 -474.713,726.634 -856.475,487.653 z"
         style="fill:#000000;stroke:none" />
      <path
         inkscape:connector-curvature="0"
         id="path150-9"
         d="m -14866.265,1427.3007 c -255.615,-41.983 -564.344,-213.146 -819.959,-452.12804 l -242.336,-226.064 99.59,-80.737 c 132.787,-109.803 554.385,-319.719 780.123,-390.768 106.229,-35.524 282.172,-58.13 418.278,-58.13 398.361,0 690.492,180.851 926.189,571.618 l 92.95,151.786 -96.27,96.88504 c -265.574,271.277 -796.721,448.898 -1158.565,387.538 z"
         style="fill:#000000;stroke:none" />
      <path
         inkscape:connector-curvature="0"
         id="path122-4"
         d="m -14758.231,3234.3145 c -96.271,-25.836 -219.099,-64.59 -275.533,-87.196 l -102.91,-41.984 116.189,-222.834 c 222.418,-416.6039 481.352,-694.339 813.319,-862.2729 119.508,-61.36 199.18,-77.507 418.279,-77.507 242.336,0 288.811,9.6879 521.188,122.7199 172.623,80.737 255.615,142.0971 255.615,177.6221 0,103.3429 -222.418,503.7999 -361.844,658.8149 -86.312,93.655 -222.418,193.769 -358.525,258.359 -195.86,93.655 -255.615,106.573 -537.787,113.032 -202.5,6.459 -381.762,-6.459 -487.991,-38.754 z"
         style="fill:#000000;stroke:none" />
      <path
         inkscape:connector-curvature="0"
         id="path124-75"
         d="m -9144.6673,3111.5935 c -345.246,-113.032 -600.86,-342.325 -766.844,-684.651 -172.6227,-352.0129 -169.3027,-368.161 99.59,-500.5699 544.426,-264.8181 1062.295,-122.72 1467.295,397.2269 126.148,161.474 378.443,613.602 378.443,678.192 0,9.688 -69.714,41.983 -156.025,71.049 -212.459,74.278 -839.877,96.884 -1022.459,38.753 z"
         style="fill:#000000;stroke:none" />
      <path
         inkscape:connector-curvature="0"
         id="path128-5"
         d="m -16232.166,2895.2185 c -338.606,-58.131 -889.672,-345.555 -839.877,-435.981 53.115,-90.4249 421.599,-442.4389 564.344,-539.324 561.025,-374.6199 1058.976,-358.4729 1520.41,48.4431 199.181,174.392 192.541,219.6049 -66.393,500.5699 -312.049,335.866 -763.525,497.341 -1178.484,426.292 z"
         style="fill:#000000;stroke:none" />
      <path
         inkscape:connector-curvature="0"
         id="path130-8"
         d="m -11976.346,2646.5485 c -322.009,-203.4579 -365.164,-662.0449 -82.992,-920.4039 368.483,-342.325 939.467,-80.737 939.467,432.751 0,458.5869 -474.713,726.6339 -856.475,487.6529 z"
         style="fill:#000000;stroke:none" />
      <path
         inkscape:connector-curvature="0"
         id="path146-3"
         d="m -9028.4783,1438.7206 c -225.738,-41.983 -537.787,-206.6871 -727.008,-377.8501 -92.951,-83.96596 -169.304,-167.93296 -169.304,-187.30996 0,-16.147 69.714,-113.032 152.705,-216.376 451.476,-561.929998 1082.213,-574.847898 1849.057,-45.212 308.73,216.375 318.689,232.523 202.5,348.7841 -341.926,352.01386 -902.95,558.70096 -1307.95,477.96396 z"
         style="fill:#000000;stroke:none" />
      <path
         inkscape:connector-curvature="0"
         id="path150-8"
         d="m -14954.092,1412.8846 c -255.615,-41.983 -564.344,-213.1461 -819.959,-452.12796 l -242.336,-226.064 99.59,-80.7371 c 132.787,-109.803 554.386,-319.71899 780.123,-390.76799 106.23,-35.52401 282.172,-58.13001 418.279,-58.13001 398.36,0 690.491,180.85101 926.188,571.618 l 92.951,151.786 -96.271,96.88496 c -265.573,271.277 -796.721,448.8981 -1158.565,387.5381 z"
         style="fill:#000000;stroke:none" />
      <path
         inkscape:connector-curvature="0"
         id="path70-1"
         d="m -9780.7664,7172.2821 c -444.8356,-232.523 -786.7626,-574.848 -896.3116,-897.797 -66.393,-203.457 -29.877,-555.471 82.992,-771.847 156.025,-306.801 169.303,-313.26 461.434,-177.622 594.2216,274.507 883.0326,775.077 786.7626,1369.302 -39.837,248.671 -142.746,565.16 -189.222,581.308 -16.598,3.229 -126.147,-41.984 -245.655,-103.344 z"
         style="fill:#000000;stroke:none" />
      <path
         inkscape:connector-curvature="0"
         id="path72-4"
         d="m -13917.077,7007.5781 c -9.959,-80.737 -13.278,-310.03 -6.639,-507.029 19.918,-439.21 96.271,-658.815 308.73,-888.108 192.54,-206.687 414.958,-303.572 753.565,-322.949 l 255.614,-12.918 39.836,138.868 c 59.754,209.917 49.795,597.455 -16.598,807.371 -126.148,384.309 -487.992,697.569 -985.942,852.585 -146.066,45.212 -278.852,80.737 -295.451,80.737 -16.598,0 -39.836,-67.82 -53.115,-148.557 z"
         style="fill:#000000;stroke:none" />
      <path
         inkscape:connector-curvature="0"
         id="path124-3"
         d="m -9100.2344,3109.5891 c -345.246,-113.032 -600.86,-342.325 -766.844,-684.651 -172.6226,-352.013 -169.3026,-368.161 99.59,-500.57 544.426,-264.818 1062.295,-122.72 1467.295,397.227 126.148,161.474 378.443,613.602 378.443,678.192 0,9.688 -69.714,41.983 -156.025,71.049 -212.459,74.278 -839.877,96.884 -1022.459,38.753 z"
         style="fill:#000000;stroke:none" />
      <path
         inkscape:connector-curvature="0"
         id="path146-4"
         d="m -8984.0454,1436.7161 c -225.738,-41.983 -537.787,-206.687 -727.008,-377.8499 -92.951,-83.96602 -169.304,-167.93302 -169.304,-187.31002 0,-16.147 69.714,-113.032 152.705,-216.376 451.476,-561.929998 1082.213,-574.847898 1849.057,-45.212 308.73,216.375 318.689,232.5229 202.5,348.784 -341.926,352.01392 -902.95,558.70092 -1307.95,477.96392 z"
         style="fill:#000000;stroke:none" />
      <path
         inkscape:connector-curvature="0"
         id="path60-1"
         d="m -11755.459,8090.6984 c -600.86,-787.995 -580.942,-1427.432 56.435,-1892.479 l 179.262,-129.178 182.582,187.309 c 229.057,238.983 351.885,458.587 391.721,704.028 66.394,403.686 -79.672,823.519 -418.278,1178.762 l -195.861,206.687 -195.861,-255.129 z"
         style="fill:#000000;stroke:none" />
      <path
         inkscape:connector-curvature="0"
         id="path70-3"
         d="m -9776.9337,7154.1474 c -444.8363,-232.522 -786.7633,-574.848 -896.3123,-897.797 -66.393,-203.456 -29.877,-555.47 82.992,-771.846 156.025,-306.801 169.303,-313.26 461.434,-177.622 594.2223,274.506 883.0333,775.077 786.7633,1369.301 -39.837,248.671 -142.746,565.16 -189.222,581.308 -16.598,3.229 -126.147,-41.984 -245.655,-103.344 z"
         style="fill:#000000;stroke:none" />
      <path
         inkscape:connector-curvature="0"
         id="path82-3"
         d="m -7662.478,6402.1743 c -617.459,-119.491 -1049.016,-403.686 -1188.442,-781.536 -59.754,-155.015 -63.074,-532.865 -9.959,-716.945 l 43.156,-142.098 235.696,19.377 c 803.361,58.131 1248.197,532.865 1307.951,1388.679 l 19.918,280.965 -96.271,-3.23 c -53.114,0 -192.541,-22.606 -312.049,-45.212 z"
         style="fill:#000000;stroke:none" />
      <path
         inkscape:connector-curvature="0"
         id="path108-9"
         d="m -7662.478,4529.0723 c -331.967,-90.426 -673.893,-368.161 -836.557,-674.962 l -66.393,-122.721 112.868,-113.032 c 59.755,-61.359 192.541,-158.244 292.132,-213.145 169.303,-96.884 205.819,-103.343 481.352,-103.343 268.893,0 318.688,9.688 497.951,103.343 112.868,54.901 278.852,167.933 375.123,251.9 185.901,161.474 471.393,503.799 471.393,561.93 0,41.984 -282.172,184.081 -527.828,264.818 -255.615,87.196 -577.623,103.343 -800.041,45.212 z"
         style="fill:#000000;stroke:none" />
      <path
         inkscape:connector-curvature="0"
         id="path124-9"
         d="m -9106.535,3114.5583 c -345.246,-113.032 -600.86,-342.325 -766.844,-684.651 -172.623,-352.013 -169.303,-368.161 99.59,-500.57 544.426,-264.818 1062.295,-122.72 1467.295,397.227 126.148,161.474 378.443,613.602 378.443,678.192 0,9.688 -69.714,41.983 -156.025,71.049 -212.459,74.278 -839.877,96.884 -1022.459,38.753 z"
         style="fill:#000000;stroke:none" />
      <path
         inkscape:connector-curvature="0"
         id="path146-40"
         d="m -8990.346,1441.6853 c -225.738,-41.983 -537.787,-206.687 -727.008,-377.85 -92.951,-83.96601 -169.304,-167.93301 -169.304,-187.31001 0,-16.147 69.714,-113.032 152.705,-216.376 451.476,-561.93 1082.213,-574.848 1849.057,-45.212 308.73,216.375 318.689,232.523 202.5,348.784 -341.926,352.01401 -902.95,558.70101 -1307.95,477.96401 z"
         style="fill:#000000;stroke:none" />
      <path
         inkscape:connector-curvature="0"
         id="path134-7"
         d="m -7094.6254,2520.5947 c -222.418,-54.9009 -438.197,-184.0809 -650.656,-393.9969 -126.147,-119.491 -225.738,-232.523 -225.738,-255.13 0,-19.377 76.353,-116.261 169.304,-213.146 521.188,-536.094 1208.36,-468.275 1912.13,190.54 116.189,106.573 209.14,203.458 209.14,216.376 0,38.753 -341.926,251.899 -574.303,355.243 -175.943,80.737 -278.853,106.5729 -481.353,116.2609 -139.426,6.459 -302.09,0 -358.524,-16.147 z"
         style="fill:#000000;stroke:none" />
      <path
         inkscape:connector-curvature="0"
         id="path146-44"
         d="m -8933.7234,1416.1108 c -225.7384,-41.983 -537.7874,-206.687 -727.0084,-377.85 -92.951,-83.96603 -169.304,-167.93303 -169.304,-187.31003 0,-16.147 69.714,-113.032 152.705,-216.376 451.476,-561.929996 1082.2134,-574.847796 1849.0574,-45.212 308.73,216.375 318.689,232.5231 202.5,348.784 -341.926,352.01403 -902.95,558.70103 -1307.95,477.96403 z"
         style="fill:#000000;stroke:none" />
    </g>
  </g>
</svg>
