<?xml version="1.0" encoding="UTF-8" standalone="no"?>
<!-- Created with Inkscape (http://www.inkscape.org/) -->

<svg
   xmlns:dc="http://purl.org/dc/elements/1.1/"
   xmlns:cc="http://creativecommons.org/ns#"
   xmlns:rdf="http://www.w3.org/1999/02/22-rdf-syntax-ns#"
   xmlns:svg="http://www.w3.org/2000/svg"
   xmlns="http://www.w3.org/2000/svg"
   xmlns:xlink="http://www.w3.org/1999/xlink"
   xmlns:sodipodi="http://sodipodi.sourceforge.net/DTD/sodipodi-0.dtd"
   xmlns:inkscape="http://www.inkscape.org/namespaces/inkscape"
   width="210mm"
   height="297mm"
   viewBox="0 0 744.09448819 1052.3622047"
   id="svg4394"
   version="1.1"
   inkscape:version="0.91 r13725"
   sodipodi:docname="pencil.svg">
  <defs
     id="defs4396" />
  <sodipodi:namedview
     id="base"
     pagecolor="#ffffff"
     bordercolor="#666666"
     borderopacity="1.0"
     inkscape:pageopacity="0.0"
     inkscape:pageshadow="2"
     inkscape:zoom="0.7092355"
     inkscape:cx="6.688074"
     inkscape:cy="669.25404"
     inkscape:document-units="px"
     inkscape:current-layer="g5483"
     showgrid="false"
     inkscape:window-width="1600"
     inkscape:window-height="837"
     inkscape:window-x="-8"
     inkscape:window-y="-8"
     inkscape:window-maximized="1" />
  <metadata
     id="metadata4399">
    <rdf:RDF>
      <cc:Work
         rdf:about="">
        <dc:format>image/svg+xml</dc:format>
        <dc:type
           rdf:resource="http://purl.org/dc/dcmitype/StillImage" />
        <dc:title></dc:title>
      </cc:Work>
    </rdf:RDF>
  </metadata>
  <g
     inkscape:label="Layer 1"
     inkscape:groupmode="layer"
     id="layer1">
    <g
       id="g4272"
       transform="matrix(1.011209,0,0,1.2914846,56.254586,592.95673)">
      <g
         id="g5483"
         transform="translate(200.60852,-245.56457)">
        <path
           inkscape:connector-curvature="0"
           id="path10"
           d="m 150.15452,42.72296 c -0.49948,-0.0096 -1.02895,0.24503 -1.54806,0.80647 -0.51422,0.4271 -7.57618,10.63624 -15.71315,22.50148 l -14.81801,21.61666 -6.88564,21.49121 c -3.81134,11.74647 -15.200823,47.40236 -25.11595,79.0526 -9.915149,31.65023 -21.158305,66.65987 -24.821458,77.76215 -3.66317,11.1023 -9.72254,30.20396 -13.227138,42.42519 -5.737753,20.12084 -6.270528,22.44071 -4.693797,25.23046 4.146335,7.29084 18.238999,12.32915 26.632369,9.59606 6.148321,-2.01481 0.907916,12.93465 47.140484,-133.19473 7.15144,-22.64992 17.71413,-55.91608 23.403,-74.01613 5.82077,-18.07062 10.86432,-35.77359 11.29851,-39.46927 0.97059,-7.23309 1.54737,-45.30016 0.76786,-50.35012 -0.36778,-2.13067 -1.32018,-3.43102 -2.41902,-3.45203 z m -6.83501,22.81185 c 0.15709,0.01879 0.31813,0.04734 0.483,0.08413 1.58266,0.353 2.72364,1.42144 2.54581,2.19446 -0.20747,0.90185 -0.32535,6.83484 -0.36979,13.05549 l 0.0173,11.38073 -9.15659,-2.98996 c -5.02506,-1.66262 -9.25945,-3.14804 -9.46395,-3.46453 -0.23415,-0.18767 2.69528,-5.08801 6.4622,-10.61381 5.49033,-8.04506 7.12564,-9.92754 9.48203,-9.64651 z m -20.61105,27.88743 6.72704,1.49995 c 3.82476,0.85309 8.87888,2.38625 11.29582,3.33168 l 4.57071,1.83396 -3.75304,11.48721 c -4.96424,15.55275 -32.31516,102.50396 -42.569638,135.02663 -4.535983,14.2938 -8.595868,26.5276 -8.875942,27.14238 -0.692036,1.2001 -21.323531,-4.35003 -22.346034,-5.93259 -0.204501,-0.3165 5.071597,-17.83106 11.897045,-39.06376 6.693557,-21.26213 17.983615,-57.07623 25.135049,-79.72615 7.01959,-22.67934 13.96328,-44.42716 15.43921,-48.43225 l 2.47978,-7.16706 z m -57.094756,181.9026 10.504091,3.15592 c 5.684525,1.80971 10.547309,3.57039 10.751811,3.88689 0.715748,1.10778 -8.225469,30.94365 -9.665864,32.38318 -0.866899,0.75476 -4.752704,0.16004 -11.990232,-2.1315 L 54.444854,309.40408 58.3781,295.92416 c 2.246497,-7.35486 4.714956,-15.06626 5.716704,-17.00996 l 1.5189,-3.58936 z m -12.019578,40.79789 6.547912,2.27319 c 3.60394,1.21019 8.131432,2.62609 10.241646,3.09677 3.429054,0.76484 3.501176,1.05107 2.137872,6.97755 -0.770578,3.34975 -2.229342,6.68206 -3.360029,7.378 -2.422851,1.4913 -13.531484,-0.85166 -17.541471,-3.91323 -3.205315,-2.34031 -3.23193,-3.42928 0.05634,-11.09357 l 1.917732,-4.71871 z"
           style="fill:#2481c9;fill-opacity:1;fill-rule:evenodd;stroke:#f80000;stroke-width:0.04304821;stroke-opacity:1" />
        <path
           style="opacity:0;fill:#c87137;fill-opacity:0.66860465;fill-rule:evenodd;stroke:#000000;stroke-width:0.33086276;stroke-opacity:1"
           d="m 154.07959,346.59554 c -8.42475,-1.41998 -24.8147,-6.36613 -24.8147,-7.48857 0,-1.31674 4.54495,-15.96358 30.20652,-97.34545 9.92687,-31.48159 20.43429,-64.83256 23.34982,-74.11326 7.652,-24.35777 14.54409,-45.42362 15.06932,-46.0597 0.13713,-0.16606 11.96209,2.67374 15.57891,3.74133 2.1837,0.64456 5.85623,1.91285 8.16118,2.81842 l 4.19082,1.64648 -1.31118,3.87248 c -1.97304,5.82722 -7.58708,23.56048 -34.7159,109.65819 -13.63102,43.26023 -26.61713,84.20449 -28.85803,90.98726 l -4.07438,12.33229 -0.97761,0.045 c -0.53768,0.0247 -1.34983,-0.0178 -1.80477,-0.0944 z"
           id="path4165"
           inkscape:connector-curvature="0"
           transform="scale(0.8,0.8)" />
        <path
           style="opacity:0;fill:#c87137;fill-opacity:0.66860465;fill-rule:evenodd;stroke:#000000;stroke-width:0.33086276;stroke-opacity:1"
           d="m 151.13492,346.00589 c -8.08179,-1.69054 -20.50433,-5.46264 -21.51919,-6.53429 -0.33181,-0.35039 -0.25417,-0.99089 0.39383,-3.24876 1.51818,-5.28993 6.7632,-22.50327 9.2517,-30.3627 6.7693,-21.37939 35.66337,-113.07169 39.33073,-124.81194 9.51332,-30.45473 18.7107,-58.68336 19.3107,-59.26839 0.28371,-0.27664 10.41024,2.03219 15.43443,3.51902 3.86367,1.1434 11.65693,3.99193 12.16288,4.44567 0.13851,0.12422 -0.0551,1.11008 -0.43033,2.1908 -1.47138,4.2383 -11.17081,34.87058 -33.88494,107.01388 -13.03444,41.39921 -24.35217,77.28127 -25.15052,79.73793 -0.79835,2.45666 -3.18892,9.7894 -5.31238,16.29499 l -3.86084,11.82834 -1.04329,-0.0216 c -0.57381,-0.0119 -2.68106,-0.36421 -4.68278,-0.78293 z"
           id="path4167"
           inkscape:connector-curvature="0"
           transform="scale(0.8,0.8)" />
        <path
           style="opacity:0;fill:#c87137;fill-opacity:0.66860465;fill-rule:evenodd;stroke:#000000;stroke-width:0.33086276;stroke-opacity:1"
           d="m 151.13492,346.00589 c -8.08179,-1.69054 -20.50433,-5.46264 -21.51919,-6.53429 -0.33181,-0.35039 -0.25417,-0.99089 0.39383,-3.24876 1.51818,-5.28993 6.7632,-22.50327 9.2517,-30.3627 6.7693,-21.37939 35.66337,-113.07169 39.33073,-124.81194 9.51332,-30.45473 18.7107,-58.68336 19.3107,-59.26839 0.28371,-0.27664 10.41024,2.03219 15.43443,3.51902 3.86367,1.1434 11.65693,3.99193 12.16288,4.44567 0.13851,0.12422 -0.0551,1.11008 -0.43033,2.1908 -1.47138,4.2383 -11.17081,34.87058 -33.88494,107.01388 -13.03444,41.39921 -24.35217,77.28127 -25.15052,79.73793 -0.79835,2.45666 -3.18892,9.7894 -5.31238,16.29499 l -3.86084,11.82834 -1.04329,-0.0216 c -0.57381,-0.0119 -2.68106,-0.36421 -4.68278,-0.78293 z"
           id="path4169"
           inkscape:connector-curvature="0"
           transform="scale(0.8,0.8)" />
        <path
           style="opacity:0;fill:#c87137;fill-opacity:0.66860465;fill-rule:evenodd;stroke:#000000;stroke-width:0.33086276;stroke-opacity:1"
           d="m 151.13492,346.00589 c -8.08179,-1.69054 -20.50433,-5.46264 -21.51919,-6.53429 -0.33181,-0.35039 -0.25417,-0.99089 0.39383,-3.24876 1.51818,-5.28993 6.7632,-22.50327 9.2517,-30.3627 6.7693,-21.37939 35.66337,-113.07169 39.33073,-124.81194 9.51332,-30.45473 18.7107,-58.68336 19.3107,-59.26839 0.28371,-0.27664 10.41024,2.03219 15.43443,3.51902 3.86367,1.1434 11.65693,3.99193 12.16288,4.44567 0.13851,0.12422 -0.0551,1.11008 -0.43033,2.1908 -1.47138,4.2383 -11.17081,34.87058 -33.88494,107.01388 -13.03444,41.39921 -24.35217,77.28127 -25.15052,79.73793 -0.79835,2.45666 -3.18892,9.7894 -5.31238,16.29499 l -3.86084,11.82834 -1.04329,-0.0216 c -0.57381,-0.0119 -2.68106,-0.36421 -4.68278,-0.78293 z"
           id="path4171"
           inkscape:connector-curvature="0"
           transform="scale(0.8,0.8)" />
        <path
           style="opacity:0;fill:#c87137;fill-opacity:0.66860465;fill-rule:evenodd;stroke:#000000;stroke-width:0.33086276;stroke-opacity:1"
           d="m 151.13492,346.00589 c -8.08179,-1.69054 -20.50433,-5.46264 -21.51919,-6.53429 -0.33181,-0.35039 -0.25417,-0.99089 0.39383,-3.24876 1.51818,-5.28993 6.7632,-22.50327 9.2517,-30.3627 6.7693,-21.37939 35.66337,-113.07169 39.33073,-124.81194 9.51332,-30.45473 18.7107,-58.68336 19.3107,-59.26839 0.28371,-0.27664 10.41024,2.03219 15.43443,3.51902 3.86367,1.1434 11.65693,3.99193 12.16288,4.44567 0.13851,0.12422 -0.0551,1.11008 -0.43033,2.1908 -1.47138,4.2383 -11.17081,34.87058 -33.88494,107.01388 -13.03444,41.39921 -24.35217,77.28127 -25.15052,79.73793 -0.79835,2.45666 -3.18892,9.7894 -5.31238,16.29499 l -3.86084,11.82834 -1.04329,-0.0216 c -0.57381,-0.0119 -2.68106,-0.36421 -4.68278,-0.78293 z"
           id="path4173"
           inkscape:connector-curvature="0"
           transform="scale(0.8,0.8)" />
        <path
           style="opacity:0;fill:#dd8b37;fill-opacity:0.66860465;fill-rule:evenodd;stroke:#000000;stroke-width:0.33086276;stroke-opacity:1"
           d="m 151.13492,346.00589 c -8.08179,-1.69054 -20.50433,-5.46264 -21.51919,-6.53429 -0.33181,-0.35039 -0.25417,-0.99089 0.39383,-3.24876 1.51818,-5.28993 6.7632,-22.50327 9.2517,-30.3627 6.7693,-21.37939 35.66337,-113.07169 39.33073,-124.81194 9.51332,-30.45473 18.7107,-58.68336 19.3107,-59.26839 0.28371,-0.27664 10.41024,2.03219 15.43443,3.51902 3.86367,1.1434 11.65693,3.99193 12.16288,4.44567 0.13851,0.12422 -0.0551,1.11008 -0.43033,2.1908 -1.47138,4.2383 -11.17081,34.87058 -33.88494,107.01388 -13.03444,41.39921 -24.35217,77.28127 -25.15052,79.73793 -0.79835,2.45666 -3.18892,9.7894 -5.31238,16.29499 l -3.86084,11.82834 -1.04329,-0.0216 c -0.57381,-0.0119 -2.68106,-0.36421 -4.68278,-0.78293 z"
           id="path4175"
           inkscape:connector-curvature="0"
           transform="scale(0.8,0.8)" />
        <path
           style="opacity:0;fill:#dd8b37;fill-opacity:0.66860465;fill-rule:evenodd;stroke:#000000;stroke-width:0.33086276;stroke-opacity:1"
           d="m 151.13492,346.00589 c -8.08179,-1.69054 -20.50433,-5.46264 -21.51919,-6.53429 -0.33181,-0.35039 -0.25417,-0.99089 0.39383,-3.24876 1.51818,-5.28993 6.7632,-22.50327 9.2517,-30.3627 6.7693,-21.37939 35.66337,-113.07169 39.33073,-124.81194 9.51332,-30.45473 18.7107,-58.68336 19.3107,-59.26839 0.28371,-0.27664 10.41024,2.03219 15.43443,3.51902 3.86367,1.1434 11.65693,3.99193 12.16288,4.44567 0.13851,0.12422 -0.0551,1.11008 -0.43033,2.1908 -1.47138,4.2383 -11.17081,34.87058 -33.88494,107.01388 -13.03444,41.39921 -24.35217,77.28127 -25.15052,79.73793 -0.79835,2.45666 -3.18892,9.7894 -5.31238,16.29499 l -3.86084,11.82834 -1.04329,-0.0216 c -0.57381,-0.0119 -2.68106,-0.36421 -4.68278,-0.78293 z"
           id="path4185"
           inkscape:connector-curvature="0"
           transform="scale(0.8,0.8)" />
        <path
           style="opacity:0;fill:#dd8b37;fill-opacity:0.66860465;fill-rule:evenodd;stroke:#000000;stroke-width:0.33086276;stroke-opacity:1"
           d="m 151.13492,346.00589 c -8.08179,-1.69054 -20.50433,-5.46264 -21.51919,-6.53429 -0.33181,-0.35039 -0.25417,-0.99089 0.39383,-3.24876 1.51818,-5.28993 6.7632,-22.50327 9.2517,-30.3627 6.7693,-21.37939 35.66337,-113.07169 39.33073,-124.81194 9.51332,-30.45473 18.7107,-58.68336 19.3107,-59.26839 0.28371,-0.27664 10.41024,2.03219 15.43443,3.51902 3.86367,1.1434 11.65693,3.99193 12.16288,4.44567 0.13851,0.12422 -0.0551,1.11008 -0.43033,2.1908 -1.47138,4.2383 -11.17081,34.87058 -33.88494,107.01388 -13.03444,41.39921 -24.35217,77.28127 -25.15052,79.73793 -0.79835,2.45666 -3.18892,9.7894 -5.31238,16.29499 l -3.86084,11.82834 -1.04329,-0.0216 c -0.57381,-0.0119 -2.68106,-0.36421 -4.68278,-0.78293 z"
           id="path4187"
           inkscape:connector-curvature="0"
           transform="scale(0.8,0.8)" />
        <path
           style="opacity:0;fill:#dd8b37;fill-opacity:0.66860465;fill-rule:evenodd;stroke:#000000;stroke-width:0.33086276;stroke-opacity:1"
           d="m 151.13492,346.00589 c -8.08179,-1.69054 -20.50433,-5.46264 -21.51919,-6.53429 -0.33181,-0.35039 -0.25417,-0.99089 0.39383,-3.24876 1.51818,-5.28993 6.7632,-22.50327 9.2517,-30.3627 6.7693,-21.37939 35.66337,-113.07169 39.33073,-124.81194 9.51332,-30.45473 18.7107,-58.68336 19.3107,-59.26839 0.28371,-0.27664 10.41024,2.03219 15.43443,3.51902 3.86367,1.1434 11.65693,3.99193 12.16288,4.44567 0.13851,0.12422 -0.0551,1.11008 -0.43033,2.1908 -1.47138,4.2383 -11.17081,34.87058 -33.88494,107.01388 -13.03444,41.39921 -24.35217,77.28127 -25.15052,79.73793 -0.79835,2.45666 -3.18892,9.7894 -5.31238,16.29499 l -3.86084,11.82834 -1.04329,-0.0216 c -0.57381,-0.0119 -2.68106,-0.36421 -4.68278,-0.78293 z"
           id="path4189"
           inkscape:connector-curvature="0"
           transform="scale(0.8,0.8)" />
        <path
           style="opacity:0;fill:#dd8b37;fill-opacity:0.66860465;fill-rule:evenodd;stroke:#000000;stroke-width:0.33086276;stroke-opacity:1"
           d="m 132.27574,396.93345 c -2.36567,-0.62493 -7.72565,-2.17 -11.91106,-3.43348 -6.22356,-1.87875 -7.59103,-2.39763 -7.50656,-2.84829 0.24529,-1.30864 6.21001,-21.25589 8.04406,-26.90101 2.29888,-7.0758 5.15609,-14.27706 5.75599,-14.50726 0.74714,-0.28671 22.71367,6.64975 25.30936,7.99203 1.14702,0.59315 1.17755,0.26565 -0.72469,7.77246 -2.39219,9.4403 -8.63689,29.3769 -10.07854,32.1764 -0.43637,0.84738 -0.61,0.90903 -2.52795,0.89763 -1.25459,-0.007 -3.7403,-0.45628 -6.36061,-1.14848 z"
           id="path4191"
           inkscape:connector-curvature="0"
           transform="scale(0.8,0.8)" />
        <path
           style="opacity:0;fill:#dd8b37;fill-opacity:0.66860465;fill-rule:evenodd;stroke:#000000;stroke-width:0.33086276;stroke-opacity:1"
           d="m 151.13492,346.00589 c -8.08179,-1.69054 -20.50433,-5.46264 -21.51919,-6.53429 -0.33181,-0.35039 -0.25417,-0.99089 0.39383,-3.24876 1.51818,-5.28993 6.7632,-22.50327 9.2517,-30.3627 6.7693,-21.37939 35.66337,-113.07169 39.33073,-124.81194 9.51332,-30.45473 18.7107,-58.68336 19.3107,-59.26839 0.28371,-0.27664 10.41024,2.03219 15.43443,3.51902 3.86367,1.1434 11.65693,3.99193 12.16288,4.44567 0.13851,0.12422 -0.0551,1.11008 -0.43033,2.1908 -1.47138,4.2383 -11.17081,34.87058 -33.88494,107.01388 -13.03444,41.39921 -24.35217,77.28127 -25.15052,79.73793 -0.79835,2.45666 -3.18892,9.7894 -5.31238,16.29499 l -3.86084,11.82834 -1.04329,-0.0216 c -0.57381,-0.0119 -2.68106,-0.36421 -4.68278,-0.78293 z"
           id="path4193"
           inkscape:connector-curvature="0"
           transform="scale(0.8,0.8)" />
        <path
           style="opacity:0;fill:#dd8b37;fill-opacity:0.66860465;fill-rule:evenodd;stroke:#000000;stroke-width:0.33086276;stroke-opacity:1"
           d="m 151.13492,346.00589 c -8.08179,-1.69054 -20.50433,-5.46264 -21.51919,-6.53429 -0.33181,-0.35039 -0.25417,-0.99089 0.39383,-3.24876 1.51818,-5.28993 6.7632,-22.50327 9.2517,-30.3627 6.7693,-21.37939 35.66337,-113.07169 39.33073,-124.81194 9.51332,-30.45473 18.7107,-58.68336 19.3107,-59.26839 0.28371,-0.27664 10.41024,2.03219 15.43443,3.51902 3.86367,1.1434 11.65693,3.99193 12.16288,4.44567 0.13851,0.12422 -0.0551,1.11008 -0.43033,2.1908 -1.47138,4.2383 -11.17081,34.87058 -33.88494,107.01388 -13.03444,41.39921 -24.35217,77.28127 -25.15052,79.73793 -0.79835,2.45666 -3.18892,9.7894 -5.31238,16.29499 l -3.86084,11.82834 -1.04329,-0.0216 c -0.57381,-0.0119 -2.68106,-0.36421 -4.68278,-0.78293 z"
           id="path4195"
           inkscape:connector-curvature="0"
           transform="scale(0.8,0.8)" />
        <path
           style="opacity:0;fill:#dd8b37;fill-opacity:0.66860465;fill-rule:evenodd;stroke:#000000;stroke-width:0.33086276;stroke-opacity:1"
           d="m 151.13492,346.00589 c -8.08179,-1.69054 -20.50433,-5.46264 -21.51919,-6.53429 -0.33181,-0.35039 -0.25417,-0.99089 0.39383,-3.24876 1.51818,-5.28993 6.7632,-22.50327 9.2517,-30.3627 6.7693,-21.37939 35.66337,-113.07169 39.33073,-124.81194 9.51332,-30.45473 18.7107,-58.68336 19.3107,-59.26839 0.28371,-0.27664 10.41024,2.03219 15.43443,3.51902 3.86367,1.1434 11.65693,3.99193 12.16288,4.44567 0.13851,0.12422 -0.0551,1.11008 -0.43033,2.1908 -1.47138,4.2383 -11.17081,34.87058 -33.88494,107.01388 -13.03444,41.39921 -24.35217,77.28127 -25.15052,79.73793 -0.79835,2.45666 -3.18892,9.7894 -5.31238,16.29499 l -3.86084,11.82834 -1.04329,-0.0216 c -0.57381,-0.0119 -2.68106,-0.36421 -4.68278,-0.78293 z"
           id="path4197"
           inkscape:connector-curvature="0"
           transform="scale(0.8,0.8)" />
        <path
           style="opacity:0;fill:#dd8b37;fill-opacity:0.66860465;fill-rule:evenodd;stroke:#000000;stroke-width:0.33086276;stroke-opacity:1"
           d="m 151.13492,346.00589 c -8.08179,-1.69054 -20.50433,-5.46264 -21.51919,-6.53429 -0.33181,-0.35039 -0.25417,-0.99089 0.39383,-3.24876 1.51818,-5.28993 6.7632,-22.50327 9.2517,-30.3627 6.7693,-21.37939 35.66337,-113.07169 39.33073,-124.81194 9.51332,-30.45473 18.7107,-58.68336 19.3107,-59.26839 0.28371,-0.27664 10.41024,2.03219 15.43443,3.51902 3.86367,1.1434 11.65693,3.99193 12.16288,4.44567 0.13851,0.12422 -0.0551,1.11008 -0.43033,2.1908 -1.47138,4.2383 -11.17081,34.87058 -33.88494,107.01388 -13.03444,41.39921 -24.35217,77.28127 -25.15052,79.73793 -0.79835,2.45666 -3.18892,9.7894 -5.31238,16.29499 l -3.86084,11.82834 -1.04329,-0.0216 c -0.57381,-0.0119 -2.68106,-0.36421 -4.68278,-0.78293 z"
           id="path4199"
           inkscape:connector-curvature="0"
           transform="scale(0.8,0.8)" />
        <path
           style="opacity:0;fill:#dd8b37;fill-opacity:0.66860465;fill-rule:evenodd;stroke:#000000;stroke-width:0.33086276;stroke-opacity:1"
           d="m 151.13492,346.00589 c -8.08179,-1.69054 -20.50433,-5.46264 -21.51919,-6.53429 -0.33181,-0.35039 -0.25417,-0.99089 0.39383,-3.24876 1.51818,-5.28993 6.7632,-22.50327 9.2517,-30.3627 6.7693,-21.37939 35.66337,-113.07169 39.33073,-124.81194 9.51332,-30.45473 18.7107,-58.68336 19.3107,-59.26839 0.28371,-0.27664 10.41024,2.03219 15.43443,3.51902 3.86367,1.1434 11.65693,3.99193 12.16288,4.44567 0.13851,0.12422 -0.0551,1.11008 -0.43033,2.1908 -1.47138,4.2383 -11.17081,34.87058 -33.88494,107.01388 -13.03444,41.39921 -24.35217,77.28127 -25.15052,79.73793 -0.79835,2.45666 -3.18892,9.7894 -5.31238,16.29499 l -3.86084,11.82834 -1.04329,-0.0216 c -0.57381,-0.0119 -2.68106,-0.36421 -4.68278,-0.78293 z"
           id="path4201"
           inkscape:connector-curvature="0"
           transform="scale(0.8,0.8)" />
        <path
           style="opacity:0;fill:#a365f2;fill-opacity:1;fill-rule:evenodd;stroke:#000000;stroke-width:0.33086276;stroke-opacity:1"
           d="m 151.13492,346.00589 c -8.08179,-1.69054 -20.50433,-5.46264 -21.51919,-6.53429 -0.33181,-0.35039 -0.25417,-0.99089 0.39383,-3.24876 1.51818,-5.28993 6.7632,-22.50327 9.2517,-30.3627 6.7693,-21.37939 35.66337,-113.07169 39.33073,-124.81194 9.51332,-30.45473 18.7107,-58.68336 19.3107,-59.26839 0.28371,-0.27664 10.41024,2.03219 15.43443,3.51902 3.86367,1.1434 11.65693,3.99193 12.16288,4.44567 0.13851,0.12422 -0.0551,1.11008 -0.43033,2.1908 -1.47138,4.2383 -11.17081,34.87058 -33.88494,107.01388 -13.03444,41.39921 -24.35217,77.28127 -25.15052,79.73793 -0.79835,2.45666 -3.18892,9.7894 -5.31238,16.29499 l -3.86084,11.82834 -1.04329,-0.0216 c -0.57381,-0.0119 -2.68106,-0.36421 -4.68278,-0.78293 z"
           id="path4203"
           inkscape:connector-curvature="0"
           transform="scale(0.8,0.8)" />
        <path
           style="opacity:0;fill:#7165f2;fill-opacity:1;fill-rule:evenodd;stroke:#000000;stroke-width:0.33086276;stroke-opacity:1"
           d="m 132.27574,396.93345 c -2.36567,-0.62493 -7.72565,-2.17 -11.91106,-3.43348 -6.22356,-1.87875 -7.59103,-2.39763 -7.50656,-2.84829 0.24529,-1.30864 6.21001,-21.25589 8.04406,-26.90101 2.29888,-7.0758 5.15609,-14.27706 5.75599,-14.50726 0.74714,-0.28671 22.71367,6.64975 25.30936,7.99203 1.14702,0.59315 1.17755,0.26565 -0.72469,7.77246 -2.39219,9.4403 -8.63689,29.3769 -10.07854,32.1764 -0.43637,0.84738 -0.61,0.90903 -2.52795,0.89763 -1.25459,-0.007 -3.7403,-0.45628 -6.36061,-1.14848 z"
           id="path4205"
           inkscape:connector-curvature="0"
           transform="scale(0.8,0.8)" />
        <use
           id="use4207"
           xlink:href="#path4205"
           x="0"
           y="0"
           width="100%"
           height="100%"
           transform="translate(6.733484,0.69225387)" />
        <use
           id="use4209"
           xlink:href="#path4205"
           x="0"
           y="0"
           width="100%"
           height="100%"
           transform="translate(9.2499415,-0.15635572)" />
        <use
           id="use4211"
           xlink:href="#path4205"
           x="0"
           y="0"
           width="100%"
           height="100%"
           transform="translate(2.0122724,1.5565996)" />
        <use
           id="use4213"
           xlink:href="#path4205"
           x="0"
           y="0"
           width="100%"
           height="100%"
           transform="translate(-1.3455654,5.4316315)" />
        <use
           id="use4215"
           xlink:href="#path4205"
           x="0"
           y="0"
           width="100%"
           height="100%"
           transform="translate(-6.0168424,-8.0512857)" />
        <use
           id="use4217"
           xlink:href="#path4205"
           x="0"
           y="0"
           width="100%"
           height="100%"
           transform="translate(-13.322444,1.315673)" />
        <use
           id="use4219"
           xlink:href="#path4205"
           x="0"
           y="0"
           width="100%"
           height="100%"
           transform="translate(-7.0691975,7.7669643)" />
        <use
           id="use4221"
           xlink:href="#path4205"
           x="0"
           y="0"
           width="100%"
           height="100%"
           transform="translate(-1.7769202,-6.0587551)" />
        <use
           id="use4223"
           xlink:href="#path4205"
           x="0"
           y="0"
           width="100%"
           height="100%"
           transform="translate(-10.274878,-1.7419961)" />
        <use
           id="use4225"
           xlink:href="#path4205"
           x="0"
           y="0"
           width="100%"
           height="100%"
           transform="translate(-10.856112,5.4276598)" />
        <use
           id="use4227"
           xlink:href="#path4205"
           x="0"
           y="0"
           width="100%"
           height="100%"
           transform="translate(-5.4390242,1.1311613)" />
        <use
           id="use4229"
           xlink:href="#path4205"
           x="0"
           y="0"
           width="100%"
           height="100%"
           transform="translate(-19.612126,-4.6846217)" />
        <use
           id="use4231"
           xlink:href="#path4205"
           x="0"
           y="0"
           width="100%"
           height="100%"
           transform="translate(-18.625929,-2.3804395)" />
        <use
           id="use4233"
           xlink:href="#path4205"
           x="0"
           y="0"
           width="100%"
           height="100%"
           transform="translate(-20.52198,10.637701)" />
        <use
           id="use4235"
           xlink:href="#path4205"
           x="0"
           y="0"
           width="100%"
           height="100%"
           transform="translate(-19.566074,3.9161985)" />
        <use
           id="use4237"
           xlink:href="#path4205"
           x="0"
           y="0"
           width="100%"
           height="100%"
           transform="translate(-11.616501,3.7984832)" />
        <use
           id="use4239"
           xlink:href="#path4205"
           x="0"
           y="0"
           width="100%"
           height="100%"
           transform="translate(-15.271725,15.730921)" />
        <use
           id="use4241"
           xlink:href="#path4205"
           x="0"
           y="0"
           width="100%"
           height="100%"
           transform="translate(-1.9888752,10.992523)" />
        <use
           id="use4243"
           xlink:href="#path4205"
           x="0"
           y="0"
           width="100%"
           height="100%"
           transform="translate(-15.580796,11.134148)" />
        <use
           id="use4245"
           xlink:href="#path4205"
           x="0"
           y="0"
           width="100%"
           height="100%"
           transform="translate(-1.1382879,18.808422)" />
        <use
           id="use4247"
           xlink:href="#path4205"
           x="0"
           y="0"
           width="100%"
           height="100%"
           transform="translate(3.4135203,2.1057886)" />
        <use
           id="use4249"
           xlink:href="#path4205"
           x="0"
           y="0"
           width="100%"
           height="100%"
           transform="translate(5.6557979,15.284679)" />
        <use
           id="use4251"
           xlink:href="#path4205"
           x="0"
           y="0"
           width="100%"
           height="100%"
           transform="translate(0.44320279,16.087586)" />
        <use
           id="use4253"
           xlink:href="#path4205"
           x="0"
           y="0"
           width="100%"
           height="100%"
           transform="translate(5.0148732,17.00786)" />
        <use
           id="use4255"
           xlink:href="#path4205"
           x="0"
           y="0"
           width="100%"
           height="100%"
           transform="translate(7.1194342,-0.65634615)" />
        <use
           id="use4257"
           xlink:href="#path4205"
           x="0"
           y="0"
           width="100%"
           height="100%"
           transform="translate(8.0067096,1.0406354)" />
        <use
           id="use4259"
           xlink:href="#path4205"
           x="0"
           y="0"
           width="100%"
           height="100%"
           transform="translate(-0.60726942,12.743488)" />
        <use
           id="use4261"
           xlink:href="#path4205"
           x="0"
           y="0"
           width="100%"
           height="100%"
           transform="translate(5.9566941,14.901887)" />
        <use
           id="use4263"
           xlink:href="#path4205"
           x="0"
           y="0"
           width="100%"
           height="100%"
           transform="translate(3.973604,-3.293314)" />
        <use
           id="use4265"
           xlink:href="#path4205"
           x="0"
           y="0"
           width="100%"
           height="100%"
           transform="translate(-2.3033476,1.072599)" />
        <use
           id="use4267"
           xlink:href="#path4205"
           x="0"
           y="0"
           width="100%"
           height="100%"
           transform="translate(8.6817876,-0.00115592)" />
        <use
           id="use4269"
           xlink:href="#path4205"
           x="0"
           y="0"
           width="100%"
           height="100%"
           transform="translate(8.2472217,5.2588754)" />
        <use
           id="use4271"
           xlink:href="#path4205"
           x="0"
           y="0"
           width="100%"
           height="100%"
           transform="translate(0.66515233,7.4667516)" />
        <use
           id="use4273"
           xlink:href="#path4205"
           x="0"
           y="0"
           width="100%"
           height="100%"
           transform="translate(-6.0049758,5.746754)" />
        <use
           id="use4275"
           xlink:href="#path4205"
           x="0"
           y="0"
           width="100%"
           height="100%"
           transform="translate(6.5650719,1.4492509)" />
        <use
           id="use4277"
           xlink:href="#path4205"
           x="0"
           y="0"
           width="100%"
           height="100%"
           transform="translate(7.3706866,2.9760631)" />
        <use
           id="use4287"
           xlink:href="#path4205"
           x="0"
           y="0"
           width="100%"
           height="100%"
           transform="translate(8.3431996,-1.032311)" />
        <use
           id="use4289"
           xlink:href="#path4205"
           x="0"
           y="0"
           width="100%"
           height="100%"
           transform="translate(-7.7586133,3.9664217)" />
        <use
           id="use4291"
           xlink:href="#path4205"
           x="0"
           y="0"
           width="100%"
           height="100%"
           transform="translate(-1.1130963,-11.738403)" />
        <use
           id="use4293"
           xlink:href="#path4205"
           x="0"
           y="0"
           width="100%"
           height="100%"
           transform="translate(-6.9245916,-2.8196039)" />
        <use
           id="use4295"
           xlink:href="#path4205"
           x="0"
           y="0"
           width="100%"
           height="100%"
           transform="translate(2.4685575,2.5886202)" />
        <use
           id="use4297"
           xlink:href="#path4205"
           x="0"
           y="0"
           width="100%"
           height="100%"
           transform="translate(-9.3191755,-6.4793147)" />
        <use
           id="use4299"
           xlink:href="#path4205"
           x="0"
           y="0"
           width="100%"
           height="100%"
           transform="translate(5.8066237,7.43445)" />
        <use
           id="use4301"
           xlink:href="#path4205"
           x="0"
           y="0"
           width="100%"
           height="100%"
           transform="translate(7.2000032,1.0833798)" />
        <use
           id="use4303"
           xlink:href="#path4205"
           x="0"
           y="0"
           width="100%"
           height="100%"
           transform="translate(-6.325444,1.9394442)" />
        <use
           id="use4305"
           xlink:href="#path4205"
           x="0"
           y="0"
           width="100%"
           height="100%"
           transform="translate(-1.2345548,9.0508317)" />
        <use
           id="use4307"
           xlink:href="#path4205"
           x="0"
           y="0"
           width="100%"
           height="100%"
           transform="translate(5.1277254,1.3371753)" />
        <use
           id="use4309"
           xlink:href="#path4205"
           x="0"
           y="0"
           width="100%"
           height="100%"
           transform="translate(8.1417945,1.1571993)" />
        <use
           id="use4311"
           xlink:href="#path4205"
           x="0"
           y="0"
           width="100%"
           height="100%"
           transform="translate(14.39863,-1.5591942)" />
        <use
           id="use4313"
           xlink:href="#path4205"
           x="0"
           y="0"
           width="100%"
           height="100%"
           transform="translate(5.6072549,-6.5187088)" />
        <use
           id="use4315"
           xlink:href="#path4205"
           x="0"
           y="0"
           width="100%"
           height="100%"
           transform="translate(0.79171313,-3.3283291)" />
        <use
           id="use4317"
           xlink:href="#path4205"
           x="0"
           y="0"
           width="100%"
           height="100%"
           transform="translate(15.572491,-5.3710743)" />
        <use
           id="use4319"
           xlink:href="#path4205"
           x="0"
           y="0"
           width="100%"
           height="100%"
           transform="translate(4.9007301,4.9748765)" />
        <use
           id="use4321"
           xlink:href="#path4205"
           x="0"
           y="0"
           width="100%"
           height="100%"
           transform="translate(6.3912917,-9.466699)" />
        <use
           id="use4323"
           xlink:href="#path4205"
           x="0"
           y="0"
           width="100%"
           height="100%"
           transform="translate(10.691701,-1.6270203)" />
        <use
           id="use4325"
           xlink:href="#path4205"
           x="0"
           y="0"
           width="100%"
           height="100%"
           transform="translate(9.038708,-4.4954399)" />
        <use
           id="use4327"
           xlink:href="#path4205"
           x="0"
           y="0"
           width="100%"
           height="100%"
           transform="translate(0.77419989,7.9718404)" />
        <use
           id="use4329"
           xlink:href="#path4205"
           x="0"
           y="0"
           width="100%"
           height="100%"
           transform="translate(-9.5458677,2.5518397)" />
        <use
           id="use4331"
           xlink:href="#path4205"
           x="0"
           y="0"
           width="100%"
           height="100%"
           transform="translate(-13.74033,10.531786)" />
        <use
           id="use4333"
           xlink:href="#path4205"
           x="0"
           y="0"
           width="100%"
           height="100%"
           transform="translate(-8.7085857,15.802141)" />
        <use
           id="use4335"
           xlink:href="#path4205"
           x="0"
           y="0"
           width="100%"
           height="100%"
           transform="translate(-9.391266,1.444442)" />
        <use
           id="use4337"
           xlink:href="#path4205"
           x="0"
           y="0"
           width="100%"
           height="100%"
           transform="translate(-5.6757216,10.901555)" />
        <use
           id="use4339"
           xlink:href="#path4205"
           x="0"
           y="0"
           width="100%"
           height="100%"
           transform="translate(2.8941827,17.384172)" />
        <use
           id="use4341"
           xlink:href="#path4205"
           x="0"
           y="0"
           width="100%"
           height="100%"
           transform="translate(1.7705896,4.282318)" />
        <use
           id="use4343"
           xlink:href="#path4205"
           x="0"
           y="0"
           width="100%"
           height="100%"
           transform="translate(1.4071357,18.052857)" />
        <use
           id="use4345"
           xlink:href="#path4205"
           x="0"
           y="0"
           width="100%"
           height="100%"
           transform="translate(0.85117998,8.9752745)" />
        <use
           id="use4347"
           xlink:href="#path4205"
           x="0"
           y="0"
           width="100%"
           height="100%"
           transform="translate(-3.1657743,0.35611016)" />
        <use
           id="use4349"
           xlink:href="#path4205"
           x="0"
           y="0"
           width="100%"
           height="100%"
           transform="translate(4.714705,11.762103)" />
        <use
           id="use4351"
           xlink:href="#path4205"
           x="0"
           y="0"
           width="100%"
           height="100%"
           transform="translate(9.7025414,3.2248865)" />
        <use
           id="use4353"
           xlink:href="#path4205"
           x="0"
           y="0"
           width="100%"
           height="100%"
           transform="translate(-2.40075,0.21205472)" />
        <use
           id="use4355"
           xlink:href="#path4205"
           x="0"
           y="0"
           width="100%"
           height="100%"
           transform="translate(-7.1192728,2.2588184)" />
        <use
           id="use4357"
           xlink:href="#path4205"
           x="0"
           y="0"
           width="100%"
           height="100%"
           transform="translate(-0.45533232,-6.0512128)" />
        <use
           id="use4359"
           xlink:href="#path4205"
           x="0"
           y="0"
           width="100%"
           height="100%"
           transform="translate(-11.400105,-3.7944083)" />
        <use
           id="use4361"
           xlink:href="#path4205"
           x="0"
           y="0"
           width="100%"
           height="100%"
           transform="translate(-20.563163,12.813946)" />
        <use
           id="use4363"
           xlink:href="#path4205"
           x="0"
           y="0"
           width="100%"
           height="100%"
           transform="translate(-15.457995,19.403174)" />
        <use
           id="use4365"
           xlink:href="#path4205"
           x="0"
           y="0"
           width="100%"
           height="100%"
           transform="translate(-16.649409,17.231928)" />
        <use
           id="use4367"
           xlink:href="#path4205"
           x="0"
           y="0"
           width="100%"
           height="100%"
           transform="translate(-11.383534,26.420313)" />
        <use
           id="use4369"
           xlink:href="#path4205"
           x="0"
           y="0"
           width="100%"
           height="100%"
           transform="translate(-13.701896,21.14496)" />
        <use
           id="use4371"
           xlink:href="#path4205"
           x="0"
           y="0"
           width="100%"
           height="100%"
           transform="translate(-5.2965404,20.804058)" />
        <use
           id="use4373"
           xlink:href="#path4205"
           x="0"
           y="0"
           width="100%"
           height="100%"
           transform="translate(-1.7191036,11.508811)" />
        <use
           id="use4375"
           xlink:href="#path4205"
           x="0"
           y="0"
           width="100%"
           height="100%"
           transform="translate(0.63992676,10.147961)" />
        <use
           id="use4377"
           xlink:href="#path4205"
           x="0"
           y="0"
           width="100%"
           height="100%"
           transform="translate(11.679079,17.654052)" />
        <use
           id="use4379"
           xlink:href="#path4205"
           x="0"
           y="0"
           width="100%"
           height="100%"
           transform="translate(5.3475415,12.006033)" />
        <path
           inkscape:connector-curvature="0"
           id="path4381"
           d="m 108.71275,315.80942 c -1.89253,-0.49994 -6.18052,-1.736 -9.528845,-2.74678 -4.978848,-1.503 -6.072824,-1.91811 -6.005248,-2.27864 0.196232,-1.04691 4.968008,-17.00471 6.435248,-21.5208 1.839105,-5.66064 4.124875,-11.42165 4.604795,-11.60581 0.59771,-0.22937 18.17093,5.3198 20.24748,6.39362 0.91762,0.47452 0.94204,0.21252 -0.57975,6.21797 -1.91375,7.55224 -6.90951,23.50152 -8.06283,25.74112 -0.3491,0.6779 -0.488,0.72722 -2.02236,0.7181 -1.00367,-0.006 -2.99224,-0.36502 -5.08849,-0.91878 z"
           style="opacity:0;fill:#7165f2;fill-opacity:1;fill-rule:evenodd;stroke:#000000;stroke-width:0.26469022;stroke-opacity:1" />
        <path
           inkscape:connector-curvature="0"
           id="path4383"
           d="m 95.963894,314.33878 c -1.89253,-0.49994 -6.180518,-1.736 -9.528846,-2.74678 -4.978848,-1.503 -6.072824,-1.91811 -6.005248,-2.27864 0.196232,-1.04691 4.968008,-17.00471 6.435248,-21.5208 1.839104,-5.66064 4.124876,-11.42165 4.604796,-11.60581 0.59771,-0.22937 18.170926,5.3198 20.247476,6.39362 0.91762,0.47452 0.94204,0.21252 -0.57975,6.21797 -1.91375,7.55224 -6.90951,23.50152 -8.06283,25.74112 -0.3491,0.6779 -0.488,0.72722 -2.02236,0.7181 -1.00367,-0.006 -2.992236,-0.36502 -5.088486,-0.91878 z"
           style="opacity:0;fill:#7165f2;fill-opacity:1;fill-rule:evenodd;stroke:#000000;stroke-width:0.26469022;stroke-opacity:1" />
        <path
           inkscape:connector-curvature="0"
           id="path4385"
           d="m 107.89245,315.83174 c -1.89253,-0.49994 -6.18051,-1.736 -9.528841,-2.74678 -4.978848,-1.503 -6.072824,-1.91811 -6.005248,-2.27864 0.196232,-1.04691 4.968008,-17.00471 6.435248,-21.5208 1.839101,-5.66064 4.124871,-11.42165 4.604791,-11.60581 0.59771,-0.22937 18.17093,5.3198 20.24748,6.39362 0.91762,0.47452 0.94204,0.21252 -0.57975,6.21797 -1.91375,7.55224 -6.90951,23.50152 -8.06283,25.74112 -0.3491,0.6779 -0.488,0.72722 -2.02236,0.7181 -1.00367,-0.006 -2.99224,-0.36502 -5.08849,-0.91878 z"
           style="opacity:0;fill:#7165f2;fill-opacity:1;fill-rule:evenodd;stroke:#000000;stroke-width:0.26469022;stroke-opacity:1" />
        <path
           inkscape:connector-curvature="0"
           id="path4387"
           d="m 106.64126,315.39723 c -1.89253,-0.49994 -6.18052,-1.736 -9.528848,-2.74678 -4.978848,-1.503 -6.072824,-1.91811 -6.005248,-2.27864 0.196232,-1.04691 4.968008,-17.00471 6.435248,-21.5208 1.839104,-5.66064 4.124878,-11.42165 4.604798,-11.60581 0.59771,-0.22937 18.17093,5.3198 20.24748,6.39362 0.91762,0.47452 0.94204,0.21252 -0.57975,6.21797 -1.91375,7.55224 -6.90951,23.50152 -8.06283,25.74112 -0.3491,0.6779 -0.488,0.72722 -2.02236,0.7181 -1.00367,-0.006 -2.99224,-0.36502 -5.08849,-0.91878 z"
           style="opacity:0;fill:#7165f2;fill-opacity:1;fill-rule:evenodd;stroke:#000000;stroke-width:0.26469022;stroke-opacity:1" />
        <path
           inkscape:connector-curvature="0"
           id="path4389"
           d="m 104.62,330.90889 c -1.89253,-0.49994 -6.180514,-1.736 -9.528842,-2.74678 -4.978848,-1.503 -6.072824,-1.91811 -6.005248,-2.27864 0.196232,-1.04691 4.968008,-17.00471 6.435248,-21.5208 1.839104,-5.66064 4.124876,-11.42165 4.604792,-11.60581 0.59771,-0.22937 18.17093,5.3198 20.24748,6.39362 0.91762,0.47452 0.94204,0.21252 -0.57975,6.21797 -1.91375,7.55224 -6.90951,23.50152 -8.06283,25.74112 -0.3491,0.6779 -0.488,0.72722 -2.02236,0.7181 -1.00367,-0.006 -2.99224,-0.36502 -5.08849,-0.91878 z"
           style="opacity:0;fill:#7165f2;fill-opacity:1;fill-rule:evenodd;stroke:#000000;stroke-width:0.26469022;stroke-opacity:1" />
        <path
           inkscape:connector-curvature="0"
           id="path4391"
           d="m 107.2639,325.42233 c -1.89253,-0.49994 -6.18052,-1.736 -9.528846,-2.74678 -4.978848,-1.503 -6.072824,-1.91811 -6.005248,-2.27864 0.196232,-1.04691 4.968008,-17.00471 6.435248,-21.5208 1.839106,-5.66064 4.124876,-11.42165 4.604796,-11.60581 0.59771,-0.22937 18.17093,5.3198 20.24748,6.39362 0.91762,0.47452 0.94204,0.21252 -0.57975,6.21797 -1.91375,7.55224 -6.90951,23.50152 -8.06283,25.74112 -0.3491,0.6779 -0.488,0.72722 -2.02236,0.7181 -1.00367,-0.006 -2.99224,-0.36502 -5.08849,-0.91878 z"
           style="opacity:0;fill:#7165f2;fill-opacity:1;fill-rule:evenodd;stroke:#000000;stroke-width:0.26469022;stroke-opacity:1" />
        <path
           inkscape:connector-curvature="0"
           id="path4393"
           d="m 119.72164,319.77908 c -1.89253,-0.49994 -6.18052,-1.736 -9.52885,-2.74678 -4.97885,-1.503 -6.07282,-1.91811 -6.00525,-2.27864 0.19624,-1.04691 4.96801,-17.00471 6.43525,-21.5208 1.83911,-5.66064 4.12488,-11.42165 4.6048,-11.60581 0.59771,-0.22937 18.17093,5.3198 20.24748,6.39362 0.91762,0.47452 0.94204,0.21252 -0.57975,6.21797 -1.91375,7.55224 -6.90951,23.50152 -8.06283,25.74112 -0.3491,0.6779 -0.488,0.72722 -2.02236,0.7181 -1.00367,-0.006 -2.99224,-0.36502 -5.08849,-0.91878 z"
           style="opacity:0;fill:#7165f2;fill-opacity:1;fill-rule:evenodd;stroke:#000000;stroke-width:0.26469022;stroke-opacity:1" />
        <path
           inkscape:connector-curvature="0"
           id="path4395"
           d="m 123.27601,315.62988 c -1.89253,-0.49994 -6.18052,-1.736 -9.52885,-2.74678 -4.97884,-1.503 -6.07282,-1.91811 -6.00524,-2.27864 0.19623,-1.04691 4.968,-17.00471 6.43524,-21.5208 1.83911,-5.66064 4.12488,-11.42165 4.6048,-11.60581 0.59771,-0.22937 18.17093,5.3198 20.24748,6.39362 0.91762,0.47452 0.94204,0.21252 -0.57975,6.21797 -1.91375,7.55224 -6.90951,23.50152 -8.06283,25.74112 -0.3491,0.6779 -0.488,0.72722 -2.02236,0.7181 -1.00367,-0.006 -2.99224,-0.36502 -5.08849,-0.91878 z"
           style="opacity:0;fill:#7165f2;fill-opacity:1;fill-rule:evenodd;stroke:#000000;stroke-width:0.26469022;stroke-opacity:1" />
        <path
           inkscape:connector-curvature="0"
           id="path4397"
           d="m 120.72524,318.03267 c -1.89253,-0.49994 -6.18051,-1.736 -9.52884,-2.74678 -4.97885,-1.503 -6.07283,-1.91811 -6.00525,-2.27864 0.19623,-1.04691 4.96801,-17.00471 6.43525,-21.5208 1.8391,-5.66064 4.12487,-11.42165 4.60479,-11.60581 0.59771,-0.22937 18.17093,5.3198 20.24748,6.39362 0.91762,0.47452 0.94204,0.21252 -0.57975,6.21797 -1.91375,7.55224 -6.90951,23.50152 -8.06283,25.74112 -0.3491,0.6779 -0.488,0.72722 -2.02236,0.7181 -1.00367,-0.006 -2.99224,-0.36502 -5.08849,-0.91878 z"
           style="opacity:0;fill:#7165f2;fill-opacity:1;fill-rule:evenodd;stroke:#000000;stroke-width:0.26469022;stroke-opacity:1" />
        <path
           inkscape:connector-curvature="0"
           id="path4399"
           d="m 115.15846,315.99296 c -1.89253,-0.49994 -6.18052,-1.736 -9.52885,-2.74678 -4.97885,-1.503 -6.072821,-1.91811 -6.005245,-2.27864 0.196232,-1.04691 4.968005,-17.00471 6.435245,-21.5208 1.83911,-5.66064 4.12488,-11.42165 4.6048,-11.60581 0.59771,-0.22937 18.17093,5.3198 20.24748,6.39362 0.91762,0.47452 0.94204,0.21252 -0.57975,6.21797 -1.91375,7.55224 -6.90951,23.50152 -8.06283,25.74112 -0.3491,0.6779 -0.488,0.72722 -2.02236,0.7181 -1.00367,-0.006 -2.99224,-0.36502 -5.08849,-0.91878 z"
           style="opacity:0;fill:#7165f2;fill-opacity:1;fill-rule:evenodd;stroke:#000000;stroke-width:0.26469022;stroke-opacity:1" />
        <path
           inkscape:connector-curvature="0"
           id="path4401"
           d="m 112.71622,307.88066 c -1.89253,-0.49994 -6.18052,-1.736 -9.52885,-2.74678 -4.978848,-1.503 -6.072824,-1.91811 -6.005248,-2.27864 0.196232,-1.04691 4.968008,-17.00471 6.435248,-21.5208 1.8391,-5.66064 4.12488,-11.42165 4.6048,-11.60581 0.59771,-0.22937 18.17093,5.3198 20.24748,6.39362 0.91762,0.47452 0.94204,0.21252 -0.57975,6.21797 -1.91375,7.55224 -6.90951,23.50152 -8.06283,25.74112 -0.3491,0.6779 -0.488,0.72722 -2.02236,0.7181 -1.00367,-0.006 -2.99224,-0.36502 -5.08849,-0.91878 z"
           style="opacity:0;fill:#7165f2;fill-opacity:1;fill-rule:evenodd;stroke:#000000;stroke-width:0.26469022;stroke-opacity:1" />
        <path
           inkscape:connector-curvature="0"
           id="path4403"
           d="m 117.44701,317.97483 c -1.89253,-0.49994 -6.18052,-1.736 -9.52885,-2.74678 -4.97885,-1.503 -6.07282,-1.91811 -6.00525,-2.27864 0.19624,-1.04691 4.96801,-17.00471 6.43525,-21.5208 1.83911,-5.66064 4.12488,-11.42165 4.6048,-11.60581 0.59771,-0.22937 18.17093,5.3198 20.24748,6.39362 0.91762,0.47452 0.94204,0.21252 -0.57975,6.21797 -1.91375,7.55224 -6.90951,23.50152 -8.06283,25.74112 -0.3491,0.6779 -0.488,0.72722 -2.02236,0.7181 -1.00367,-0.006 -2.99224,-0.36502 -5.08849,-0.91878 z"
           style="opacity:0;fill:#7165f2;fill-opacity:1;fill-rule:evenodd;stroke:#000000;stroke-width:0.26469022;stroke-opacity:1" />
        <path
           style="opacity:0;fill:#7165f2;fill-opacity:1;fill-rule:evenodd;stroke:#000000;stroke-width:0.33086276;stroke-opacity:1"
           d="m 152.60242,346.3047 c -3.36171,-0.61813 -11.94412,-2.82863 -16.02547,-4.12754 -4.74845,-1.51122 -7.11354,-2.61491 -7.11354,-3.3196 0,-1.16709 5.26098,-18.63196 11.90648,-39.52592 3.9632,-12.4606 33.96395,-107.69364 40.02429,-127.0513 2.39279,-7.64293 6.08371,-19.29344 8.20206,-25.89001 l 3.85154,-11.99378 15.32119,0 c 8.42665,0 15.32119,0.12281 15.32119,0.27291 0,0.1501 -0.37906,1.37843 -0.84236,2.72962 -1.09133,3.18283 -16.24384,51.12617 -37.53254,118.75497 -17.19219,54.61521 -24.05123,76.13859 -27.20323,85.36259 -2.00815,5.87667 -1.63472,5.5741 -5.90961,4.78806 z"
           id="path4405"
           inkscape:connector-curvature="0"
           transform="scale(0.8,0.8)" />
        <path
           style="opacity:0;fill:#7165f2;fill-opacity:1;fill-rule:evenodd;stroke:#000000;stroke-width:0.33086276;stroke-opacity:1"
           d="m 152.60242,346.3047 c -3.36171,-0.61813 -11.94412,-2.82863 -16.02547,-4.12754 -4.74845,-1.51122 -7.11354,-2.61491 -7.11354,-3.3196 0,-1.16709 5.26098,-18.63196 11.90648,-39.52592 3.9632,-12.4606 33.96395,-107.69364 40.02429,-127.0513 2.39279,-7.64293 6.08371,-19.29344 8.20206,-25.89001 l 3.85154,-11.99378 15.32119,0 c 8.42665,0 15.32119,0.11725 15.32119,0.26055 0,0.1433 -0.74925,2.48829 -1.665,5.21109 -0.91575,2.72279 -1.59963,5.2113 -1.51974,5.53 0.0799,0.31871 0.0359,0.5119 -0.0977,0.4293 -0.34219,-0.21148 -4.41259,12.68453 -4.18821,13.26925 0.10125,0.26386 0.0648,0.40605 -0.0809,0.31596 -0.3619,-0.22366 -2.14543,5.34198 -1.90916,5.95767 0.10394,0.27088 0.0697,0.41881 -0.076,0.32873 -0.36189,-0.22367 -2.14543,5.34197 -1.90916,5.95767 0.10395,0.27088 0.0697,0.4188 -0.076,0.32872 -0.36189,-0.22366 -2.14542,5.34197 -1.90916,5.95767 0.10395,0.27088 0.0697,0.41881 -0.076,0.32872 -0.3619,-0.22366 -2.14543,5.34198 -1.90916,5.95767 0.10394,0.27088 0.0697,0.41881 -0.076,0.32872 -0.36189,-0.22366 -2.14543,5.34198 -1.90916,5.95767 0.10395,0.27088 0.067,0.41713 -0.0821,0.32499 -0.36012,-0.22256 -3.7885,10.65307 -3.55227,11.26866 0.10111,0.26348 0.0646,0.40536 -0.0812,0.31527 -0.36189,-0.22366 -2.14542,5.34198 -1.90916,5.95767 0.10395,0.27088 0.0697,0.41881 -0.076,0.32873 -0.3619,-0.22367 -2.14543,5.34197 -1.90916,5.95767 0.10394,0.27088 0.0697,0.4188 -0.076,0.32872 -0.36189,-0.22367 -2.14543,5.34197 -1.90916,5.95767 0.10395,0.27088 0.067,0.41712 -0.0821,0.32498 -0.36012,-0.22256 -3.7885,10.65307 -3.55227,11.26866 0.10111,0.26349 0.0646,0.40536 -0.0812,0.31528 -0.36189,-0.22367 -2.14542,5.34197 -1.90916,5.95767 0.10395,0.27088 0.067,0.41712 -0.0821,0.32498 -0.36012,-0.22256 -3.78849,10.65307 -3.55227,11.26866 0.10111,0.26349 0.0646,0.40536 -0.0812,0.31528 -0.3619,-0.22367 -2.14543,5.34197 -1.90916,5.95767 0.10394,0.27088 0.067,0.41712 -0.0821,0.32498 -0.36013,-0.22256 -3.7885,10.65307 -3.55227,11.26866 0.1011,0.26349 0.0646,0.40536 -0.0812,0.31528 -0.36189,-0.22367 -2.14543,5.34197 -1.90916,5.95767 0.10395,0.27088 0.0669,0.41705 -0.0823,0.32484 -0.35972,-0.22232 -5.77245,16.94219 -5.53651,17.55703 0.10072,0.26247 0.0639,0.40352 -0.0819,0.31344 -0.3619,-0.22367 -2.14543,5.34197 -1.90916,5.95767 0.10394,0.27088 0.067,0.41712 -0.0821,0.32498 -0.36012,-0.22256 -3.78849,10.65307 -3.55226,11.26866 0.1011,0.26349 0.066,0.40621 -0.0781,0.31718 -0.36174,-0.22357 -2.81029,7.32507 -2.57496,7.93833 0.1045,0.27232 0.0721,0.42227 -0.0719,0.33323 -0.36174,-0.22356 -2.81029,7.32507 -2.57496,7.93834 0.12166,0.31704 0.0536,0.41083 -0.1892,0.26077 -0.26022,-0.16083 -0.31797,-2.5e-4 -0.18406,0.51183 0.10733,0.41041 0.0978,0.64884 -0.0212,0.52986 -0.11898,-0.11899 -1.635,3.99793 -3.36892,9.14871 -3.60038,10.69524 -2.90356,9.83493 -7.30975,9.02474 l 0,0 z"
           id="path4407"
           inkscape:connector-curvature="0"
           transform="scale(0.8,0.8)" />
        <path
           style="opacity:0;fill:#9a65f2;fill-opacity:1;fill-rule:evenodd;stroke:#000000;stroke-width:0.33086276;stroke-opacity:1"
           d="m 152.60242,346.3047 c -3.36171,-0.61813 -11.94412,-2.82863 -16.02547,-4.12754 -4.74845,-1.51122 -7.11354,-2.61491 -7.11354,-3.3196 0,-1.16709 5.26098,-18.63196 11.90648,-39.52592 3.9632,-12.4606 33.96395,-107.69364 40.02429,-127.0513 2.39279,-7.64293 6.08371,-19.29344 8.20206,-25.89001 l 3.85154,-11.99378 15.32119,0 c 8.42665,0 15.32119,0.11725 15.32119,0.26055 0,0.1433 -0.74925,2.48829 -1.665,5.21109 -0.91575,2.72279 -1.59963,5.2113 -1.51974,5.53 0.0799,0.31871 0.0359,0.5119 -0.0977,0.4293 -0.34219,-0.21148 -4.41259,12.68453 -4.18821,13.26925 0.10125,0.26386 0.0648,0.40605 -0.0809,0.31596 -0.3619,-0.22366 -2.14543,5.34198 -1.90916,5.95767 0.10394,0.27088 0.0697,0.41881 -0.076,0.32873 -0.36189,-0.22367 -2.14543,5.34197 -1.90916,5.95767 0.10395,0.27088 0.0697,0.4188 -0.076,0.32872 -0.36189,-0.22366 -2.14542,5.34197 -1.90916,5.95767 0.10395,0.27088 0.0697,0.41881 -0.076,0.32872 -0.3619,-0.22366 -2.14543,5.34198 -1.90916,5.95767 0.10394,0.27088 0.0697,0.41881 -0.076,0.32872 -0.36189,-0.22366 -2.14543,5.34198 -1.90916,5.95767 0.10395,0.27088 0.067,0.41713 -0.0821,0.32499 -0.36012,-0.22256 -3.7885,10.65307 -3.55227,11.26866 0.10111,0.26348 0.0646,0.40536 -0.0812,0.31527 -0.36189,-0.22366 -2.14542,5.34198 -1.90916,5.95767 0.10395,0.27088 0.0697,0.41881 -0.076,0.32873 -0.3619,-0.22367 -2.14543,5.34197 -1.90916,5.95767 0.10394,0.27088 0.0697,0.4188 -0.076,0.32872 -0.36189,-0.22367 -2.14543,5.34197 -1.90916,5.95767 0.10395,0.27088 0.067,0.41712 -0.0821,0.32498 -0.36012,-0.22256 -3.7885,10.65307 -3.55227,11.26866 0.10111,0.26349 0.0646,0.40536 -0.0812,0.31528 -0.36189,-0.22367 -2.14542,5.34197 -1.90916,5.95767 0.10395,0.27088 0.067,0.41712 -0.0821,0.32498 -0.36012,-0.22256 -3.78849,10.65307 -3.55227,11.26866 0.10111,0.26349 0.0646,0.40536 -0.0812,0.31528 -0.3619,-0.22367 -2.14543,5.34197 -1.90916,5.95767 0.10394,0.27088 0.067,0.41712 -0.0821,0.32498 -0.36013,-0.22256 -3.7885,10.65307 -3.55227,11.26866 0.1011,0.26349 0.0646,0.40536 -0.0812,0.31528 -0.36189,-0.22367 -2.14543,5.34197 -1.90916,5.95767 0.10395,0.27088 0.0697,0.4188 -0.076,0.32872 -0.36189,-0.22367 -2.14542,5.34197 -1.90916,5.95767 0.10395,0.27088 0.067,0.41712 -0.0821,0.32498 -0.36012,-0.22256 -3.78849,10.65307 -3.55227,11.26866 0.10111,0.26349 0.0646,0.40536 -0.0812,0.31528 -0.3619,-0.22367 -2.14543,5.34197 -1.90916,5.95767 0.10394,0.27088 0.067,0.41712 -0.0821,0.32498 -0.36012,-0.22256 -3.78849,10.65307 -3.55226,11.26866 0.1011,0.26349 0.066,0.40621 -0.0781,0.31718 -0.36174,-0.22357 -2.81029,7.32507 -2.57496,7.93833 0.1045,0.27232 0.0721,0.42227 -0.0719,0.33323 -0.36174,-0.22356 -2.81029,7.32507 -2.57496,7.93834 0.12166,0.31704 0.0536,0.41083 -0.1892,0.26077 -0.26022,-0.16083 -0.31797,-2.5e-4 -0.18406,0.51183 0.10733,0.41041 0.0978,0.64884 -0.0212,0.52986 -0.11898,-0.11899 -1.635,3.99793 -3.36892,9.14871 -3.60038,10.69524 -2.90356,9.83493 -7.30975,9.02474 l 0,0 z"
           id="path4409"
           inkscape:connector-curvature="0"
           transform="scale(0.8,0.8)" />
        <path
           style="opacity:1;fill:#ffbe4a;fill-opacity:1;fill-rule:evenodd;stroke:#000000;stroke-width:0.26469022;stroke-opacity:1"
           d="m 86.042425,273.28666 c -6.983296,-1.43015 -16.781064,-4.4012 -17.803272,-5.39862 -0.471224,-0.4598 1.307896,-6.56569 9.072728,-31.13742 8.600832,-27.21723 27.268419,-86.48323 31.097779,-98.72944 6.36263,-20.3476 13.9081,-43.596516 14.40556,-44.386052 0.071,-0.112576 10.0116,2.303296 12.69199,3.08452 3.02615,0.882008 8.87001,3.054704 9.26081,3.443092 0.12872,0.12792 -1.05458,4.20892 -2.70113,9.31568 -3.37813,10.47725 -7.03943,22.06812 -27.82826,88.09805 -13.58436,43.14694 -20.774229,65.73792 -23.376901,73.45154 -1.0478,3.1054 -0.937376,3.05365 -4.819304,2.25865 z"
           id="path4423"
           inkscape:connector-curvature="0" />
        <path
           style="opacity:1;fill:#949494;fill-opacity:1;fill-rule:evenodd;stroke:#000000;stroke-width:0.26469022;stroke-opacity:1"
           d="m 72.410872,314.42874 c -1.991288,-0.43384 -17.24352,-4.90596 -17.527672,-5.13931 -0.229568,-0.18851 4.071488,-14.89166 6.624168,-22.6447 1.49976,-4.55512 3.762464,-10.47807 4.187296,-10.96088 0.112568,-0.12793 0.581432,0.005 8.039664,2.28036 3.12996,0.95486 7.328608,2.33217 9.330328,3.06069 3.275784,1.19221 3.639488,1.38709 3.639488,1.95008 0,2.29275 -7.279008,26.73852 -9.092384,30.5358 -0.56612,1.18548 -0.57568,1.19135 -2.0246,1.24196 -0.800688,0.028 -2.230016,-0.11783 -3.176288,-0.324 z"
           id="path4425"
           inkscape:connector-curvature="0" />
        <path
           style="opacity:1;fill:#ff8888;fill-opacity:1;fill-rule:evenodd;stroke:#000000;stroke-width:0.26469022;stroke-opacity:1"
           d="m 65.026017,336.0951 c -0.582312,-0.0524 -2.240192,-0.34115 -3.68416,-0.64165 -5.992808,-1.24715 -10.746248,-3.68233 -11.715368,-6.00175 -0.53524,-1.28103 -0.202872,-2.59542 2.079912,-8.2253 1.04184,-2.56942 1.921944,-4.70939 1.955784,-4.75548 0.03384,-0.0461 2.90232,0.86908 6.374408,2.03371 3.47208,1.16463 7.563536,2.43458 9.092128,2.82209 1.528584,0.38752 3.0634,0.88523 3.410704,1.10603 0.591096,0.37579 0.621648,0.51375 0.477944,2.15847 -0.359472,4.11438 -2.415224,9.88203 -3.888648,10.91007 -0.715968,0.49954 -2.41608,0.74561 -4.102704,0.59381 z"
           id="path4427"
           inkscape:connector-curvature="0" />
        <path
           style="opacity:1;fill:#fdd3b2;fill-opacity:1;fill-rule:evenodd;stroke:#000000;stroke-width:0.26469022;stroke-opacity:1"
           d="m 139.27162,89.874208 c -7.52126,-2.475304 -11.64636,-3.984792 -11.64636,-4.261728 0,-0.369792 4.16972,-7.107896 6.52341,-10.541554 4.49151,-6.552408 6.45925,-8.839329 7.92143,-9.206311 0.95776,-0.240386 2.50358,0.06362 3.28319,0.645685 0.58967,0.44025 0.6669,0.689179 0.65911,2.124431 -0.005,0.894162 -0.0346,6.509283 -0.0662,12.478045 -0.0315,5.968768 -0.14668,10.842456 -0.25586,10.830424 -0.10919,-0.012 -2.99762,-0.943072 -6.41874,-2.068992 z"
           id="path4429"
           inkscape:connector-curvature="0" />
      </g>
    </g>
  </g>
</svg>
