<?xml version="1.0" encoding="utf-8"?>
<!-- Generator: Adobe Illustrator 19.2.1, SVG Export Plug-In . SVG Version: 6.00 Build 0)  -->
<svg version="1.1"
	 id="svg2" inkscape:version="0.91 r13725" sodipodi:docname="question-mark.svg" xmlns:cc="http://creativecommons.org/ns#" xmlns:dc="http://purl.org/dc/elements/1.1/" xmlns:inkscape="http://www.inkscape.org/namespaces/inkscape" xmlns:rdf="http://www.w3.org/1999/02/22-rdf-syntax-ns#" xmlns:sodipodi="http://sodipodi.sourceforge.net/DTD/sodipodi-0.dtd" xmlns:svg="http://www.w3.org/2000/svg"
	 xmlns="http://www.w3.org/2000/svg" xmlns:xlink="http://www.w3.org/1999/xlink" x="0px" y="0px" viewBox="0 0 635.6 513"
	 style="enable-background:new 0 0 635.6 513;" xml:space="preserve">
<style type="text/css">
	.st0{display:none;}
	.st1{display:inline;fill:#BDC3C7;}
	.st2{display:none;fill:#F99B1D;}
	.st3{display:none;opacity:0.49;fill:#F99B1D;stroke:#F99B1D;stroke-miterlimit:10;enable-background:new    ;}
	.st4{clip-path:url(#SVGID_2_);}
	.st5{clip-path:url(#SVGID_4_);}
	.st6{fill:#FDC00F;}
	.st7{fill:#EDDFDF;}
	.st8{fill:#F99B1D;stroke:#F99B1D;stroke-miterlimit:10;}
	.st9{fill:#F99B1D;}
	.st10{fill:none;}
	.st11{fill:#FFFDFF;}
	.st12{fill:#FFFFFF;}
	.st13{clip-path:url(#SVGID_6_);fill:#F99B1D;stroke:#F99B1D;stroke-miterlimit:10;}
	.st14{clip-path:url(#SVGID_2_);fill:#F99B1D;stroke:#F99B1D;stroke-miterlimit:10;}
</style>
<sodipodi:namedview  bordercolor="#666666" borderopacity="1" gridtolerance="10" guidetolerance="10" id="namedview61" inkscape:current-layer="svg2" inkscape:cx="480" inkscape:cy="280" inkscape:pageopacity="0" inkscape:pageshadow="2" inkscape:window-height="837" inkscape:window-maximized="1" inkscape:window-width="1600" inkscape:window-x="-8" inkscape:window-y="-8" inkscape:zoom="0.39583333" objecttolerance="10" pagecolor="#ffffff" showgrid="false">
	</sodipodi:namedview>
<g id="Слой_1" class="st0">
	<rect id="rect7" x="-195" y="-49" class="st1" width="960" height="560"/>
</g>
<g id="Слой_2">
</g>
<g id="Слой_5">
	<path id="path22" class="st2" d="M283.8,187.3"/>
	<ellipse id="ellipse24" class="st3" cx="272.1" cy="183.3" rx="92.1" ry="83.2"/>
</g>
<g>
	<g>
		<defs>
			<ellipse id="SVGID_1_" cx="317.8" cy="256.5" rx="308.3" ry="250.6"/>
		</defs>
		<clipPath id="SVGID_2_">
			<use xlink:href="#SVGID_1_"  style="overflow:visible;"/>
		</clipPath>
		<g class="st4">
			<g>
				<g>
					<defs>
						<ellipse id="SVGID_3_" cx="-743.9" cy="141.9" rx="2220.3" ry="1517.2"/>
					</defs>
					<clipPath id="SVGID_4_">
						<use xlink:href="#SVGID_3_"  style="overflow:visible;"/>
					</clipPath>
					<g id="Слой_4" transform="matrix(2.6840705,0,0,2.4606698,-815.57729,-404.8297)" class="st5">
						<g id="g27">
							<path id="path29" inkscape:connector-curvature="0" class="st6" d="M349.9,190c17-12.7,33.8-16.7,44.2-19
								c11-2.4,42.7-9,77.8,6.1c9.6,4.1,36,16,52.9,45.3c4.8,8.3,18.5,33,12.5,64.3c-5.1,26.4-21.4,42.6-29.9,50.8
								c-33.5,32.4-75.9,33.6-82.2,33.7c-11.7,0.1-53.4-1-85.3-33.7c-7.2-7.3-31.3-32.9-30.5-71.6
								C310.3,220.5,344.6,193.9,349.9,190z"/>
							<g id="g31">
								<path id="path33" inkscape:connector-curvature="0" class="st7" d="M455.6,273.8"/>
								<path id="path35" inkscape:connector-curvature="0" class="st8" d="M538.1,267.5C538.1,267.4,538.1,267.4,538.1,267.5
									c0-0.1,0-0.1,0-0.2c-6.5-3.8-12.4-7-17.6-9.8c-39.9-21.4-87.5-41.8-87.4-42.2h0.2c0,0-3.2-0.8-15.4-3.6
									c-11,10.5-22.1,21-33.1,31.5c12.3,7.1,28.9,16.7,49,28.2c0.3,0.2,4.3,2.5,4.6,2.7c12.3,7.1,36.8,21.1,83.7,48
									c0.3-0.3,0.6-0.7,1-1c0.5-1,0.9-1.9,1.4-2.8c0.6-1.1,1.4-2.6,2.6-3.2c0.9-1.8,1.8-3.6,2.6-5.5c-0.4-0.1-0.7-0.5-0.4-0.9
									c0.5-0.7,1-1.3,1.5-2c0.1-0.3,0.2-0.6,0.3-0.9c-0.2-0.2-0.2-0.4-0.1-0.7c0.8-1.7,1.6-3.3,2.7-4.8c0-0.3,0.1-0.6,0.3-0.9
									c0.5-1.5,1.4-2.9,1.9-4.5c0-0.1,0-0.1,0-0.2s0.1-0.3,0.1-0.4c0.6-2.3,0.8-4.7,1.2-7.1c0,0,0,0,0-0.1c0.2-1.9,0.6-3.6,1-5.4
									c0.1-1,0.3-2,0.4-3c0-2.8,0.1-5.7,0.3-8.5C538.5,269.2,538.3,268.3,538.1,267.5L538.1,267.5z"/>
								<path id="path37" inkscape:connector-curvature="0" class="st9" d="M452.6,114.7"/>
								<path id="path39" inkscape:connector-curvature="0" class="st8" d="M484.5,293.3c-6.7-3.2-17.4-8.2-26-12.9
									c-3.1-1.7-6.5-3-9.5-4.9c-4.6-2.9-6.8-5-9.2-4.3c-1.7,0.5-2.6,2.2-3.7,4.6c-2.6,5.5-0.9,8.7-2.5,14.2
									c-1.5,5.3-4.2,6.4-4.4,8.3c-0.8,8.6,52.7,22.9,88.8,28.8c0.3-0.2,0.5-0.4,0.8-0.6c1-2.1,2.5-3.8,4.1-5.5
									c0.5-0.9,0.9-1.9,1.4-2.8c0.6-1.1,1.4-2.6,2.6-3.2c0.2-0.3,0.3-0.6,0.5-0.9C516.8,308.8,502.5,301.9,484.5,293.3
									L484.5,293.3z"/>
								<path id="path41" inkscape:connector-curvature="0" class="st9" d="M423,298.6"/>
								<path id="path43" inkscape:connector-curvature="0" class="st8" d="M539.1,270.7c-0.2-4.3-0.9-8.6-1.3-11.6
									c-0.3-2-0.6-3.6-0.8-4.8c-10.1-5.6-20.5-11.1-31.4-16.6c-18.4-9.3-36.3-17.5-53.5-24.8l-23.7,96
									c12.8,17.7,25.5,35.3,38.3,53c3-0.8,6.1-1.7,9.4-2.9c2.3-0.8,4.4-1.6,6.4-2.4c1.9-1,3.9-2.2,6-3.6c1.7-1.1,3.3-2.3,4.8-3.4
									c1.2-0.8,2.9-2,4.9-3.7c1.7-1.4,2.9-2.6,5.1-4.7c4.1-4,6.2-6,6.6-6.4c5.9-5.6,5.9-4.8,8.4-7.5c2.3-2.5,4.1-5.4,7.5-11
									c1.6-2.7,3.7-6.3,6.1-10.8c4-8.7,5.6-16.2,6.4-21.4C538.7,281.1,539.4,276.5,539.1,270.7z"/>
								<path id="path45" inkscape:connector-curvature="0" class="st8" d="M431.1,295.8c-0.6-0.2-4.1-1.1-9-2.1
									c-2.9-0.6-5.8-1.1-8.7-1.6c-0.1,0.2-0.2,0.3-0.3,0.5v0.1c0,0.1,0,0.3,0,0.4c0,0,0.1,0,0.1,0.1c1.1-0.3,2.3-0.3,3.3,0.1
									c1.5,0.6,1.6,2.8,1.1,3.1c-0.3,0.2-0.8-0.3-0.8-0.2c-0.1,0.2,5.8,5.5,15.6,12.5c2.9,2.1,5.4,3.7,7.1,4.9
									c-6,4.5-12,8.9-18,13.4c9.5,7.3,18.9,14.7,28.4,22c5.7,4.4,11.4,8.9,17.1,13.4c0.8-0.2,1.6-0.5,2.1-0.7
									c0.4-0.2,0.9-0.4,1.6-0.7c0.5-0.2,0.9-0.5,1.2-0.6c0.4-0.2,0.6-0.4,0.7-0.4c0.5-0.3,1.6-0.9,4.2-2.1
									c0.5-0.1,4.5-1.6,4.9-1.7c3.6-2,7-4.2,10.4-6.4c4.7-3.3,9.8-7.2,15-12c8.5-7.8,15-15.6,19.9-22.4
									C461.2,302.3,436.1,297.1,431.1,295.8z"/>
								<line id="line47" class="st10" x1="435.9" y1="312.5" x2="438.6" y2="327.3"/>
								<path id="path49" inkscape:connector-curvature="0" class="st9" d="M424.6,305.2"/>
								<path id="path51" inkscape:connector-curvature="0" class="st8" d="M483.1,355.2"/>
								<path id="path53" inkscape:connector-curvature="0" class="st8" d="M543.4,263.8"/>
								<path id="path55" inkscape:connector-curvature="0" class="st11" d="M412.4,319.4c0.4,1.3,1.7,5.4,6.4,7.2
									c4.6,1.7,9.9,0.2,13-1.9c4.6-3.2,5.5-8.3,4-12.1c-0.4-0.9-1.6-3.9-5.4-5.8c-4.3-2.1-10.4-1.9-14.6,0.9
									C410,311.8,412.1,318.4,412.4,319.4z"/>
								<path id="path57" inkscape:connector-curvature="0" class="st12" d="M396.7,247.7c-2.7,0.8-6.7,1.5-10-0.4
									c-6.3-3.8-5.7-15.2-3.3-22c5.1-14.2,22.9-20.8,35.3-22c3.1-0.3,27.3-2.3,39.8,15.1c1,1.4,9.9,14.1,5.8,26.5
									c-2.3,7-8.2,12.1-17.4,20.4c-7,6.3-8.2,6.2-10.4,9.8c-5.5,9.2-0.8,16.2-6,20.6c-4.2,3.6-12.4,3.3-16.4-0.6
									c-3.3-3.2-2.9-8.1-2.5-12.6c0.2-2.8,1.4-14.2,10.8-23.3c6.1-5.9,9.3-4.6,14.5-11c2.6-3.2,6.8-8.3,5.8-14.3
									c-1.2-7.3-9.4-12.2-16.6-13.1c-8.2-1-16.9,3.3-19.9,9.4c-1.8,3.7-0.9,6.9-4.2,11.8C400.3,244.8,398.1,246.7,396.7,247.7
									L396.7,247.7z"/>
							</g>
							<path id="path59" inkscape:connector-curvature="0" class="st12" d="M502.8,389.7"/>
						</g>
					</g>
				</g>
			</g>
			<g>
				<defs>
					<ellipse id="SVGID_5_" cx="317.8" cy="256.5" rx="308.3" ry="250.6"/>
				</defs>
				<clipPath id="SVGID_6_">
					<use xlink:href="#SVGID_5_"  style="overflow:visible;"/>
				</clipPath>
				<path class="st13" d="M332.6,344.6"/>
			</g>
		</g>
		<path class="st14" d="M331.1,345.2"/>
	</g>
</g>
</svg>
